<?xml version="1.0" encoding="UTF-8" standalone="no"?><!DOCTYPE svg PUBLIC "-//W3C//DTD SVG 1.1//EN" "http://www.w3.org/Graphics/SVG/1.1/DTD/svg11.dtd"><svg width="100%" height="100%" viewBox="0 0 3508 2481" version="1.1" xmlns="http://www.w3.org/2000/svg" xmlns:xlink="http://www.w3.org/1999/xlink" xml:space="preserve" xmlns:serif="http://www.serif.com/" style="fill-rule:evenodd;clip-rule:evenodd;stroke-linecap:round;stroke-linejoin:round;stroke-miterlimit:1.5;"><path d="M3642.28,234.254c-0,-148.844 -120.843,-269.687 -269.688,-269.687l-1848.31,-0c-148.844,-0 -269.687,120.843 -269.687,269.687l0,539.375c0,148.845 120.843,269.687 269.687,269.687l1848.31,0c148.845,0 269.688,-120.842 269.688,-269.687l-0,-539.375Z" style="fill:#0c150c;"/><path d="M3732,1054.4c-0,-144.994 -117.717,-262.711 -262.711,-262.711l-1452.64,-0c-144.994,-0 -262.711,117.717 -262.711,262.711l0,525.421c0,144.994 117.717,262.711 262.711,262.711l1452.64,-0c144.994,-0 262.711,-117.717 262.711,-262.711l-0,-525.421Z" style="fill:none;stroke:#fff;stroke-width:16.67px;"/></svg>