<?xml version="1.0" encoding="UTF-8" standalone="no"?><!DOCTYPE svg PUBLIC "-//W3C//DTD SVG 1.1//EN" "http://www.w3.org/Graphics/SVG/1.1/DTD/svg11.dtd"><svg width="100%" height="100%" viewBox="0 0 3508 2481" version="1.1" xmlns="http://www.w3.org/2000/svg" xmlns:xlink="http://www.w3.org/1999/xlink" xml:space="preserve" xmlns:serif="http://www.serif.com/" style="fill-rule:evenodd;clip-rule:evenodd;stroke-linejoin:round;stroke-miterlimit:2;"><path d="M202.424,123.307l1534.34,11.507l-5.972,131.55l-1528.37,-15.773l-0,-127.284Z" style="fill:#070c00;"/><path d="M202.424,194.836l1871.64,-0l-2.939,131.815l-1868.7,1.356l-0,-133.171Z" style="fill:#81753d;"/><path d="M202.424,409.479l935.82,-2.195l-0,-79.277l-935.82,0l-0,81.472Z" style="fill:#ababaa;"/><rect x="202.424" y="261.421" width="2510.79" height="66.586" style="fill:#6f6f6f;"/><path d="M3283.35,2390.57l-1534.37,-7.103l5.594,-131.567l1528.4,11.387l0.366,127.283Z" style="fill:#12120a;"/><path d="M3283.15,2319.05l-1871.63,5.372l2.56,-131.823l1868.69,-6.72l0.382,133.171Z" style="fill:#82753d;"/><path d="M3282.53,2104.4l-935.81,4.881l0.228,79.276l935.816,-2.686l-0.234,-81.471Z" style="fill:#aeacaa;"/><path d="M3282.95,2252.46l-2510.78,7.207l-0.191,-66.585l2510.78,-7.207l0.191,66.585Z" style="fill:#71706e;"/></svg>