<?xml version="1.0" standalone="no"?>
<!DOCTYPE svg PUBLIC "-//W3C//DTD SVG 20010904//EN"
 "http://www.w3.org/TR/2001/REC-SVG-20010904/DTD/svg10.dtd">
<svg version="1.0" xmlns="http://www.w3.org/2000/svg"
 width="2000.000000pt" height="2000.000000pt" viewBox="0 0 2000.000000 2000.000000"
 preserveAspectRatio="xMidYMid meet">
<metadata>
Created by potrace 1.14, written by Peter Selinger 2001-2017
</metadata>
<g transform="translate(0.000000,2000.000000) scale(0.100000,-0.100000)"
fill="#000000" stroke="none">
<path d="M9541 18073 c-6 -10 -11 -13 -11 -7 0 8 -13 9 -37 5 -21 -4 -68 -6
-105 -6 -36 0 -64 -3 -61 -7 2 -5 -3 -8 -11 -8 -9 0 -16 6 -16 13 0 9 -2 9 -8
-1 -5 -7 -29 -13 -55 -14 -28 0 -44 -5 -41 -10 4 -6 -4 -5 -16 2 -12 7 -20 8
-16 2 3 -6 -14 -9 -44 -8 -28 1 -50 -3 -50 -7 0 -5 -10 -5 -21 -2 -12 4 -19 3
-16 -1 3 -5 -7 -10 -21 -10 -63 -4 -119 -11 -130 -18 -7 -4 -16 -4 -22 -1 -5
3 -10 2 -10 -4 0 -5 -15 -9 -32 -8 -24 1 -32 -2 -30 -12 3 -12 0 -12 -12 -1
-10 8 -16 9 -16 2 0 -6 -7 -9 -15 -6 -8 4 -22 1 -29 -5 -11 -9 -15 -9 -19 1
-4 10 -6 10 -6 1 -1 -7 -12 -13 -25 -13 -14 0 -27 -4 -30 -9 -3 -4 -17 -7 -31
-6 -14 2 -25 -1 -25 -6 0 -6 -5 -7 -10 -4 -6 4 -18 1 -27 -7 -9 -7 -19 -12
-22 -10 -3 1 -28 -3 -56 -10 -27 -6 -56 -11 -62 -10 -7 2 -13 -2 -13 -8 0 -5
-14 -10 -31 -10 -16 0 -28 -4 -25 -8 3 -5 -10 -8 -29 -7 -18 0 -31 -3 -29 -7
3 -4 0 -8 -5 -8 -18 0 -19 0 -55 -15 -18 -8 -36 -11 -40 -8 -3 4 -6 0 -6 -7 0
-7 -3 -10 -7 -7 -3 4 -13 1 -21 -6 -13 -10 -14 -9 -8 2 5 8 -2 6 -19 -5 -16
-10 -34 -19 -42 -20 -8 -2 -22 -6 -31 -10 -9 -4 -20 -8 -24 -9 -5 -2 -9 -3
-10 -4 -2 -2 -14 -5 -28 -7 -13 -2 -27 -9 -31 -16 -4 -6 -11 -8 -17 -4 -5 3
-15 -1 -22 -9 -7 -8 -21 -15 -31 -15 -9 0 -24 -7 -32 -15 -12 -11 -17 -12 -20
-2 -4 9 -6 9 -6 -1 -1 -7 -5 -10 -11 -7 -5 3 -10 1 -10 -5 0 -6 -4 -8 -10 -5
-5 3 -10 2 -10 -4 0 -5 -13 -12 -30 -16 -16 -4 -30 -11 -30 -17 0 -6 -3 -9 -6
-5 -6 6 -106 -39 -150 -68 -17 -11 -24 -12 -18 -4 6 10 3 10 -12 -1 -10 -8
-22 -19 -25 -23 -3 -5 -8 -8 -10 -6 -8 4 -49 -13 -49 -21 0 -5 -13 -11 -30
-15 -16 -4 -30 -11 -30 -16 0 -5 -6 -9 -14 -9 -7 0 -25 -9 -38 -20 -14 -10
-28 -16 -32 -13 -3 3 -6 1 -6 -5 0 -6 -7 -9 -17 -5 -10 4 -14 2 -10 -4 4 -6
-6 -16 -23 -22 -17 -5 -30 -15 -30 -21 0 -6 -4 -9 -9 -5 -5 3 -12 1 -16 -5 -4
-6 -11 -8 -16 -5 -5 4 -9 1 -9 -5 0 -6 -12 -16 -27 -23 -16 -6 -37 -20 -48
-30 -10 -9 -25 -15 -33 -12 -7 2 -11 1 -9 -3 3 -4 -1 -12 -8 -19 -11 -10 -15
-10 -18 0 -3 7 -6 4 -6 -5 -1 -10 -8 -18 -16 -18 -8 0 -15 -4 -15 -10 0 -5 -9
-10 -21 -10 -11 0 -17 -4 -14 -10 3 -5 -1 -10 -9 -10 -9 0 -16 -5 -16 -11 0
-6 -7 -8 -16 -5 -9 3 -12 2 -9 -5 4 -6 -2 -13 -14 -16 -12 -3 -21 -9 -21 -13
0 -4 -16 -15 -35 -26 -19 -10 -35 -22 -35 -26 0 -5 -5 -8 -11 -8 -7 0 -22 -11
-35 -26 -13 -14 -24 -21 -24 -17 0 4 -7 -1 -15 -11 -8 -11 -15 -17 -15 -13 0
4 -10 -2 -22 -13 -40 -38 -75 -60 -83 -52 -5 4 -6 3 -3 -3 3 -5 0 -16 -8 -23
-8 -7 -14 -10 -14 -7 0 3 -11 -6 -25 -21 -14 -15 -25 -24 -25 -21 0 3 -20 -13
-44 -36 -55 -53 -98 -87 -109 -87 -4 0 -5 -5 -2 -10 3 -6 -1 -13 -11 -17 -9
-3 -57 -46 -107 -95 -49 -48 -94 -88 -98 -88 -5 0 -9 -4 -9 -9 0 -5 -40 -51
-90 -101 -49 -50 -90 -94 -92 -98 -2 -7 -14 -21 -78 -89 -22 -24 -37 -43 -33
-43 4 0 -8 -13 -25 -28 -18 -16 -32 -33 -32 -38 0 -5 -8 -17 -17 -26 -24 -22
-45 -48 -39 -48 2 0 -8 -14 -24 -31 -49 -55 -60 -69 -52 -69 4 0 0 -6 -8 -13
-26 -21 -56 -61 -40 -52 8 4 3 -4 -12 -18 -14 -15 -29 -35 -33 -46 -3 -10 -12
-22 -20 -25 -8 -3 -15 -12 -15 -19 0 -8 -11 -26 -25 -41 -13 -14 -25 -29 -25
-31 0 -10 -73 -120 -81 -123 -5 -2 -7 -8 -3 -13 3 -5 0 -9 -6 -9 -6 0 -8 -4
-5 -10 3 -5 1 -10 -5 -10 -7 0 -9 -7 -6 -16 3 -8 2 -12 -4 -9 -5 3 -12 -5 -16
-19 -3 -13 -12 -27 -21 -30 -8 -3 -11 -10 -8 -16 3 -5 1 -10 -4 -10 -6 0 -11
-6 -11 -14 0 -8 -6 -21 -13 -28 -7 -7 -23 -36 -37 -65 -13 -28 -28 -49 -32
-47 -5 3 -7 2 -6 -3 3 -11 -42 -107 -54 -114 -5 -3 -9 -10 -9 -15 2 -19 -11
-44 -21 -44 -6 0 -8 -3 -5 -7 4 -3 0 -17 -8 -30 -9 -13 -13 -28 -10 -33 3 -6
1 -10 -5 -10 -6 0 -15 -12 -21 -27 -6 -16 -15 -39 -21 -53 -5 -14 -9 -27 -9
-30 0 -3 -7 -12 -14 -20 -7 -8 -13 -17 -13 -20 2 -12 -27 -80 -34 -80 -4 0 -7
-3 -6 -7 1 -5 -4 -24 -11 -43 -8 -19 -15 -37 -16 -40 -1 -3 -7 -18 -13 -33 -7
-16 -12 -37 -12 -48 0 -11 -4 -18 -9 -15 -5 3 -11 -12 -15 -33 -3 -22 -12 -42
-18 -44 -10 -4 -9 -6 1 -6 11 -1 10 -6 -4 -21 -10 -12 -20 -28 -21 -38 -4 -28
-12 -61 -19 -72 -3 -5 -8 -18 -10 -27 -2 -10 -10 -37 -18 -60 -9 -22 -13 -44
-10 -47 4 -3 1 -6 -6 -6 -7 0 -10 -4 -7 -9 5 -7 -1 -31 -22 -91 -6 -16 -8 -26
-18 -77 -3 -18 -9 -33 -13 -33 -3 0 -7 -12 -8 -27 -5 -55 -15 -103 -22 -99 -4
3 -6 -11 -6 -30 1 -19 -1 -34 -5 -34 -4 0 -7 -6 -7 -12 0 -12 -6 -45 -20 -118
-9 -50 -15 -85 -16 -107 -1 -13 -5 -23 -8 -23 -3 0 -5 -11 -4 -25 2 -14 0 -25
-4 -25 -4 0 -6 -16 -6 -35 1 -19 -2 -35 -7 -35 -5 0 -4 -8 1 -19 6 -10 7 -21
4 -25 -8 -8 -12 -28 -16 -73 -1 -18 -4 -33 -7 -33 -3 0 -5 -21 -4 -47 1 -27
-3 -53 -8 -60 -5 -7 -5 -14 2 -18 6 -3 7 -12 3 -18 -4 -7 -8 -27 -9 -45 0 -18
-4 -35 -7 -38 -4 -4 -2 -14 3 -24 5 -10 6 -20 3 -24 -13 -13 -23 -439 -13
-533 4 -34 2 -53 -4 -53 -7 0 -8 -3 -1 -8 6 -4 11 -36 12 -72 6 -154 16 -256
27 -267 2 -2 0 -18 -4 -34 -5 -16 -5 -27 -1 -25 7 5 13 -30 12 -79 0 -11 5
-23 12 -27 9 -6 9 -8 -1 -8 -8 0 -10 -5 -5 -12 4 -7 8 -22 9 -33 1 -11 4 -36
8 -55 14 -91 17 -107 18 -132 0 -15 4 -26 7 -23 4 2 7 -8 8 -23 0 -15 4 -40 8
-57 4 -16 8 -39 10 -50 1 -11 4 -22 5 -25 1 -3 3 -9 4 -15 1 -5 8 -37 15 -70
8 -33 15 -67 16 -75 1 -8 7 -25 13 -37 10 -19 10 -23 0 -23 -8 0 -9 -3 -3 -8
13 -9 35 -72 35 -100 0 -11 5 -24 11 -27 6 -4 8 -13 5 -21 -3 -7 0 -19 7 -26
7 -7 13 -24 15 -38 1 -14 3 -31 4 -37 1 -7 5 -13 10 -13 4 0 8 -8 8 -18 0 -10
3 -22 7 -26 4 -3 8 -14 9 -24 5 -37 30 -105 60 -165 10 -20 10 -26 1 -20 -6 4
-4 -5 5 -20 10 -14 18 -33 18 -42 0 -8 4 -15 8 -15 4 0 8 -8 9 -17 1 -10 11
-39 23 -65 11 -26 21 -50 20 -53 0 -3 6 -18 14 -34 9 -16 12 -31 9 -35 -4 -3
-2 -6 4 -6 14 0 35 -49 27 -62 -5 -7 -2 -8 6 -3 8 5 11 3 8 -6 -2 -7 4 -22 14
-33 10 -11 17 -25 15 -30 -2 -6 7 -26 20 -45 13 -18 23 -42 23 -52 0 -11 4
-19 9 -19 5 0 15 -15 21 -34 6 -19 16 -36 21 -38 6 -2 11 -10 13 -18 6 -31 26
-70 35 -70 6 0 8 -7 5 -15 -4 -8 -1 -15 5 -15 6 0 11 -7 11 -15 0 -8 5 -15 11
-15 5 0 7 -4 4 -10 -3 -5 -1 -10 5 -10 6 0 9 -4 6 -8 -3 -5 2 -18 12 -28 9
-11 26 -37 37 -59 11 -21 25 -43 30 -49 6 -6 19 -27 29 -46 33 -66 43 -80 49
-73 4 3 7 -1 7 -9 0 -9 7 -21 15 -28 9 -7 13 -15 11 -18 -3 -2 0 -10 7 -18 29
-33 37 -44 37 -54 0 -5 5 -10 10 -10 6 0 10 -5 10 -10 0 -11 10 -24 43 -61 9
-10 17 -23 17 -29 0 -5 11 -20 25 -34 13 -13 26 -30 27 -38 2 -7 13 -21 26
-31 12 -10 22 -23 22 -29 0 -6 10 -19 22 -29 11 -11 19 -19 16 -19 -3 0 10
-16 28 -36 19 -20 32 -40 29 -45 -4 -5 1 -9 9 -9 9 0 16 -4 16 -8 0 -9 55 -75
117 -139 22 -23 39 -43 36 -43 -2 0 22 -27 55 -60 33 -32 57 -62 54 -65 -3 -3
2 -5 12 -5 9 0 14 -4 11 -10 -3 -5 1 -10 9 -10 8 0 18 -9 21 -20 3 -11 13 -20
21 -20 8 0 13 -4 9 -9 -3 -5 4 -12 15 -16 11 -3 20 -13 20 -21 0 -8 7 -14 16
-14 8 0 12 -4 9 -10 -3 -5 -3 -10 2 -10 4 0 37 -27 73 -60 36 -33 68 -60 73
-60 4 0 7 -7 7 -17 0 -9 3 -13 7 -10 9 9 34 -13 27 -24 -3 -5 -1 -8 4 -7 9 3
63 -36 106 -77 12 -11 24 -19 29 -17 4 1 7 -5 7 -13 0 -14 13 -20 35 -15 6 1
7 -2 3 -6 -7 -6 78 -78 85 -72 1 2 15 -8 30 -22 59 -54 67 -60 77 -60 6 0 10
-4 10 -10 0 -5 7 -10 15 -10 8 0 15 -4 15 -10 0 -5 7 -10 15 -10 8 0 15 -4 15
-10 0 -5 6 -10 14 -10 8 0 17 -7 20 -16 4 -9 9 -14 13 -11 3 4 14 -3 24 -14 9
-11 19 -19 21 -17 2 1 24 -12 50 -30 26 -18 51 -32 57 -32 6 0 11 -4 11 -10 0
-5 7 -10 15 -10 8 0 15 -4 15 -10 0 -5 7 -10 15 -10 8 0 15 -5 15 -11 0 -6 7
-8 17 -5 10 4 14 4 10 0 -7 -7 136 -94 154 -94 5 0 9 -5 9 -12 0 -6 3 -9 6 -5
4 3 13 -1 21 -9 8 -8 19 -12 24 -9 5 4 9 2 9 -3 0 -4 16 -14 35 -22 19 -8 35
-17 35 -22 0 -4 8 -8 18 -8 10 0 24 -6 31 -12 6 -7 15 -14 19 -14 25 -5 52
-18 52 -24 0 -8 39 -23 56 -21 6 1 17 -6 24 -14 7 -8 21 -15 31 -15 11 0 19
-4 19 -10 0 -5 9 -10 19 -10 11 0 26 -6 33 -12 7 -7 20 -14 28 -16 8 -1 24 -7
35 -12 21 -10 75 -32 88 -35 4 -2 10 -4 15 -5 4 -1 10 -2 15 -1 4 0 7 -3 7 -9
0 -5 12 -10 26 -10 16 0 23 -4 18 -11 -4 -8 0 -9 15 -4 13 4 21 2 21 -5 0 -6
5 -8 10 -5 6 3 10 1 10 -5 0 -7 7 -10 15 -7 8 4 17 2 20 -4 4 -5 11 -7 16 -4
5 4 9 2 9 -3 0 -4 22 -14 50 -21 27 -7 53 -17 56 -23 4 -6 10 -5 15 3 6 10 9
11 9 2 0 -7 9 -13 19 -13 11 0 23 -5 26 -11 4 -6 13 -8 20 -5 7 2 22 -2 34
-10 16 -12 21 -12 21 -2 0 10 2 10 8 1 4 -7 17 -14 27 -16 11 -2 27 -7 36 -11
9 -4 27 -8 41 -10 13 -1 29 -5 35 -9 6 -4 23 -8 37 -9 14 -1 26 -5 26 -8 0 -3
12 -7 26 -8 14 -1 31 -5 37 -9 7 -4 22 -6 35 -4 13 1 22 -3 22 -11 0 -10 3 -9
10 2 7 12 10 12 10 1 0 -7 6 -11 14 -8 8 3 17 3 21 -1 6 -7 43 -13 83 -14 12
0 22 -3 22 -7 0 -4 17 -8 37 -9 20 -1 40 -7 45 -14 6 -10 8 -10 8 0 0 7 5 10
10 7 6 -4 20 -8 33 -10 12 -2 40 -7 62 -11 22 -3 50 -6 63 -5 12 0 22 -5 22
-12 0 -8 4 -7 10 3 5 8 10 11 10 5 0 -5 19 -11 43 -12 44 -2 122 -10 122 -13
0 -1 30 -3 66 -4 36 -2 71 -6 77 -9 5 -4 13 -1 15 5 4 9 8 10 14 2 4 -5 34
-10 66 -10 31 1 57 -3 57 -8 0 -4 7 -3 15 4 8 7 15 9 15 4 0 -8 223 -9 395 -2
33 1 66 -2 74 -6 9 -6 12 -5 8 1 -4 6 2 13 13 16 11 3 20 1 20 -5 0 -6 8 -7
18 -3 9 4 40 8 69 9 29 1 56 5 59 9 10 10 26 9 20 -1 -3 -5 1 -9 9 -9 8 0 11
5 8 10 -4 6 0 8 10 4 9 -3 18 -1 21 6 3 9 5 9 5 0 1 -9 8 -10 24 -5 12 5 34 7
50 6 19 -2 25 1 20 9 -4 7 0 6 10 -2 9 -7 17 -9 17 -4 0 5 12 10 28 11 15 0
43 3 62 6 19 3 49 7 67 10 18 2 37 7 43 11 5 3 10 0 10 -7 0 -10 2 -10 8 -1 4
7 22 13 40 15 18 1 32 7 32 13 0 5 4 4 9 -4 6 -9 10 -10 16 -2 3 7 15 9 26 6
10 -4 19 -3 19 2 0 8 26 14 73 16 9 1 17 4 17 8 0 4 15 6 34 5 19 -1 32 2 30
6 -3 5 3 9 13 10 10 0 23 2 30 2 6 1 15 5 19 9 4 4 17 7 29 7 11 0 27 6 34 13
11 10 12 9 6 -1 -6 -11 -3 -12 14 -3 12 7 25 9 30 6 5 -3 11 0 13 6 2 5 15 12
28 14 47 7 58 11 76 25 11 9 15 10 10 3 -4 -7 -2 -13 3 -13 6 0 11 4 11 9 0 6
9 8 20 6 11 -2 18 0 15 6 -4 5 2 9 12 9 11 0 25 6 32 13 11 10 12 9 6 -3 -8
-13 -7 -13 8 -1 9 7 17 10 17 6 0 -4 6 -2 13 4 8 6 17 8 20 4 4 -3 7 0 7 7 0
7 3 11 6 8 3 -4 20 0 39 7 18 8 35 11 39 8 3 -4 6 0 6 7 0 7 3 10 7 7 3 -4 11
-2 18 3 6 5 22 11 36 14 13 2 23 8 22 14 -1 5 7 8 17 5 13 -3 20 0 20 8 0 11
2 11 10 -1 8 -12 10 -12 10 -1 0 8 3 12 6 8 4 -3 13 1 21 9 8 8 19 12 24 9 5
-4 9 -2 9 4 0 5 9 8 20 6 11 -2 20 0 20 5 0 7 11 13 50 26 32 10 70 30 70 37
0 4 5 5 10 2 6 -3 10 -2 10 4 0 6 7 8 15 5 8 -4 15 -1 15 6 0 6 4 9 9 5 5 -3
12 -1 16 5 4 6 10 8 15 5 4 -3 11 2 14 11 3 8 10 12 16 9 5 -3 10 -1 10 4 0 6
3 10 8 9 4 -1 17 3 28 10 12 6 24 8 28 5 3 -3 6 -1 6 6 0 7 5 9 10 6 6 -3 10
-3 10 2 0 4 24 19 54 33 30 13 52 29 49 34 -4 5 -1 6 7 1 7 -4 16 -2 20 6 5 7
15 14 24 15 8 1 36 16 61 33 25 17 50 31 54 31 5 0 14 7 21 15 7 9 19 14 26
11 7 -3 15 2 18 10 3 8 12 14 21 14 8 0 15 4 15 10 0 5 11 12 25 16 14 3 25
10 25 14 0 4 11 11 25 14 14 4 23 10 21 15 -6 8 30 25 47 22 5 -1 6 2 3 7 -2
4 12 17 32 28 20 10 48 29 62 42 14 12 30 22 37 22 7 0 13 5 13 11 0 6 7 9 14
6 11 -4 13 -1 9 10 -4 10 -2 14 4 10 6 -4 13 -4 15 0 1 5 28 27 59 50 31 23
63 49 72 58 10 9 17 13 17 9 0 -4 9 1 19 12 11 10 31 28 45 39 49 38 110 90
138 117 15 16 30 28 33 28 3 0 16 10 29 23 68 66 127 117 136 117 6 0 9 3 8 8
-4 10 79 92 86 85 3 -4 6 -1 6 5 0 14 82 98 92 94 4 -1 8 6 8 17 0 11 9 21 22
24 12 4 19 9 16 12 -9 9 23 45 40 45 7 0 10 4 7 10 -3 5 3 15 15 22 11 7 20
16 20 21 0 4 14 21 30 37 17 16 30 35 30 41 0 7 3 9 7 6 3 -4 18 10 31 31 14
20 36 47 48 58 13 12 20 24 18 27 -3 3 4 10 15 17 12 6 19 15 16 21 -4 5 -2 9
3 9 5 0 24 22 43 50 19 27 37 50 42 50 4 0 7 7 7 15 0 9 7 18 15 21 8 4 15 12
15 20 0 8 5 14 11 14 5 0 7 5 4 10 -3 6 -2 10 3 10 6 0 24 22 42 50 18 28 36
50 42 50 5 0 7 4 3 10 -3 5 3 18 15 30 11 11 20 24 20 28 0 5 9 18 21 30 11
12 17 27 14 32 -3 6 -2 10 4 10 6 0 18 15 27 33 9 17 20 34 23 37 3 3 13 19
21 35 8 17 17 32 20 35 6 6 23 36 52 91 11 21 24 39 30 39 5 0 7 4 3 9 -3 5 3
17 12 27 10 10 17 19 16 21 -8 10 -1 23 9 17 7 -5 8 -3 3 6 -4 7 -3 15 3 19 5
3 12 15 14 26 1 11 8 23 13 27 6 4 10 11 11 15 3 23 36 83 46 83 6 0 8 3 5 7
-4 3 -1 13 6 21 10 13 9 14 -3 7 -13 -7 -13 -6 0 11 15 18 41 70 71 142 8 17
17 32 21 32 3 0 5 8 4 17 -2 10 5 31 15 47 10 16 16 33 13 38 -3 4 0 8 5 8 6
0 11 9 11 21 0 11 3 18 8 16 4 -3 8 6 9 20 0 14 5 28 11 32 5 3 8 14 6 24 -1
9 1 17 6 17 4 0 14 23 21 50 7 28 17 50 21 50 5 0 6 5 3 10 -4 6 -1 17 5 25 7
8 9 15 5 15 -4 0 -2 7 5 15 7 8 9 15 4 15 -5 0 -3 4 3 8 7 4 14 24 15 44 2 20
6 34 9 32 6 -3 19 44 23 78 1 3 4 10 9 14 4 4 7 18 7 31 0 13 4 23 8 23 5 0 9
6 9 13 1 26 14 81 24 98 5 11 7 19 3 19 -3 0 -1 6 5 14 9 11 9 15 -1 19 -10 4
-10 6 0 6 7 1 12 14 12 31 0 17 4 30 9 30 4 0 8 8 8 18 -1 9 5 44 13 77 7 33
14 69 16 80 1 11 3 20 4 20 2 0 7 23 16 65 2 14 6 40 7 58 1 17 5 32 8 32 4 0
5 14 4 30 -1 17 0 30 4 30 3 0 7 17 9 38 2 36 9 77 12 77 1 0 3 23 5 50 1 28
4 50 5 50 1 0 4 25 7 55 2 30 8 60 14 66 5 6 6 14 2 18 -4 4 -6 26 -4 49 2 23
4 52 5 64 1 12 5 25 8 29 4 3 3 17 -2 30 -7 16 -6 24 1 24 8 0 7 5 -1 15 -7 8
-8 15 -3 15 13 0 11 43 -2 52 -6 5 -6 8 2 8 15 0 16 509 1 528 -7 8 -7 12 2
12 10 0 10 3 0 15 -10 12 -10 15 1 15 9 0 10 3 4 8 -5 4 -11 30 -12 57 -2 56
-12 172 -19 225 -3 19 -5 52 -6 73 -1 20 -4 37 -7 37 -3 0 -7 17 -7 38 -2 54
-15 124 -26 146 -7 13 -7 16 1 12 6 -4 11 -2 11 3 0 6 -4 11 -8 11 -4 0 -9 10
-10 23 -5 61 -11 89 -22 102 -9 11 -10 15 -1 15 7 0 9 4 6 10 -3 5 -8 18 -10
27 -2 10 -10 47 -19 82 -8 36 -13 68 -10 73 3 4 0 8 -5 8 -6 0 -11 11 -11 24
0 13 -7 42 -15 65 -8 22 -12 41 -10 41 2 0 -2 18 -10 39 -7 22 -11 42 -8 45 4
3 1 6 -6 6 -8 0 -11 8 -8 20 3 11 2 20 -2 20 -4 0 -8 6 -9 13 -2 22 -7 42 -15
55 -5 6 -6 12 -2 12 3 0 -1 14 -10 30 -9 17 -13 30 -9 30 4 0 1 7 -6 15 -7 8
-10 22 -6 30 3 8 1 15 -5 15 -6 0 -7 5 -4 10 3 6 1 10 -5 10 -6 0 -8 5 -5 10
3 6 2 10 -4 10 -5 0 -8 8 -7 18 2 9 -1 20 -6 23 -5 3 -10 16 -11 27 -1 12 -6
22 -11 22 -5 0 -6 3 -3 7 4 3 2 12 -4 20 -6 7 -9 13 -5 13 4 0 0 13 -8 29 -9
16 -12 31 -9 35 4 3 1 6 -5 6 -7 0 -12 7 -12 15 0 8 -4 24 -10 35 -5 11 -14
29 -20 40 -5 11 -10 27 -10 35 0 8 -4 15 -8 15 -5 0 -9 6 -10 13 -2 25 -29 87
-35 80 -4 -3 -7 3 -7 14 0 11 -3 23 -7 27 -5 4 -8 11 -9 14 -3 23 -27 72 -35
72 -5 0 -8 3 -8 8 1 4 -4 23 -12 42 -7 19 -12 39 -11 43 1 5 -2 6 -8 2 -9 -6
-14 7 -11 28 0 4 -4 7 -9 7 -6 0 -10 6 -10 14 0 8 -7 21 -15 30 -9 8 -16 19
-17 23 -2 18 -12 39 -26 56 -8 9 -12 17 -8 17 4 0 -2 13 -13 29 -12 16 -21 34
-21 40 0 6 -4 11 -8 11 -5 0 -14 16 -22 35 -8 19 -17 35 -21 35 -8 0 -35 62
-31 73 1 5 -1 6 -6 3 -5 -3 -19 14 -32 37 -13 23 -28 45 -34 49 -7 5 -7 8 -1
8 6 0 6 3 0 8 -21 14 -74 105 -68 115 3 6 1 7 -5 3 -6 -3 -20 11 -33 34 -13
22 -26 40 -31 40 -4 0 -8 6 -8 13 0 7 -9 19 -19 27 -11 7 -18 17 -15 21 2 4
-5 14 -16 22 -11 7 -17 17 -14 20 4 4 -1 9 -10 13 -9 3 -14 10 -11 15 3 4 -4
13 -15 19 -11 6 -20 15 -20 21 0 6 -6 16 -12 24 -7 7 -24 27 -38 45 -14 18
-31 38 -37 45 -7 8 -13 19 -13 25 0 6 -4 8 -10 5 -10 -6 -15 9 -10 30 1 6 -1
7 -5 3 -8 -8 -75 65 -75 81 0 7 -4 9 -10 6 -5 -3 -10 -2 -10 3 0 5 -22 32 -48
59 -27 28 -52 58 -55 67 -4 10 -11 14 -17 11 -5 -3 -10 -1 -10 5 0 6 -48 58
-107 117 -60 59 -107 110 -105 115 1 5 -1 7 -6 4 -5 -3 -39 24 -77 59 -37 35
-72 62 -78 58 -6 -3 -8 -2 -5 3 5 10 -58 74 -66 67 -2 -3 -10 5 -16 17 -6 12
-14 19 -17 16 -3 -2 -15 5 -28 17 -38 37 -65 57 -76 57 -5 0 -7 5 -4 10 3 6 0
10 -7 10 -8 0 -20 9 -28 19 -7 11 -17 18 -21 15 -4 -2 -14 5 -22 16 -7 11 -16
18 -18 15 -3 -2 -21 9 -40 26 -52 45 -57 49 -67 49 -5 0 -17 10 -26 23 -9 12
-14 16 -11 10 3 -7 -29 12 -72 43 -43 31 -85 59 -93 62 -8 3 -21 12 -28 19 -8
7 -18 11 -23 8 -5 -4 -9 -1 -9 5 0 13 -61 51 -72 44 -4 -3 -8 0 -8 6 0 6 -13
16 -30 21 -16 6 -30 16 -30 22 0 6 -3 8 -6 4 -3 -3 -16 3 -27 14 -12 11 -27
17 -33 15 -7 -3 -15 2 -18 10 -3 8 -13 14 -21 14 -10 0 -13 5 -9 12 4 7 3 8
-5 4 -6 -4 -18 -2 -26 4 -8 7 -15 10 -15 6 0 -3 -9 2 -20 12 -12 9 -25 18 -30
18 -6 1 -15 2 -21 3 -5 0 -7 7 -3 14 4 6 4 9 0 5 -4 -3 -40 10 -79 29 -40 20
-78 36 -84 36 -7 0 -13 4 -13 9 0 4 -9 8 -21 8 -11 0 -17 5 -14 10 3 6 -1 10
-9 10 -27 0 -31 1 -47 16 -9 8 -20 14 -25 13 -15 -4 -94 35 -94 46 0 5 -5 3
-10 -5 -6 -10 -10 -11 -10 -2 0 6 -9 12 -20 12 -11 0 -20 4 -20 9 0 8 -56 25
-72 22 -5 0 -8 4 -8 11 0 6 -3 9 -6 5 -4 -3 -20 1 -36 9 -16 8 -33 12 -38 9
-6 -3 -10 -1 -10 4 0 6 -9 11 -20 11 -11 0 -20 4 -20 9 0 6 -9 8 -20 6 -12 -2
-23 2 -26 9 -3 8 -14 12 -26 8 -14 -3 -19 -1 -14 6 5 8 2 10 -8 6 -8 -3 -25 1
-37 9 -12 9 -28 13 -36 10 -8 -3 -18 -1 -22 5 -3 5 -19 11 -36 13 -16 2 -35 7
-41 11 -6 4 -23 9 -38 10 -14 1 -26 5 -26 9 0 4 -11 7 -25 8 -48 3 -55 4 -55
13 0 5 -4 7 -9 3 -5 -3 -12 -1 -15 4 -4 5 -18 8 -31 5 -14 -2 -25 -1 -25 4 0
7 -24 12 -67 15 -7 0 -13 3 -13 7 0 4 -17 7 -37 8 -20 1 -39 5 -42 9 -3 5 -21
8 -40 8 -18 -1 -39 5 -47 13 -8 7 -14 9 -14 3 0 -7 -8 -7 -22 -2 -13 4 -29 6
-37 3 -8 -2 -11 0 -8 5 3 5 -10 8 -29 8 -19 -1 -34 2 -34 6 0 5 -12 4 -26 -1
-16 -7 -23 -7 -19 0 4 6 -12 10 -40 10 -25 0 -44 4 -41 8 3 5 -1 9 -9 9 -8 0
-15 -4 -15 -9 0 -5 -6 -6 -12 -1 -7 4 -24 8 -38 9 -14 2 -50 5 -80 8 -53 6
-161 14 -227 18 -20 1 -30 5 -26 12 4 6 0 5 -9 -2 -17 -14 -39 -13 -50 3 -5 6
-8 6 -8 -2 0 -11 -36 -10 -48 1 -2 3 -13 1 -23 -4 -10 -6 -20 -6 -23 -2 -6 9
-59 7 -75 -3 -6 -3 -11 -3 -11 2 0 9 -117 9 -127 -1 -3 -3 -12 -1 -19 5 -8 7
-14 7 -18 0 -5 -7 -15 -7 -31 -1 -14 5 -25 6 -25 2 0 -10 -41 -9 -57 1 -7 4
-16 0 -22 -10z m-21 -193 c0 11 3 11 8 3 9 -14 44 -12 54 2 5 6 8 5 8 -4 0
-11 3 -11 17 0 15 12 16 12 8 -1 -7 -12 -6 -13 6 -4 17 13 49 14 49 2 0 -5 6
-6 13 -1 19 12 301 11 309 -2 5 -6 8 -5 8 4 0 11 3 11 15 1 12 -10 15 -10 15
0 0 10 3 10 15 0 12 -10 15 -10 15 1 0 11 2 11 10 -1 9 -13 10 -13 10 0 0 11
2 12 8 3 4 -7 16 -10 27 -9 11 2 24 1 30 -2 5 -3 27 -5 48 -3 21 1 45 -3 54
-11 13 -10 15 -10 9 0 -5 9 1 12 23 10 17 -1 31 -5 31 -8 0 -3 12 -6 28 -6
102 -2 123 -4 116 -16 -6 -10 -4 -10 8 0 11 9 18 10 23 2 3 -6 10 -8 14 -6 4
3 24 1 44 -4 26 -5 37 -4 37 4 0 7 3 7 8 -1 7 -12 55 -21 125 -26 15 -1 27 -5
27 -8 0 -6 4 -7 58 -10 17 -1 32 -5 32 -9 0 -3 10 -7 23 -7 45 -3 67 -7 67
-15 0 -4 9 -5 20 -3 11 2 22 0 25 -6 9 -14 27 -11 19 4 -6 10 -4 10 7 0 7 -7
21 -13 32 -13 10 0 16 -4 13 -8 -3 -4 9 -7 25 -6 16 1 35 -3 42 -9 6 -7 21
-13 32 -14 33 -3 54 -9 61 -15 3 -4 12 -4 19 -2 7 3 16 1 20 -5 3 -6 17 -11
30 -11 13 0 27 -5 30 -10 4 -6 10 -8 15 -5 5 3 18 1 30 -5 11 -5 29 -15 40
-20 12 -6 25 -8 30 -5 5 3 11 1 15 -5 3 -5 15 -10 26 -10 10 0 19 -4 19 -9 0
-5 8 -8 17 -7 10 2 24 -3 31 -11 8 -7 18 -11 23 -8 5 3 19 0 31 -7 13 -7 25
-13 28 -13 3 -1 18 -7 33 -13 16 -7 32 -12 37 -12 5 0 25 -9 45 -20 20 -11 42
-20 50 -20 8 0 15 -5 15 -10 0 -6 3 -9 8 -9 4 1 10 0 15 -1 4 -1 10 -3 15 -4
4 -1 30 -13 57 -26 28 -13 52 -24 55 -25 3 -1 29 -13 58 -28 29 -15 58 -25 64
-21 6 4 8 3 5 -3 -4 -6 18 -21 48 -35 30 -14 52 -29 47 -33 -4 -5 1 -5 10 -2
9 3 22 -1 28 -9 7 -8 19 -14 26 -14 8 0 14 -5 14 -11 0 -5 5 -7 10 -4 6 3 13
-1 16 -9 3 -9 10 -14 14 -11 5 3 11 1 15 -5 3 -5 16 -10 28 -10 17 0 19 -2 8
-9 -10 -7 -5 -11 18 -16 17 -3 31 -11 31 -16 0 -5 7 -9 15 -9 8 0 15 -4 15 -8
0 -4 12 -13 28 -20 50 -23 72 -37 72 -44 0 -5 4 -8 9 -8 14 0 91 -52 91 -61 0
-5 7 -6 15 -3 9 4 15 0 15 -9 0 -8 8 -17 18 -21 18 -6 48 -24 68 -41 39 -33
55 -45 60 -45 2 0 17 -11 31 -24 15 -14 30 -23 33 -21 4 3 19 -8 33 -23 30
-31 48 -46 62 -52 6 -2 20 -13 32 -25 11 -11 32 -29 46 -40 14 -11 22 -24 19
-29 -3 -5 -1 -6 5 -3 5 3 26 -9 46 -28 19 -18 38 -31 41 -28 3 4 6 -1 6 -10 0
-10 4 -17 9 -17 4 0 39 -29 77 -65 38 -36 73 -65 77 -65 5 0 6 -4 3 -8 -2 -4
9 -17 25 -27 16 -11 29 -26 29 -34 0 -8 3 -12 6 -8 7 7 34 -15 28 -24 -2 -3 8
-12 21 -19 14 -7 25 -17 25 -21 0 -4 16 -22 35 -40 18 -18 31 -37 28 -42 -3
-6 -2 -8 3 -5 5 3 21 -8 36 -23 15 -16 25 -29 22 -29 -2 0 11 -17 31 -37 73
-78 82 -88 89 -106 3 -10 10 -16 15 -12 5 3 12 -3 16 -14 3 -11 24 -39 45 -63
22 -24 40 -46 40 -50 0 -4 13 -21 30 -39 16 -18 27 -36 24 -41 -3 -4 2 -8 10
-8 9 0 16 -7 16 -15 0 -8 5 -15 10 -15 6 0 10 -7 10 -15 0 -8 5 -15 10 -15 6
0 10 -7 10 -15 0 -8 4 -15 8 -15 4 0 16 -15 27 -32 10 -18 24 -37 32 -41 7 -4
13 -15 13 -24 0 -9 7 -21 14 -27 8 -6 16 -18 18 -25 2 -8 12 -24 24 -35 12
-12 24 -31 28 -43 4 -13 12 -23 18 -23 6 0 9 -3 5 -6 -3 -4 5 -21 18 -39 14
-17 22 -35 18 -38 -3 -4 -1 -7 5 -7 7 0 12 -7 12 -15 0 -8 5 -15 11 -15 5 0 7
-4 4 -10 -3 -5 -2 -10 4 -10 6 0 13 -11 17 -25 3 -14 10 -25 14 -25 4 0 13
-15 20 -32 8 -18 19 -40 27 -49 7 -9 15 -26 18 -38 2 -12 11 -28 19 -36 8 -8
18 -25 22 -37 3 -11 19 -43 35 -70 16 -27 24 -46 17 -42 -7 4 -5 -2 5 -13 10
-12 20 -30 22 -40 2 -10 4 -19 4 -20 1 -2 2 -6 3 -10 0 -5 8 -13 17 -20 9 -7
12 -13 7 -13 -5 0 -3 -7 4 -15 6 -8 8 -20 4 -27 -4 -7 -4 -10 1 -6 10 9 47
-70 39 -83 -3 -5 -1 -9 4 -9 9 0 26 -48 22 -59 -1 -2 5 -8 14 -13 9 -5 14 -13
11 -18 -3 -5 -1 -17 5 -27 15 -27 33 -77 31 -87 -1 -4 4 -15 11 -23 6 -8 13
-22 14 -31 1 -10 15 -56 32 -104 17 -47 28 -89 24 -92 -3 -3 0 -6 6 -6 7 0 11
-3 11 -7 -1 -5 0 -10 1 -13 4 -12 12 -47 17 -77 3 -18 9 -33 13 -33 5 0 7 -8
6 -17 -2 -10 1 -25 5 -33 11 -20 23 -71 22 -92 0 -10 3 -18 6 -18 4 0 8 -12 9
-27 1 -15 5 -29 10 -32 4 -3 8 -17 9 -31 1 -27 11 -85 13 -85 1 0 4 -13 6 -29
3 -16 10 -38 16 -49 8 -15 7 -18 -3 -12 -8 6 -10 4 -5 -4 5 -7 10 -27 13 -44
3 -18 10 -35 16 -39 9 -6 9 -8 0 -8 -9 0 -10 -7 -2 -27 5 -14 8 -32 5 -40 -3
-7 -2 -13 2 -13 4 0 8 -15 9 -32 3 -64 15 -133 24 -142 5 -6 4 -15 -2 -23 -7
-7 -7 -13 -2 -13 5 0 9 -12 9 -27 0 -16 4 -68 8 -118 4 -49 9 -109 10 -131 2
-23 7 -47 11 -54 5 -8 4 -11 -2 -7 -7 5 -10 -61 -2 -83 7 -23 2 -396 -6 -402
-6 -5 -5 -8 3 -8 7 0 11 -4 7 -9 -3 -6 -7 -45 -10 -88 -2 -43 -7 -109 -10
-148 -4 -38 -8 -87 -10 -108 -1 -21 -5 -40 -9 -44 -3 -3 0 -13 7 -21 6 -9 7
-13 1 -9 -7 4 -11 -6 -12 -26 -1 -18 -5 -52 -10 -77 -5 -25 -8 -56 -7 -68 1
-12 -2 -22 -6 -22 -4 0 -6 -8 -5 -17 2 -10 0 -30 -5 -45 -5 -18 -3 -29 4 -32
7 -2 4 -5 -5 -5 -12 -1 -15 -6 -11 -17 3 -9 0 -20 -8 -25 -11 -6 -11 -9 -1 -9
10 0 10 -5 2 -20 -6 -11 -8 -20 -5 -20 4 0 3 -5 -1 -12 -7 -11 -16 -60 -17
-100 -1 -10 -4 -18 -8 -18 -4 0 -10 -24 -14 -52 -4 -29 -10 -57 -13 -63 -4 -5
-7 -14 -8 -20 -8 -44 -14 -67 -27 -112 -9 -28 -13 -54 -10 -57 3 -3 -1 -8 -9
-11 -8 -3 -14 -16 -13 -28 1 -12 -4 -34 -12 -49 -7 -16 -11 -28 -7 -28 4 0 1
-7 -6 -15 -7 -8 -9 -15 -5 -15 4 0 2 -7 -5 -15 -7 -8 -10 -15 -6 -15 3 0 0
-16 -8 -35 -8 -19 -12 -35 -9 -35 3 0 0 -6 -6 -14 -7 -8 -14 -27 -17 -42 -3
-16 -10 -32 -16 -35 -6 -4 -7 -12 -4 -18 4 -6 2 -11 -3 -11 -6 0 -10 -3 -9 -7
0 -5 -1 -15 -4 -23 -9 -24 -19 -55 -20 -60 0 -3 -9 -22 -20 -44 -11 -21 -21
-48 -24 -59 -2 -11 -9 -24 -15 -27 -6 -4 -10 -10 -10 -14 3 -17 -12 -56 -22
-56 -6 0 -8 -3 -4 -6 3 -4 -1 -21 -10 -38 -10 -17 -16 -34 -15 -38 1 -5 -3 -8
-10 -8 -6 0 -9 -3 -5 -6 6 -7 -92 -207 -105 -212 -4 -2 -6 -7 -3 -12 3 -5 -1
-15 -9 -23 -8 -8 -18 -26 -22 -41 -3 -14 -10 -26 -16 -26 -5 0 -6 -4 -3 -10 3
-5 1 -10 -4 -10 -6 0 -11 -5 -11 -11 0 -6 -9 -24 -21 -40 -11 -16 -18 -29 -14
-29 5 0 -4 -13 -33 -45 -7 -8 -11 -15 -8 -15 4 0 -18 -38 -48 -84 -30 -46 -52
-87 -49 -90 4 -3 1 -6 -4 -6 -6 0 -26 -24 -43 -52 -18 -29 -35 -55 -39 -58 -3
-3 -12 -17 -20 -32 -8 -15 -18 -25 -23 -22 -4 3 -8 -1 -8 -9 0 -8 -7 -20 -15
-27 -9 -7 -13 -15 -11 -17 3 -3 -6 -15 -18 -27 -13 -11 -26 -31 -30 -44 -4
-12 -11 -20 -16 -17 -5 3 -11 -4 -15 -15 -3 -11 -11 -20 -16 -20 -5 0 -9 -4
-9 -10 0 -10 -31 -49 -64 -81 -11 -11 -17 -19 -13 -19 3 0 -11 -18 -33 -40
-22 -22 -36 -40 -32 -40 4 0 2 -4 -3 -8 -6 -4 -23 -22 -38 -40 -15 -19 -27
-30 -27 -26 0 4 -15 -14 -33 -39 -19 -26 -35 -45 -38 -43 -2 2 -15 -11 -29
-30 -14 -18 -31 -34 -39 -34 -8 0 -12 -3 -9 -6 7 -7 -114 -130 -124 -126 -5 1
-8 -5 -8 -14 0 -8 -4 -12 -10 -9 -5 3 -10 -1 -10 -9 0 -9 -7 -16 -15 -16 -8 0
-15 -7 -15 -15 0 -8 -5 -15 -10 -15 -6 0 -30 -19 -54 -42 -60 -59 -83 -77 -90
-71 -3 4 -6 -1 -6 -10 0 -10 -7 -17 -16 -17 -8 0 -12 -4 -9 -10 6 -9 -8 -14
-28 -11 -5 1 -6 -3 -2 -9 3 -5 -2 -13 -12 -17 -10 -4 -24 -15 -31 -25 -7 -10
-17 -16 -21 -14 -4 3 -14 -5 -21 -19 -8 -15 -18 -21 -28 -18 -10 4 -13 2 -8
-5 4 -7 1 -12 -7 -12 -8 0 -18 -7 -21 -16 -3 -8 -10 -13 -15 -10 -5 3 -12 -1
-15 -10 -4 -9 -9 -14 -12 -11 -3 3 -24 -12 -46 -34 -22 -21 -44 -36 -49 -33
-4 2 -13 -5 -19 -16 -6 -11 -15 -18 -20 -15 -5 3 -16 -5 -24 -17 -9 -12 -16
-18 -16 -13 0 4 -12 -2 -27 -16 -14 -13 -22 -17 -18 -9 5 8 -4 3 -20 -13 -15
-15 -33 -27 -39 -27 -6 0 -23 -11 -38 -25 -15 -14 -31 -25 -36 -25 -5 0 -15
-7 -22 -15 -7 -8 -15 -13 -19 -10 -4 2 -18 -6 -32 -18 -14 -12 -31 -23 -39
-25 -8 -2 -17 -8 -18 -13 -2 -5 -8 -7 -13 -3 -5 3 -9 1 -9 -4 0 -6 -11 -13
-25 -16 -14 -4 -25 -11 -25 -16 0 -6 -7 -10 -15 -10 -8 0 -15 -5 -15 -11 0 -5
-4 -8 -9 -4 -5 3 -17 -2 -25 -11 -9 -8 -16 -13 -16 -9 0 3 -13 -3 -30 -15 -16
-12 -30 -18 -30 -14 0 4 -8 0 -17 -8 -10 -8 -40 -25 -68 -38 -27 -13 -53 -28
-57 -34 -4 -6 -8 -7 -8 -3 0 4 -10 2 -22 -5 -13 -7 -29 -11 -37 -9 -7 1 -10
-2 -6 -8 5 -10 1 -12 -20 -11 -3 0 -26 -11 -51 -25 -25 -14 -50 -23 -55 -20
-5 4 -9 1 -9 -5 0 -6 -4 -8 -10 -5 -5 3 -10 1 -10 -5 0 -6 -4 -8 -10 -5 -5 3
-10 1 -10 -5 0 -6 -4 -8 -10 -5 -5 3 -10 1 -10 -4 0 -6 -3 -10 -7 -9 -9 2 -60
-18 -87 -33 -14 -8 -17 -8 -11 3 4 8 1 7 -7 -2 -7 -8 -17 -15 -23 -15 -33 -2
-95 -30 -95 -44 0 -13 -2 -13 -9 -3 -12 19 -14 19 -44 -1 -15 -9 -27 -15 -27
-11 0 4 -7 1 -15 -6 -8 -6 -19 -9 -25 -5 -5 3 -10 1 -10 -5 0 -6 -4 -8 -10 -5
-5 3 -10 2 -10 -2 0 -5 -12 -10 -26 -11 -15 -1 -33 -7 -39 -12 -7 -6 -17 -10
-21 -9 -5 2 -29 -4 -54 -11 -25 -8 -52 -15 -60 -16 -8 -1 -28 -7 -45 -14 -16
-6 -32 -11 -35 -11 -3 0 -22 -4 -43 -10 -20 -5 -43 -7 -49 -3 -7 5 -8 3 -3 -6
6 -10 1 -12 -19 -8 -14 3 -26 1 -26 -3 0 -5 -3 -8 -7 -8 -5 1 -10 1 -13 -1 -3
-1 -15 -3 -27 -6 -13 -2 -33 -6 -45 -8 -13 -3 -33 -5 -46 -5 -13 -1 -21 -4
-19 -8 3 -5 -14 -9 -36 -10 -72 -4 -121 -13 -129 -26 -6 -9 -8 -9 -8 1 0 6 -5
12 -11 12 -5 0 -7 -6 -3 -12 6 -10 4 -10 -8 0 -10 8 -19 9 -22 3 -3 -5 -17 -8
-31 -6 -14 1 -25 -2 -25 -7 0 -5 -9 -6 -20 -3 -13 4 -20 2 -20 -7 0 -10 -2
-10 -9 1 -5 7 -11 9 -14 4 -3 -5 -27 -9 -52 -8 -25 0 -45 -2 -45 -7 0 -4 -12
-3 -26 2 -18 7 -23 7 -18 -1 4 -7 -10 -10 -44 -8 -33 2 -57 -2 -68 -12 -11 -9
-15 -9 -10 -1 4 7 1 12 -9 12 -10 0 -13 -5 -9 -12 6 -10 5 -10 -7 -1 -17 13
-69 12 -69 -2 0 -5 -5 -3 -10 5 -5 8 -10 10 -10 3 0 -13 -18 -12 -39 1 -8 6
-12 5 -8 0 6 -11 -372 -10 -518 1 -55 4 -113 7 -128 6 -16 -1 -26 2 -24 6 3 5
-20 9 -51 9 -32 1 -82 5 -112 10 -30 4 -65 7 -77 7 -13 -1 -23 3 -23 7 0 4
-14 7 -31 6 -16 -1 -32 1 -34 4 -2 4 -14 6 -27 5 -13 -1 -29 2 -35 8 -7 5 -13
6 -13 3 0 -4 -9 -2 -20 4 -15 8 -20 8 -20 -2 0 -10 -2 -10 -9 0 -4 8 -11 13
-15 12 -3 -1 -25 2 -49 6 -23 4 -50 9 -59 10 -10 1 -23 2 -29 3 -5 0 -8 4 -5
9 2 4 -8 7 -22 8 -42 1 -112 16 -108 23 2 3 -10 7 -27 9 -57 4 -67 6 -67 14 0
4 -6 5 -14 2 -8 -3 -17 0 -21 5 -3 6 -11 9 -16 5 -5 -3 -16 0 -24 6 -8 7 -15
9 -15 5 0 -4 -6 -2 -13 4 -8 6 -17 8 -20 4 -4 -3 -7 -1 -7 6 0 7 -3 10 -8 7
-4 -2 -30 4 -57 13 -47 17 -56 20 -80 26 -5 2 -19 6 -30 11 -11 4 -23 6 -27 6
-5 -1 -8 3 -8 9 0 5 -4 8 -8 5 -5 -3 -21 1 -36 9 -14 8 -24 10 -21 5 3 -6 -1
-7 -9 -4 -9 3 -16 10 -16 15 0 5 -8 9 -18 9 -11 0 -34 8 -53 17 -19 10 -38 18
-44 20 -38 10 -85 29 -85 35 0 5 -5 8 -10 8 -6 0 -27 7 -48 17 -20 9 -39 17
-42 17 -3 1 -15 7 -26 14 -12 6 -24 8 -28 5 -3 -3 -6 -1 -6 6 0 8 -6 11 -16 7
-8 -3 -12 -2 -9 4 3 6 -3 10 -14 10 -12 0 -21 3 -21 8 0 4 -9 13 -21 20 -12 8
-18 9 -14 3 10 -17 1 -13 -25 9 -12 11 -27 17 -31 14 -5 -3 -9 0 -9 6 0 6 -4
8 -10 5 -5 -3 -10 -2 -10 2 0 5 -16 15 -35 22 -19 7 -35 17 -35 22 0 5 -3 8
-7 7 -5 -1 -22 5 -39 15 -17 9 -35 13 -39 9 -3 -4 -5 0 -3 8 2 8 -3 14 -9 12
-7 -1 -13 2 -13 7 0 8 -37 24 -52 22 -5 -1 -8 6 -8 14 0 8 -3 15 -7 14 -16 -2
-53 14 -53 23 0 5 -4 7 -9 4 -5 -3 -12 1 -15 10 -4 9 -9 14 -12 11 -4 -3 -15
3 -27 13 -11 11 -24 17 -28 14 -4 -2 -14 4 -21 13 -7 10 -20 19 -28 21 -8 2
-16 8 -18 13 -2 5 -20 16 -39 26 -20 9 -46 26 -58 37 -39 35 -55 47 -55 40 0
-4 -8 2 -18 12 -9 10 -31 27 -47 36 -17 10 -29 22 -27 28 1 7 -1 9 -6 6 -5 -3
-18 4 -30 14 -12 11 -26 20 -32 20 -5 0 -10 4 -10 9 0 6 -19 21 -42 35 -24 14
-39 26 -33 26 5 0 -7 11 -28 25 -20 14 -37 30 -37 35 0 6 -5 10 -11 10 -7 0
-25 13 -40 30 -16 16 -29 27 -29 24 0 -3 -16 11 -35 32 -19 20 -35 34 -35 31
0 -3 -11 5 -25 19 -14 14 -25 29 -25 35 0 6 -4 7 -10 4 -5 -3 -10 1 -10 9 0 9
-4 15 -9 14 -10 -4 -211 199 -211 213 0 6 -3 8 -7 6 -5 -3 -17 7 -28 20 -11
14 -32 38 -47 54 -16 16 -28 34 -28 39 0 6 -8 10 -17 10 -9 0 -14 3 -11 6 3 3
-6 18 -20 34 -51 54 -82 90 -82 95 0 6 -28 40 -57 71 -13 13 -23 27 -23 32 0
6 -7 13 -16 16 -9 4 -14 9 -11 13 4 3 -1 13 -11 22 -9 9 -28 33 -42 53 -14 21
-28 38 -32 38 -5 0 -8 7 -8 15 0 7 -8 19 -17 24 -10 6 -14 11 -10 11 4 0 -1
10 -13 22 -11 12 -20 27 -20 34 0 6 -7 15 -16 18 -8 3 -12 10 -9 16 3 5 1 10
-4 10 -6 0 -11 5 -11 10 0 6 -9 20 -20 32 -11 12 -20 28 -20 35 0 7 -4 13 -9
13 -5 0 -14 14 -21 30 -7 17 -17 30 -23 30 -6 0 -8 3 -5 6 5 4 -39 80 -69 119
-4 6 -9 17 -11 25 -2 7 -11 25 -21 39 -10 14 -24 41 -32 59 -8 17 -17 32 -20
32 -7 0 -22 40 -20 53 1 4 -4 7 -10 7 -5 0 -7 5 -4 10 3 6 2 10 -3 10 -8 0
-20 28 -20 47 0 3 -5 9 -10 12 -10 6 -54 97 -58 119 -1 8 -9 21 -18 30 -8 10
-14 19 -14 22 2 12 -14 50 -21 50 -7 0 -9 7 -13 49 -1 11 -6 17 -10 15 -4 -3
-9 2 -9 10 -2 26 -20 69 -56 139 -8 15 -11 27 -7 27 3 0 1 7 -6 15 -7 8 -9 15
-5 15 4 0 2 6 -4 13 -6 8 -8 17 -4 20 3 4 1 7 -6 7 -7 0 -10 4 -6 9 3 5 0 13
-6 16 -5 4 -8 13 -5 21 3 8 1 14 -4 14 -6 0 -10 11 -10 25 0 14 -5 25 -11 25
-6 0 -9 7 -6 15 4 8 2 17 -4 20 -5 4 -7 10 -4 15 3 5 1 11 -5 15 -5 3 -10 17
-10 31 0 13 -5 24 -11 24 -6 0 -9 6 -6 14 3 7 -1 25 -8 40 -8 14 -12 26 -9 26
2 0 -2 16 -11 35 -8 20 -9 33 -4 29 6 -3 3 5 -6 20 -10 14 -15 26 -11 26 3 0
1 11 -4 25 -5 14 -12 36 -14 48 -3 12 -9 36 -14 52 -5 17 -8 38 -6 48 1 9 -2
17 -8 17 -6 0 -8 15 -6 34 2 19 0 32 -4 30 -4 -3 -8 -2 -9 3 0 4 -2 17 -4 28
-3 11 -5 35 -7 53 -1 17 -6 32 -11 32 -5 0 -7 9 -4 20 3 11 2 22 -3 25 -4 2
-6 16 -5 30 2 14 0 25 -4 25 -4 0 -7 15 -6 33 1 17 -1 37 -4 42 -9 16 -19 82
-24 155 -1 19 -6 41 -10 48 -5 7 -3 12 5 12 8 0 9 3 3 8 -11 7 -17 52 -19 134
-1 27 -4 48 -7 48 -3 0 -5 36 -5 81 1 44 -2 83 -5 84 -6 4 -2 575 5 645 3 25
7 79 11 120 7 80 11 115 15 115 1 0 3 23 5 50 2 28 6 66 9 85 3 19 8 55 11 80
3 25 8 52 12 60 3 8 7 31 8 50 2 19 3 36 4 38 0 1 0 4 -1 5 -2 2 4 12 12 22
11 14 11 17 2 11 -11 -7 -12 -4 -3 13 7 11 10 21 7 21 -3 0 0 15 5 33 5 17 12
45 15 61 2 16 10 38 15 49 7 12 7 17 1 13 -6 -3 -2 15 7 42 10 26 17 56 15 65
-1 9 1 17 5 17 4 0 8 6 9 13 1 21 12 71 19 87 7 17 10 27 17 55 2 11 9 33 15
48 6 15 10 31 9 35 -1 4 4 21 11 37 7 17 13 38 14 48 1 9 5 17 10 17 5 0 7 6
4 14 -3 8 0 20 8 26 7 6 12 20 10 31 -2 10 -1 19 3 19 6 0 25 47 36 90 2 8 13
36 25 63 11 26 17 47 13 47 -4 0 2 7 12 15 11 8 16 15 12 15 -5 0 -2 8 5 17
12 15 12 16 -1 8 -11 -6 -11 -4 2 11 9 10 16 21 16 24 -2 13 14 50 23 50 5 0
8 3 7 8 -2 4 6 27 16 52 11 25 19 48 18 53 -1 4 3 7 8 7 5 0 9 3 8 8 -2 10 45
105 57 114 6 4 6 8 1 8 -5 0 -2 8 7 18 15 17 17 21 17 43 0 5 4 8 8 5 5 -3 9
0 9 7 0 19 34 87 44 87 5 0 8 3 7 8 -3 12 35 82 44 82 5 0 7 4 4 9 -3 4 3 19
14 31 11 12 17 26 15 30 -3 4 2 10 10 14 8 3 15 12 15 21 0 8 5 15 11 15 6 0
9 6 6 14 -3 8 0 16 6 19 7 3 19 17 27 33 8 16 23 38 32 48 10 10 15 23 12 28
-3 4 0 8 6 8 6 0 15 11 20 25 5 14 14 25 20 25 6 0 9 4 6 9 -3 4 3 16 14 26
11 10 20 22 20 26 0 8 34 57 83 119 7 9 25 33 42 55 16 22 35 46 42 53 7 8 10
18 7 24 -4 6 -2 8 4 4 6 -3 13 3 17 14 4 11 11 18 16 15 5 -4 9 -1 9 5 0 6 6
17 13 25 6 7 26 30 42 51 17 20 42 50 58 66 15 16 27 31 27 33 0 2 16 20 35
39 19 20 35 40 35 46 0 6 5 8 10 5 6 -3 10 -2 10 2 0 5 11 20 24 35 14 14 22
29 18 32 -3 4 2 4 11 0 10 -3 17 -2 15 3 -3 11 199 213 214 213 5 0 6 5 3 10
-3 6 -2 10 4 10 5 0 30 21 55 46 25 25 46 43 46 40 0 -3 15 8 32 25 18 16 36
29 41 29 4 0 5 5 2 10 -3 6 0 10 9 10 8 0 16 3 18 8 3 8 50 47 92 77 16 11 37
29 47 39 11 11 19 17 19 13 0 -4 14 6 32 23 17 17 33 28 36 25 3 -3 11 4 19
15 8 11 20 20 27 20 7 0 22 11 34 25 12 14 29 25 37 25 8 0 15 4 15 8 0 5 15
17 34 27 19 11 32 23 29 28 -4 6 -1 7 7 2 7 -4 15 -3 19 2 15 21 72 54 83 47
7 -4 10 -4 6 1 -8 9 31 42 45 37 4 -1 7 3 7 8 0 6 18 17 40 26 22 9 40 21 40
27 0 6 3 7 7 4 3 -4 12 1 20 11 10 11 12 12 8 2 -5 -12 -4 -12 7 1 11 13 47
32 56 29 1 0 10 6 18 15 9 8 21 15 29 15 7 0 16 7 19 16 4 9 13 14 21 10 8 -3
15 -1 15 5 0 6 5 7 10 4 6 -3 10 -2 10 2 0 8 66 41 84 41 5 0 12 4 15 9 11 15
88 53 95 46 3 -4 13 2 21 13 8 10 15 15 15 10 0 -5 7 -3 15 4 8 7 15 9 15 6 0
-4 7 0 16 8 8 9 20 14 25 11 5 -4 9 -2 9 2 0 11 60 34 71 27 5 -3 9 0 9 5 0 6
9 11 20 11 11 0 20 3 20 8 0 7 63 32 88 34 6 1 12 5 12 10 0 4 3 7 8 6 4 0 14
1 22 5 37 14 96 31 103 29 4 -1 7 3 7 8 0 5 3 9 8 9 4 -1 9 0 12 1 10 3 45 11
58 12 6 1 12 5 12 10 0 5 5 6 10 3 6 -3 10 -1 10 5 0 6 4 8 10 5 5 -3 22 0 37
8 15 8 34 12 42 9 7 -2 16 0 20 6 5 9 41 19 95 26 11 1 22 8 24 14 2 7 7 10
12 7 4 -3 42 4 85 15 43 11 82 17 88 13 6 -3 7 -1 3 5 -4 6 1 11 11 11 52 2
73 6 73 13 0 4 6 5 13 2 7 -2 33 2 57 9 25 8 55 13 68 12 12 -1 22 1 22 4 0 3
17 7 38 9 38 3 77 9 77 12 0 1 20 3 45 5 25 2 45 4 45 5 0 3 20 6 95 13 30 3
64 9 74 13 14 5 17 4 11 -5 -6 -10 -3 -11 11 -3 11 5 46 10 79 11 33 1 62 7
64 13 2 6 7 5 12 -3 7 -12 9 -11 9 1z"/>
<path d="M12925 15850 c-3 -5 -13 -6 -22 -3 -12 5 -14 3 -8 -8 7 -11 6 -12 -6
-2 -20 16 -417 15 -438 -1 -11 -8 -13 -8 -7 2 8 14 -3 16 -23 3 -9 -6 -22 -6
-31 -1 -11 6 -21 5 -27 -1 -8 -8 -13 -7 -17 0 -5 7 -13 8 -24 2 -10 -5 -34 -8
-55 -7 -20 1 -37 -3 -37 -8 0 -4 -8 -2 -17 5 -14 12 -16 12 -8 0 6 -11 3 -13
-13 -9 -12 4 -24 3 -26 0 -2 -4 -25 -7 -50 -6 -25 0 -46 -2 -46 -5 0 -3 -17
-7 -38 -7 -20 -1 -57 -5 -82 -8 -25 -4 -52 -8 -60 -8 -8 -1 -18 -6 -22 -12 -6
-8 -11 -6 -18 4 -5 8 -10 10 -10 5 0 -6 -15 -12 -32 -14 -45 -4 -61 -7 -78
-14 -8 -4 -28 -8 -45 -11 -16 -2 -30 -5 -30 -6 0 -3 -38 -11 -70 -15 -16 -2
-32 -5 -35 -6 -3 -1 -8 -1 -12 0 -5 0 -8 -4 -8 -10 0 -5 -5 -7 -10 -4 -6 4
-17 1 -25 -5 -8 -7 -15 -9 -15 -5 0 4 -7 2 -15 -5 -8 -7 -15 -9 -15 -4 0 5 -5
2 -10 -6 -7 -11 -10 -11 -10 -2 0 8 -5 10 -12 5 -23 -14 -82 -32 -90 -27 -4 3
-11 -1 -14 -9 -3 -8 -16 -13 -30 -11 -13 1 -24 -2 -24 -7 0 -6 -4 -8 -9 -4 -5
3 -12 1 -16 -5 -4 -6 -11 -8 -16 -4 -5 3 -16 0 -24 -6 -8 -6 -20 -8 -26 -4 -8
4 -9 3 -5 -4 5 -8 -2 -12 -18 -12 -14 0 -26 -4 -26 -10 0 -5 -7 -7 -15 -4 -8
4 -15 1 -15 -7 0 -7 -3 -9 -6 -6 -4 3 -16 1 -28 -5 -11 -7 -26 -13 -31 -14 -6
-1 -33 -12 -60 -24 -28 -13 -55 -23 -62 -23 -7 0 -14 -6 -17 -13 -3 -8 -12
-11 -21 -8 -8 3 -15 2 -15 -3 0 -6 -18 -16 -40 -23 -22 -7 -40 -17 -40 -23 0
-5 -6 -7 -14 -4 -8 3 -17 -1 -20 -10 -4 -9 -9 -13 -13 -10 -3 4 -19 -3 -34
-14 -16 -11 -29 -17 -29 -14 0 4 -7 -1 -16 -9 -8 -9 -22 -16 -30 -16 -8 0 -14
-5 -14 -11 0 -5 -4 -7 -10 -4 -5 3 -10 1 -10 -5 0 -6 -4 -8 -10 -5 -5 3 -10 1
-10 -5 0 -6 -4 -8 -10 -5 -5 3 -10 2 -10 -4 0 -6 -15 -17 -34 -26 -18 -9 -42
-25 -54 -35 -11 -10 -23 -16 -26 -13 -3 4 -6 2 -6 -4 0 -11 -50 -38 -63 -34
-5 1 -6 -3 -2 -9 3 -5 2 -10 -2 -10 -5 0 -21 -11 -36 -25 -15 -14 -27 -24 -27
-21 0 3 -11 -5 -23 -17 -13 -12 -39 -33 -57 -47 -37 -27 -96 -79 -142 -122
-16 -16 -33 -28 -39 -28 -6 0 -8 -4 -5 -8 3 -5 -13 -25 -35 -45 -22 -20 -38
-37 -35 -37 2 0 -20 -26 -50 -57 -29 -31 -51 -59 -49 -62 3 -2 -4 -10 -15 -18
-11 -8 -20 -18 -20 -23 0 -9 -19 -36 -47 -65 -7 -7 -9 -15 -6 -19 4 -3 1 -6
-5 -6 -7 0 -12 -7 -12 -15 0 -8 -4 -15 -8 -15 -10 0 -37 -50 -34 -62 1 -5 -3
-8 -9 -8 -5 0 -8 -4 -5 -9 3 -5 -1 -11 -9 -15 -8 -3 -15 -11 -15 -19 0 -19
-24 -67 -33 -67 -5 0 -6 -4 -2 -9 3 -5 1 -12 -5 -16 -6 -4 -8 -11 -5 -16 4 -5
1 -9 -5 -9 -6 0 -9 -4 -5 -9 3 -5 1 -12 -5 -16 -6 -4 -8 -10 -5 -15 3 -5 1
-11 -5 -15 -5 -3 -10 -15 -10 -26 0 -10 -5 -19 -12 -19 -6 0 -9 -3 -5 -6 3 -3
-1 -23 -8 -45 -8 -22 -14 -41 -15 -44 0 -3 0 -6 -1 -7 -6 -21 -11 -48 -11 -70
-1 -16 -4 -28 -7 -28 -3 0 -7 -26 -9 -58 -1 -31 -3 -81 -5 -110 -2 -29 0 -55
5 -58 4 -3 3 -16 -2 -29 -6 -16 -6 -27 1 -31 6 -3 8 -12 5 -20 -3 -7 -2 -16 3
-18 4 -3 7 -21 6 -40 0 -19 3 -32 7 -30 4 3 8 -8 8 -24 0 -16 3 -32 7 -36 4
-3 8 -16 10 -28 2 -12 8 -27 14 -35 6 -7 8 -13 4 -13 -4 0 -2 -7 5 -15 7 -8 9
-15 4 -15 -5 0 -4 -4 1 -8 6 -4 23 -33 39 -65 15 -32 37 -67 49 -78 11 -10 17
-19 12 -19 -4 0 2 -8 13 -19 12 -10 22 -22 22 -26 0 -9 62 -65 73 -65 4 0 7
-7 7 -15 0 -8 7 -15 15 -15 8 0 15 -4 15 -10 0 -5 7 -10 15 -10 8 0 15 -5 15
-11 0 -5 5 -7 10 -4 6 3 10 -1 10 -10 0 -9 4 -14 9 -10 5 3 16 -2 24 -10 9 -8
23 -15 31 -15 9 0 16 -5 16 -11 0 -5 4 -8 9 -4 5 3 15 0 23 -7 7 -7 22 -15 33
-16 11 -2 22 -7 25 -10 3 -4 14 -8 25 -10 27 -4 38 -7 50 -13 10 -6 52 -18 95
-26 13 -2 31 -10 39 -16 12 -10 13 -9 6 3 -8 13 -6 13 8 1 9 -7 24 -11 32 -7
8 3 15 0 15 -6 0 -7 6 -6 16 2 12 11 15 11 12 0 -2 -10 8 -14 35 -14 29 0 36
-3 32 -14 -4 -11 -2 -12 8 -4 10 8 52 10 52 2 0 -1 18 -3 40 -4 22 0 46 -5 53
-9 7 -5 12 -3 12 5 0 8 3 9 8 3 4 -5 27 -10 52 -10 25 0 55 -3 68 -7 15 -5 22
-3 22 5 0 8 3 8 8 2 4 -6 18 -11 32 -10 14 0 28 -4 32 -10 5 -6 8 -5 8 2 0 7
7 10 16 6 9 -3 82 -6 162 -7 81 -1 153 -5 160 -9 6 -5 12 -4 12 1 0 13 33 10
42 -3 5 -6 8 -5 8 4 0 11 3 11 15 1 12 -10 15 -10 15 0 0 9 3 10 13 1 10 -7
17 -7 24 0 8 8 13 8 17 0 5 -8 13 -8 28 0 15 8 19 8 14 0 -4 -6 0 -11 9 -11
10 0 13 5 9 13 -6 9 -4 9 7 1 8 -6 40 -11 72 -10 44 1 57 -2 57 -14 0 -13 1
-13 10 0 8 12 13 13 30 3 11 -7 26 -13 33 -13 8 0 14 -6 14 -12 0 -7 2 -17 3
-23 6 -23 -2 -35 -30 -50 -30 -15 -128 -41 -144 -37 -4 2 -14 -3 -22 -9 -8 -6
-14 -9 -14 -6 0 3 -17 1 -37 -4 -21 -6 -51 -12 -68 -15 -16 -3 -37 -9 -45 -14
-8 -4 -25 -6 -37 -5 -12 1 -20 -2 -18 -6 5 -7 -39 -18 -82 -21 -13 -1 -23 -6
-23 -11 0 -5 -7 -7 -15 -3 -8 3 -15 1 -15 -5 0 -7 -10 -9 -24 -5 -15 4 -28 0
-36 -9 -7 -8 -16 -12 -21 -9 -5 3 -9 2 -9 -3 0 -4 -10 -9 -23 -9 -28 -2 -51
-8 -57 -14 -8 -8 -75 -30 -93 -30 -9 0 -17 -4 -17 -8 0 -5 -7 -9 -15 -10 -8
-1 -22 -3 -30 -4 -8 -1 -15 -6 -15 -11 0 -5 -9 -7 -20 -4 -11 3 -18 0 -17 -7
1 -6 -8 -10 -20 -10 -13 1 -23 -3 -23 -7 0 -5 -3 -8 -7 -8 -19 3 -34 -2 -29
-9 2 -4 -3 -8 -12 -9 -36 -3 -56 -10 -60 -21 -2 -7 -8 -10 -12 -7 -5 3 -53
-15 -106 -40 -53 -25 -101 -47 -107 -48 -6 -1 -18 -8 -25 -14 -7 -7 -20 -13
-28 -13 -8 0 -14 -5 -14 -11 0 -5 -4 -8 -9 -4 -5 3 -17 -2 -25 -11 -9 -8 -16
-12 -16 -8 0 3 -7 1 -15 -6 -8 -7 -15 -9 -15 -4 0 5 -5 1 -11 -9 -6 -9 -14
-15 -20 -12 -5 4 -9 1 -9 -5 0 -6 -4 -8 -10 -5 -5 3 -10 1 -10 -5 0 -6 -4 -8
-10 -5 -5 3 -10 1 -10 -5 0 -7 -7 -10 -15 -6 -9 3 -15 0 -15 -9 0 -8 -6 -15
-14 -15 -7 0 -19 -7 -26 -15 -7 -8 -16 -12 -20 -10 -5 3 -20 -6 -34 -20 -14
-14 -27 -25 -28 -24 -8 5 -48 -14 -48 -22 0 -5 -4 -9 -10 -9 -11 0 -142 -90
-152 -105 -4 -5 -8 -6 -8 -1 0 6 -7 1 -15 -10 -8 -10 -15 -15 -15 -10 0 5 -11
-3 -25 -18 -13 -14 -29 -26 -35 -26 -5 0 -10 -4 -10 -9 0 -5 -9 -13 -20 -16
-11 -4 -18 -11 -15 -16 4 -5 1 -9 -5 -9 -6 0 -22 -12 -35 -26 -14 -15 -25 -24
-25 -21 0 4 -15 -8 -33 -26 -19 -18 -32 -35 -29 -40 2 -4 0 -6 -5 -5 -5 2 -24
-9 -42 -24 -18 -16 -30 -28 -27 -28 3 0 -24 -30 -59 -66 -36 -36 -65 -68 -65
-71 0 -3 -16 -23 -35 -44 -19 -22 -35 -45 -35 -52 0 -8 -4 -7 -10 3 -8 13 -10
12 -10 -3 0 -15 -33 -71 -51 -87 -3 -3 -8 -13 -12 -23 -4 -10 -11 -16 -16 -13
-5 3 -7 -4 -3 -16 3 -12 1 -19 -5 -15 -5 3 -22 -21 -39 -53 -16 -33 -33 -60
-37 -60 -5 0 -5 -4 -2 -10 3 -5 1 -10 -5 -10 -6 0 -8 -4 -5 -10 3 -5 1 -10 -4
-10 -6 0 -10 -3 -9 -7 4 -14 -26 -83 -35 -83 -4 0 -6 -4 -3 -8 3 -5 -2 -21 -9
-36 -8 -16 -12 -32 -9 -37 3 -5 1 -9 -5 -9 -5 0 -12 -18 -16 -40 -4 -22 -10
-40 -14 -40 -4 0 -7 -8 -8 -17 0 -10 -4 -36 -8 -58 -4 -22 -9 -49 -11 -60 -1
-11 -3 -20 -4 -20 -10 0 -22 -353 -13 -369 5 -8 13 -62 16 -103 0 -7 4 -13 9
-13 5 0 6 -4 3 -10 -3 -5 -2 -10 3 -10 5 0 10 -10 10 -22 0 -13 8 -41 18 -63
10 -22 18 -42 19 -45 8 -28 49 -97 74 -126 11 -13 21 -27 21 -30 0 -3 13 -18
30 -34 16 -15 28 -29 27 -31 -2 -2 14 -21 35 -41 21 -20 38 -35 38 -33 0 2 10
-6 23 -18 38 -36 67 -57 77 -57 6 0 10 -4 10 -10 0 -5 5 -10 11 -10 6 0 30
-13 53 -30 24 -16 46 -26 50 -23 3 4 6 1 6 -6 0 -7 5 -9 10 -6 6 3 10 1 10 -4
0 -6 9 -11 20 -11 11 0 20 -5 20 -10 0 -6 6 -10 13 -9 11 2 49 -11 90 -32 10
-6 22 -7 27 -4 6 4 10 1 10 -5 0 -7 6 -10 14 -7 8 3 17 3 21 -1 4 -4 11 -8 16
-8 5 -1 11 -3 14 -4 3 -1 14 -4 25 -5 11 -1 21 -3 23 -5 6 -4 45 -11 75 -11
17 -1 35 -5 38 -10 3 -5 13 -5 23 1 10 5 22 6 26 2 6 -7 27 -9 103 -11 23 -1
31 -5 27 -13 -4 -7 0 -5 8 4 8 10 17 15 21 11 3 -4 32 -5 64 -3 31 1 89 3 129
4 39 1 75 4 79 9 11 11 26 9 19 -3 -3 -5 -2 -10 4 -10 5 0 11 4 13 9 2 5 26
10 53 12 28 1 55 6 62 11 7 5 14 5 18 -2 3 -6 11 -7 18 -3 6 3 25 7 42 9 18 1
41 6 51 11 10 5 36 8 57 8 20 -1 37 2 37 6 0 3 16 5 35 4 19 -1 35 2 35 5 0 4
6 7 13 8 62 7 82 12 79 21 -2 9 3 9 18 1 15 -8 20 -8 20 1 0 7 3 9 7 6 3 -4
13 -1 21 6 13 10 14 9 7 -3 -8 -13 -6 -13 8 -2 9 8 20 11 26 8 5 -4 17 1 25
10 9 8 16 10 16 4 0 -8 6 -8 20 0 11 6 20 8 20 5 0 -4 7 1 16 9 8 9 20 14 25
10 5 -3 26 0 47 7 20 7 40 13 44 14 3 0 9 3 13 7 4 4 13 4 21 1 8 -3 14 -1 14
5 0 6 8 9 18 7 9 -1 22 0 27 4 6 3 12 6 15 7 3 0 19 6 35 13 17 7 40 14 53 15
12 2 28 8 34 14 7 7 22 12 35 12 13 0 23 5 23 11 0 5 4 8 8 5 5 -3 21 2 36 9
16 8 32 12 37 9 5 -3 9 -1 9 4 0 10 47 27 63 24 4 -1 10 4 13 11 3 8 16 13 30
11 14 -1 23 0 20 3 -7 7 41 33 60 33 8 0 14 4 14 8 0 4 10 8 22 9 11 1 24 6
27 12 4 5 19 13 34 16 15 4 27 11 27 16 0 5 3 8 8 7 4 -1 17 3 28 10 12 6 24
8 28 5 3 -3 6 -2 6 3 0 6 16 16 35 24 19 8 35 17 35 22 0 4 3 8 8 7 15 -2 52
14 52 23 0 5 5 6 10 3 6 -3 10 -1 10 4 0 6 5 11 11 11 6 0 25 10 42 22 18 13
38 21 45 20 8 -2 11 1 8 7 -4 6 5 13 19 17 14 3 25 10 25 15 0 5 11 14 25 19
14 5 25 14 25 20 0 6 4 9 9 6 5 -3 15 1 22 10 7 9 24 20 37 25 13 5 20 13 17
19 -3 5 -1 10 4 10 25 0 52 23 178 150 130 131 133 134 133 148 0 7 5 12 10
12 6 0 14 8 17 17 4 9 15 25 25 35 10 10 16 23 13 28 -4 6 1 10 10 10 9 0 14
4 11 8 -3 5 4 19 15 30 11 12 17 22 14 22 -4 0 3 12 14 26 12 15 21 33 21 40
0 8 5 14 11 14 5 0 7 5 4 10 -3 6 -1 10 5 10 6 0 9 4 5 9 -3 5 -1 12 5 16 6 4
8 11 5 16 -4 5 -1 9 5 9 7 0 10 7 6 15 -3 8 -1 15 4 15 6 0 10 7 10 15 0 8 5
15 11 15 6 0 8 9 4 20 -4 11 -2 20 4 20 6 0 11 14 11 30 0 17 4 30 8 30 5 0 8
10 7 23 -1 12 1 27 4 32 4 6 8 24 10 40 2 17 7 35 12 41 4 5 6 22 3 37 -2 15
-1 27 4 27 4 0 7 13 6 29 -1 16 4 41 12 56 8 16 9 23 2 19 -8 -5 -9 -1 -5 10
4 10 7 38 7 62 0 34 3 43 13 38 9 -6 9 -5 0 7 -16 20 -17 30 -1 41 10 8 10 11
0 15 -6 2 -9 9 -6 15 10 15 12 185 3 200 -6 9 -10 8 -15 -5 -3 -9 -13 -17 -21
-17 -8 0 -11 -4 -8 -10 3 -5 3 -10 -2 -10 -14 0 -103 -87 -96 -94 3 -3 1 -6
-5 -6 -12 0 -39 -21 -122 -100 -27 -25 -60 -54 -74 -64 -15 -11 -38 -30 -52
-43 -14 -13 -37 -31 -50 -39 -13 -9 -21 -21 -17 -27 3 -6 1 -7 -5 -3 -6 4 -19
-2 -29 -14 -10 -11 -22 -20 -28 -20 -6 0 -16 -9 -23 -21 -7 -12 -16 -19 -19
-16 -5 6 -26 -11 -80 -63 -15 -14 -23 -18 -19 -10 5 9 2 8 -7 -2 -8 -10 -17
-18 -21 -18 -4 0 -19 -11 -34 -25 -15 -14 -32 -25 -39 -25 -6 0 -13 -3 -15 -7
-1 -5 -30 -26 -63 -48 -33 -22 -61 -43 -63 -47 -2 -5 -10 -8 -17 -8 -8 0 -20
-6 -27 -12 -20 -19 -50 -38 -70 -44 -10 -4 -18 -9 -18 -13 0 -3 -9 -12 -21
-19 -17 -11 -20 -11 -13 0 4 7 -5 2 -19 -11 -15 -14 -27 -20 -27 -15 0 5 -4 4
-8 -2 -4 -6 -27 -21 -52 -35 -25 -13 -47 -27 -50 -30 -3 -3 -22 -12 -42 -19
-21 -8 -34 -18 -31 -24 4 -6 -2 -4 -12 4 -10 8 -16 10 -12 3 5 -8 -1 -15 -18
-19 -14 -3 -25 -10 -25 -15 0 -5 -3 -8 -7 -8 -20 3 -34 -2 -28 -10 3 -6 -4 -8
-15 -6 -11 2 -20 0 -20 -4 0 -7 -24 -17 -50 -21 -3 -1 -15 -8 -28 -16 -13 -9
-30 -13 -37 -10 -9 3 -12 0 -9 -9 4 -10 0 -13 -15 -10 -12 2 -21 -1 -21 -7 0
-6 -3 -8 -7 -5 -3 4 -12 2 -20 -4 -7 -6 -13 -8 -13 -3 0 5 -4 3 -8 -3 -4 -7
-19 -15 -32 -17 -14 -2 -26 -5 -27 -7 -2 -1 -6 -2 -10 -3 -5 -1 -14 -5 -20 -9
-7 -5 -13 -6 -13 -3 0 3 -12 -1 -27 -9 -15 -8 -30 -12 -35 -9 -4 3 -8 0 -8 -6
0 -6 -4 -8 -10 -5 -5 3 -10 1 -10 -5 0 -6 -5 -8 -10 -5 -6 4 -18 1 -27 -7 -14
-11 -16 -11 -8 1 6 11 5 12 -6 5 -31 -19 -109 -41 -109 -30 0 8 -2 8 -8 0 -8
-12 -55 -27 -87 -27 -11 -1 -23 -6 -27 -11 -5 -7 -8 -7 -8 2 0 6 -5 12 -11 12
-5 0 -8 -4 -5 -9 8 -12 -11 -17 -56 -16 -21 0 -38 -3 -38 -7 0 -4 -8 -5 -18
-3 -10 2 -25 -1 -32 -5 -8 -5 -22 -4 -31 1 -12 6 -20 5 -25 -3 -5 -7 -3 -8 6
-3 9 5 11 4 6 -4 -6 -9 -11 -9 -22 0 -8 6 -14 7 -14 2 0 -5 -21 -8 -47 -7 -27
1 -54 -3 -60 -9 -9 -6 -13 -6 -13 3 0 9 -4 9 -17 -1 -15 -12 -16 -12 -8 1 8
13 7 13 -8 1 -14 -11 -20 -11 -32 -1 -9 7 -15 8 -15 2 0 -12 -18 -11 -39 2 -9
6 -12 5 -7 -2 9 -14 -54 -13 -73 2 -11 8 -13 8 -8 0 4 -7 -5 -11 -23 -12 -17
0 -30 5 -30 11 0 8 -3 8 -8 2 -11 -15 -32 -17 -32 -2 0 8 -4 7 -10 -3 -5 -8
-10 -10 -10 -5 0 6 -28 10 -63 10 -34 0 -67 4 -74 8 -7 5 -30 10 -52 12 -22 2
-45 6 -51 10 -6 4 -26 9 -43 12 -18 3 -33 9 -35 14 -2 5 -16 9 -32 9 -15 0
-33 6 -39 14 -7 8 -23 17 -36 20 -14 4 -25 11 -25 17 0 6 -4 8 -9 5 -5 -3 -12
1 -15 10 -3 8 -9 13 -13 11 -10 -5 -83 70 -75 77 3 3 -2 6 -11 6 -9 0 -16 3
-15 8 1 4 -3 17 -10 30 -7 12 -10 22 -7 22 3 0 -1 10 -9 23 -7 12 -12 30 -11
40 2 9 0 17 -4 17 -4 0 -7 9 -8 20 -1 11 3 20 8 20 6 0 7 6 2 13 -11 17 -15
49 -5 43 5 -3 8 13 7 34 -1 22 3 40 7 40 5 0 7 4 3 9 -3 5 0 13 6 16 5 4 8 13
5 21 -3 8 -1 14 5 14 6 0 9 7 5 15 -3 8 -1 15 4 15 5 0 12 11 16 25 3 14 11
25 17 25 6 0 7 3 4 7 -4 3 0 15 10 25 9 10 13 18 9 18 -5 0 6 17 23 38 49 58
52 62 46 62 -3 0 8 14 25 30 17 16 27 30 23 30 -4 0 8 14 27 31 19 17 29 28
21 24 -9 -6 -12 -4 -7 3 4 7 14 12 23 12 9 0 14 3 11 6 -3 3 21 31 54 62 33
31 71 69 85 84 14 15 30 25 34 22 5 -3 9 2 9 10 0 9 5 16 10 16 6 0 24 14 40
30 17 17 30 28 30 24 0 -3 14 8 32 25 17 17 35 31 39 31 3 0 22 13 40 30 19
16 39 30 45 30 7 0 14 7 18 15 3 8 13 15 21 15 10 0 13 5 9 12 -5 7 -2 9 9 5
9 -3 18 0 21 9 3 8 13 14 21 14 9 0 13 5 10 10 -6 9 8 14 28 11 4 0 7 2 7 7 0
4 16 16 35 26 19 11 35 23 35 28 0 5 4 7 8 4 5 -3 18 2 28 12 10 9 32 23 47
30 17 7 25 17 21 24 -4 7 -3 8 4 4 6 -4 28 4 49 16 21 13 50 30 66 37 15 8 27
18 27 23 0 5 4 7 9 3 5 -3 12 -1 16 5 4 6 11 8 16 5 5 -4 9 -2 9 4 0 5 16 15
35 22 19 7 35 17 35 21 0 4 3 7 8 6 4 -1 39 14 79 34 39 20 74 34 77 30 3 -3
6 1 6 8 0 7 3 10 7 7 3 -4 12 1 20 11 8 9 12 11 8 5 -3 -7 -1 -13 4 -13 6 0
11 3 11 8 0 8 87 45 107 45 7 0 13 4 13 8 0 3 10 10 23 14 12 4 27 9 32 11 6
2 19 5 30 6 11 2 22 5 25 8 13 13 52 30 68 30 10 0 23 5 30 12 7 7 12 9 12 6
0 -4 15 -1 34 7 18 8 36 11 40 8 3 -4 6 -1 6 6 0 7 4 10 9 6 5 -3 12 -1 16 4
3 6 12 8 20 4 8 -3 15 -1 15 3 0 5 15 10 32 11 18 2 34 7 36 12 2 6 10 7 18 4
8 -3 22 1 31 8 11 9 14 9 10 2 -5 -8 1 -8 19 2 15 8 31 12 36 9 5 -3 14 -1 21
4 7 5 22 8 35 7 12 -1 22 2 22 6 0 4 11 6 25 4 14 -1 25 1 25 4 0 4 10 8 23 9
48 4 83 10 99 17 9 4 21 4 27 1 5 -4 12 -2 16 4 4 6 10 8 15 5 5 -3 12 0 16 6
4 8 9 7 15 -2 6 -9 9 -10 9 -2 0 6 11 10 25 8 14 -1 25 2 25 7 0 6 7 8 15 4 8
-3 15 0 15 7 0 8 3 8 9 -2 5 -8 11 -9 15 -3 4 6 15 9 26 7 11 -2 20 1 20 6 0
6 4 8 9 5 7 -5 98 16 141 32 8 3 19 4 25 3 5 -2 7 1 3 4 -4 4 15 19 42 32 28
14 50 29 50 34 0 5 5 9 11 9 12 0 79 66 79 78 0 4 12 21 28 37 15 17 34 44 42
60 8 17 22 42 32 56 10 14 15 29 11 33 -3 3 -1 6 6 6 7 0 9 5 6 10 -3 6 -1 10
4 10 6 0 11 11 11 23 0 13 3 27 7 31 24 24 26 225 2 210 -5 -3 -9 0 -9 6 0 16
-22 36 -48 44 -12 4 -20 11 -18 15 3 4 0 8 -7 8 -7 0 -25 3 -41 7 -17 4 -25 3
-22 -3 4 -6 -6 -4 -20 4 -15 8 -31 12 -36 9 -5 -3 -16 0 -25 8 -14 10 -15 10
-9 0 6 -9 3 -12 -10 -10 -11 2 -22 7 -26 12 -4 6 -13 4 -22 -3 -11 -9 -16 -10
-16 -2 0 6 -5 11 -11 11 -5 0 -7 -5 -3 -12 5 -7 3 -8 -7 -2 -8 5 -189 10 -403
11 -214 1 -395 4 -403 7 -7 3 -13 1 -13 -5 0 -6 -4 -8 -8 -5 -5 3 -64 6 -131
8 -67 1 -125 6 -127 10 -3 4 -15 3 -26 -3 -11 -6 -23 -7 -27 -3 -8 12 -41 14
-41 4 0 -9 -18 -8 -35 1 -5 2 -40 4 -77 4 -38 0 -68 4 -68 8 0 5 -5 5 -12 1
-14 -9 -60 -10 -74 -2 -5 3 -22 5 -39 3 -16 -1 -38 2 -49 8 -13 6 -16 6 -11
-3 5 -9 3 -9 -11 -2 -11 5 -29 8 -42 6 -16 -3 -21 0 -16 8 5 10 4 10 -6 1 -9
-9 -19 -9 -33 -2 -15 9 -18 8 -12 -2 6 -8 4 -10 -6 -4 -7 5 -29 10 -49 11 -19
1 -43 2 -53 3 -11 1 -15 6 -11 12 5 8 2 9 -11 1 -11 -6 -30 -6 -48 -1 -16 5
-33 6 -38 4 -4 -3 -10 -2 -13 3 -2 4 -22 9 -42 10 -21 2 -41 7 -44 11 -3 5
-16 7 -30 6 -14 -1 -31 4 -38 11 -7 7 -20 10 -29 7 -12 -5 -14 -3 -8 7 6 10 4
12 -8 7 -9 -3 -19 -2 -22 4 -4 5 -11 7 -16 4 -5 -4 -9 -1 -9 5 0 6 -4 8 -10 5
-5 -3 -10 -1 -10 6 0 7 -3 10 -6 6 -4 -3 -12 -1 -19 6 -7 7 -27 23 -44 37 -17
14 -31 33 -31 43 0 10 -4 15 -10 12 -5 -3 -11 4 -12 17 -2 45 3 112 10 118 4
3 7 10 7 15 0 18 37 85 47 85 5 0 7 4 4 9 -4 5 24 41 62 80 37 39 66 71 65 71
-2 0 5 8 15 19 9 10 19 18 22 17 3 -1 19 11 35 26 16 15 32 25 37 22 4 -3 8 1
8 8 0 8 14 22 31 32 29 17 41 27 90 71 9 8 22 15 29 15 7 0 23 11 36 25 13 14
25 25 26 25 2 -1 14 3 28 9 14 5 21 10 15 11 -5 0 7 9 29 19 21 10 41 24 45
30 4 7 17 13 29 14 11 0 20 6 19 11 -1 6 4 11 11 12 6 1 16 2 21 3 5 0 16 7
23 14 23 21 75 47 82 40 3 -3 6 -1 6 5 0 7 9 12 19 12 11 0 23 5 26 10 6 10
68 41 94 46 8 1 17 8 21 14 4 7 9 11 11 10 5 -2 51 15 94 35 120 54 147 65
156 60 5 -4 9 -2 9 3 0 9 30 21 53 21 4 0 21 8 37 16 17 9 30 13 30 9 0 -4 6
-2 13 3 6 6 26 14 42 18 44 12 45 12 50 15 3 1 10 4 15 5 6 1 12 4 15 5 3 1 9
3 14 4 5 0 12 4 16 8 4 4 13 4 21 1 8 -3 14 -1 14 5 0 6 8 9 18 7 9 -1 23 3
31 9 8 6 16 10 18 9 1 -2 5 -2 8 -2 3 1 13 2 23 3 9 1 23 5 30 9 6 5 17 5 22
2 6 -3 10 -1 10 6 0 7 3 9 7 6 3 -4 12 -2 19 4 8 7 14 7 19 -1 4 -7 12 -7 26
0 11 6 24 8 29 5 6 -3 10 -2 10 3 0 5 14 8 30 7 17 -1 30 2 30 9 0 6 5 4 10
-4 5 -8 10 -10 10 -5 0 10 36 16 103 18 15 0 27 5 27 11 0 7 3 8 8 1 9 -12 53
-15 46 -3 -6 9 39 4 55 -6 5 -4 12 -2 15 3 7 11 121 9 132 -1 4 -4 13 -3 21 3
9 8 17 8 26 0 10 -8 17 -7 25 1 9 9 12 9 12 0 0 -14 21 -12 32 3 5 7 8 6 8 0
0 -9 29 -15 88 -18 6 0 12 -3 12 -7 0 -4 14 -6 30 -5 17 1 30 -2 30 -7 0 -4 3
-7 8 -6 14 3 97 -25 84 -29 -6 -3 -11 -8 -9 -11 2 -4 -7 -17 -20 -29 -13 -12
-23 -20 -23 -16 0 3 -11 -6 -25 -21 -14 -15 -29 -25 -34 -22 -5 3 -8 -2 -7
-11 0 -10 -4 -18 -9 -18 -6 0 -27 -17 -47 -37 -20 -21 -39 -38 -42 -38 -11 0
-101 -94 -99 -102 2 -4 -3 -8 -10 -8 -6 0 -23 -17 -37 -37 -14 -20 -35 -47
-48 -60 -13 -13 -20 -23 -16 -23 4 0 -3 -8 -14 -19 -12 -10 -19 -20 -17 -23 3
-3 -1 -11 -10 -18 -8 -7 -15 -19 -15 -27 0 -8 -4 -11 -10 -8 -5 3 -10 -1 -10
-9 0 -9 -4 -16 -10 -16 -5 0 -6 -7 -3 -17 4 -11 3 -14 -5 -9 -7 4 -12 2 -12
-3 0 -16 20 -13 26 4 4 8 10 12 15 9 5 -3 12 2 15 11 4 9 13 14 20 11 8 -3 14
1 14 10 0 8 5 12 10 9 6 -3 10 -2 10 3 0 10 120 97 133 97 5 0 14 8 21 17 7
10 16 15 19 11 4 -3 9 2 13 11 3 9 10 13 15 10 5 -3 12 2 15 10 3 9 10 14 14
11 4 -3 13 2 20 10 7 8 19 15 26 15 8 0 14 5 14 10 0 6 7 10 15 10 8 0 15 5
15 11 0 5 4 8 9 5 5 -3 14 1 21 9 7 8 18 15 25 15 7 0 16 7 19 16 4 9 9 14 13
11 3 -4 12 -2 20 4 7 6 13 8 13 5 0 -4 10 2 22 14 12 11 30 20 40 20 12 0 16
4 12 12 -5 8 -2 9 9 5 10 -3 17 -3 17 2 0 10 61 37 73 33 5 -1 6 1 3 6 -5 9
112 69 127 64 4 -1 7 3 7 8 0 9 42 32 63 34 4 1 11 7 16 14 5 8 10 13 12 13
10 -3 69 24 69 31 0 4 7 8 15 8 8 0 24 9 35 20 11 11 22 20 25 19 16 -3 64 25
58 33 -3 6 0 8 8 6 17 -6 59 49 59 77 0 12 3 25 7 29 11 10 12 37 11 296 0
135 0 260 0 278 1 18 -4 32 -11 32 -8 0 -8 3 0 11 8 8 8 20 1 41 -6 16 -8 32
-5 35 3 3 0 12 -8 20 -8 8 -15 23 -15 34 0 10 -6 19 -13 19 -7 0 -18 9 -25 20
-7 11 -19 20 -27 20 -8 0 -15 5 -15 10 0 6 -8 10 -19 10 -10 0 -30 9 -43 20
-14 10 -28 17 -31 14 -3 -3 -25 0 -48 6 -45 12 -69 16 -147 24 -24 2 -46 7
-49 10 -3 3 -12 1 -19 -5 -8 -7 -14 -7 -19 1 -4 7 -13 7 -27 -1 -18 -10 -20
-9 -15 5 7 17 2 22 -8 6z"/>
<path d="M7940 15640 c0 -4 -16 -6 -35 -5 -19 1 -35 -1 -35 -6 0 -4 -11 -6
-25 -4 -14 1 -25 -2 -25 -7 0 -6 -7 -8 -15 -4 -8 3 -15 1 -15 -3 0 -5 -8 -8
-17 -7 -19 3 -53 -12 -65 -29 -5 -6 -8 -5 -8 4 0 11 -3 11 -15 1 -9 -7 -18
-10 -21 -7 -4 3 -13 -1 -21 -9 -9 -9 -23 -12 -35 -8 -13 4 -18 2 -14 -4 3 -5
-1 -13 -10 -16 -10 -4 -13 -2 -9 7 4 6 0 4 -8 -5 -8 -10 -16 -16 -19 -13 -2 3
-22 -4 -44 -14 -21 -10 -57 -27 -79 -37 -22 -10 -57 -29 -79 -42 -21 -13 -35
-18 -30 -10 4 7 -5 2 -21 -12 -16 -14 -25 -18 -20 -10 5 8 -3 5 -16 -6 -13
-12 -34 -25 -46 -29 -13 -3 -23 -11 -23 -16 0 -6 -4 -7 -10 -4 -5 3 -10 1 -10
-4 0 -6 -5 -11 -11 -11 -6 0 -24 -9 -40 -21 -16 -11 -29 -17 -29 -13 0 4 -12
-4 -27 -18 -16 -14 -38 -29 -50 -33 -13 -3 -23 -11 -23 -16 0 -6 -4 -8 -9 -5
-5 4 -11 2 -13 -2 -1 -5 -31 -27 -65 -51 -35 -23 -63 -46 -63 -51 0 -5 -7 -6
-17 -3 -11 4 -14 3 -9 -5 4 -7 2 -12 -3 -12 -6 0 -13 0 -16 0 -2 -1 -26 -21
-52 -45 -26 -24 -49 -43 -51 -41 -2 3 -19 -11 -39 -30 -19 -19 -39 -34 -44
-34 -6 0 -7 -4 -4 -10 3 -5 1 -10 -5 -10 -7 0 -26 -15 -43 -32 -18 -18 -51
-49 -74 -68 -22 -19 -41 -38 -42 -42 -3 -14 -66 -74 -73 -70 -5 2 -8 -2 -8 -8
0 -7 -13 -25 -30 -40 -16 -15 -30 -33 -30 -40 0 -6 -4 -8 -10 -5 -5 3 -10 0
-10 -7 0 -7 -12 -24 -25 -37 -14 -13 -25 -27 -25 -33 0 -5 -4 -6 -10 -3 -5 3
-10 0 -10 -8 0 -8 -11 -25 -25 -38 -13 -13 -25 -28 -25 -32 0 -4 -9 -17 -20
-29 -11 -12 -32 -40 -47 -62 -16 -23 -31 -42 -35 -44 -5 -2 -8 -9 -8 -16 0 -7
-9 -21 -20 -31 -11 -10 -17 -22 -14 -26 3 -5 1 -9 -3 -9 -5 0 -22 -22 -38 -49
-16 -28 -32 -48 -36 -45 -4 2 -5 -6 -1 -18 3 -14 1 -19 -6 -14 -7 4 -14 -3
-18 -19 -3 -14 -10 -25 -14 -25 -4 0 -11 -11 -14 -25 -4 -14 -11 -25 -16 -25
-6 0 -10 -6 -10 -13 0 -7 -6 -19 -12 -25 -7 -7 -13 -16 -14 -20 -2 -21 -17
-41 -27 -35 -6 3 -7 1 -3 -6 4 -6 -2 -25 -14 -41 -12 -16 -19 -34 -16 -39 3
-5 -1 -12 -10 -15 -8 -3 -12 -10 -9 -16 3 -5 2 -10 -4 -10 -5 0 -15 -16 -22
-35 -7 -19 -17 -35 -22 -35 -4 0 -5 -5 -2 -10 3 -6 0 -13 -9 -16 -8 -3 -12
-12 -9 -20 3 -8 0 -14 -7 -14 -6 0 -8 -4 -5 -10 3 -5 1 -10 -4 -10 -6 0 -10
-3 -9 -7 1 -5 -3 -18 -10 -30 -7 -13 -9 -23 -5 -23 4 0 4 -4 -2 -8 -12 -9 -58
-95 -46 -88 9 6 -33 -83 -48 -100 -5 -7 -8 -14 -5 -17 3 -3 1 -14 -5 -26 -6
-12 -16 -30 -21 -41 -6 -12 -8 -25 -5 -30 4 -6 1 -10 -5 -10 -6 0 -10 -10 -8
-22 2 -13 -2 -22 -8 -21 -7 1 -10 -6 -7 -18 4 -12 0 -25 -8 -30 -12 -7 -12 -9
0 -9 11 0 11 -3 1 -15 -10 -12 -10 -15 0 -15 9 0 10 -3 1 -13 -6 -8 -8 -17 -4
-21 4 -4 9 -18 10 -32 2 -14 9 -37 15 -52 6 -15 12 -29 13 -32 9 -25 20 -48
32 -62 8 -9 12 -22 7 -29 -4 -8 -3 -10 4 -5 7 4 12 1 12 -6 0 -8 9 -20 19 -28
11 -7 18 -17 16 -21 -3 -4 2 -9 10 -13 8 -3 15 -13 15 -21 0 -9 5 -13 10 -10
6 3 10 2 10 -4 0 -6 38 -50 85 -97 47 -48 85 -84 85 -79 0 4 8 -2 19 -13 10
-12 21 -19 25 -15 3 3 6 1 6 -6 0 -7 13 -17 30 -22 16 -6 28 -14 26 -18 -3 -4
5 -8 17 -9 74 -8 107 -4 145 16 23 12 42 18 42 14 0 -4 7 2 15 12 8 11 15 17
15 13 0 -8 14 2 51 36 10 9 19 15 19 12 0 -3 12 6 27 20 15 14 31 25 36 25 4
0 5 5 2 10 -3 6 1 10 9 10 9 0 16 5 16 11 0 5 5 7 10 4 6 -3 10 -1 10 4 0 6 9
20 20 31 11 11 20 17 20 14 0 -4 9 5 21 20 11 14 28 26 37 26 15 0 15 2 2 10
-13 8 -12 10 3 10 10 0 16 4 13 8 -2 4 9 17 25 27 16 11 32 28 35 37 3 9 14
20 25 23 10 4 17 11 14 16 -4 5 1 9 9 9 9 0 15 4 14 9 -2 5 9 20 25 34 15 14
27 30 27 35 0 5 9 17 20 27 11 10 18 20 15 23 -2 3 3 10 11 17 22 15 21 63 -1
83 -11 11 -15 12 -10 3 6 -11 3 -13 -13 -9 -14 4 -25 1 -30 -9 -5 -8 -12 -14
-15 -14 -4 1 -35 -13 -70 -31 -34 -17 -68 -31 -76 -29 -8 1 -10 -2 -5 -10 5
-9 1 -11 -14 -7 -14 4 -25 0 -31 -9 -5 -10 -16 -14 -30 -10 -11 3 -19 2 -16
-2 2 -4 -13 -8 -35 -9 -21 -1 -42 2 -45 8 -3 5 -12 7 -19 4 -13 -5 -29 22 -25
42 1 5 0 11 -1 14 -6 18 -8 45 -2 54 3 6 5 24 3 40 -1 16 1 26 7 22 5 -3 8 6
6 21 -1 15 0 32 4 38 3 5 8 19 9 30 2 10 7 22 11 25 4 3 8 13 10 24 2 10 8 30
14 45 6 14 11 29 10 34 -1 4 3 7 10 7 6 0 9 3 5 6 -3 3 5 24 19 45 13 21 21
39 17 39 -5 0 -3 4 4 8 6 4 13 14 15 22 2 8 12 23 22 33 10 9 16 17 12 17 -5
0 9 24 30 52 20 29 37 58 37 65 0 6 5 11 11 10 6 -1 10 4 8 11 -1 6 5 12 13
12 8 0 14 3 14 8 -3 19 2 33 11 27 6 -3 10 -1 10 5 0 18 36 60 45 52 3 -4 5
-2 3 3 -3 12 40 68 115 148 26 28 47 55 47 60 0 4 5 5 10 2 6 -3 10 -1 10 4 0
15 42 61 50 56 4 -2 13 7 20 20 7 14 24 32 37 40 13 9 21 20 18 25 -4 6 -1 10
5 10 6 0 24 14 40 30 16 17 34 30 39 30 6 0 15 9 21 20 6 11 16 17 22 14 6 -4
8 -3 5 3 -4 6 19 31 51 56 31 24 67 53 79 63 12 11 38 33 59 49 20 17 43 36
50 43 8 7 14 10 14 5 0 -4 7 1 15 11 8 11 15 16 15 11 0 -5 7 1 16 13 8 12 22
22 30 22 8 0 14 4 14 8 0 4 15 16 33 27 17 10 38 25 45 32 8 7 18 11 23 8 5
-4 9 -2 9 4 0 10 126 89 143 89 5 1 15 9 24 19 8 10 11 12 8 4 -5 -8 2 -7 21
5 16 10 31 21 34 24 3 3 11 5 18 6 29 2 33 5 26 17 -4 6 -4 9 1 5 4 -4 23 -1
42 7 19 8 39 12 44 9 5 -3 9 0 9 6 0 6 4 9 9 5 5 -3 12 -1 15 3 3 5 17 8 31 7
14 -2 27 1 31 6 3 5 10 9 15 9 6 0 8 -4 5 -8 -6 -10 25 -9 42 2 6 4 12 2 12
-3 0 -6 9 -11 21 -11 11 0 26 -6 33 -12 8 -7 23 -20 35 -28 11 -8 21 -20 21
-27 0 -7 5 -13 10 -13 6 0 10 -8 10 -18 0 -10 5 -23 11 -29 6 -6 12 -34 13
-62 0 -28 3 -51 6 -51 3 0 6 -9 7 -20 1 -11 -2 -18 -8 -15 -5 4 -5 -3 0 -18 5
-13 5 -30 1 -37 -5 -9 -4 -20 3 -29 9 -12 9 -13 0 -7 -9 5 -13 -2 -13 -24 0
-17 -5 -41 -11 -52 -6 -11 -7 -18 -1 -14 5 3 3 -13 -5 -37 -8 -23 -15 -50 -16
-59 -1 -10 -4 -18 -7 -18 -3 0 -6 -8 -7 -17 -1 -17 -9 -53 -14 -63 -1 -3 -3
-9 -4 -15 -1 -5 -7 -23 -14 -39 -6 -16 -10 -35 -7 -43 3 -7 1 -13 -4 -13 -6 0
-10 -9 -10 -20 0 -11 -4 -20 -9 -20 -4 0 -11 -19 -14 -41 -3 -23 -9 -45 -14
-48 -5 -3 -9 -13 -9 -21 0 -8 -7 -28 -14 -45 -7 -16 -12 -36 -11 -42 1 -7 -3
-13 -9 -13 -6 0 -9 -4 -6 -8 3 -5 -1 -20 -9 -35 -7 -14 -11 -28 -7 -31 3 -3 0
-6 -6 -6 -7 0 -11 -3 -11 -7 3 -18 -14 -73 -23 -73 -5 0 -6 -5 -3 -10 4 -6 1
-17 -5 -25 -6 -8 -9 -18 -6 -24 3 -5 -1 -12 -10 -15 -8 -3 -13 -10 -10 -14 3
-5 -1 -20 -9 -35 -8 -15 -12 -27 -10 -27 1 0 -10 -32 -26 -71 -16 -39 -29 -78
-29 -86 0 -8 -4 -12 -9 -8 -6 3 -8 -4 -6 -15 2 -11 -1 -20 -7 -20 -6 0 -8 -9
-5 -20 3 -11 0 -18 -6 -17 -6 1 -12 -4 -13 -10 -1 -7 -3 -15 -4 -18 -1 -3 -4
-8 -5 -12 -1 -5 -8 -24 -16 -43 -7 -19 -12 -38 -11 -42 1 -5 -3 -8 -10 -8 -6
0 -8 -3 -5 -7 4 -3 3 -11 -1 -17 -12 -16 -47 -110 -44 -118 1 -5 -2 -8 -8 -8
-6 0 -9 -3 -8 -7 1 -5 -3 -18 -10 -30 -7 -13 -10 -23 -7 -23 4 0 -1 -7 -9 -16
-9 -8 -16 -22 -16 -31 0 -8 -6 -27 -14 -41 -8 -15 -21 -43 -29 -62 -8 -19 -25
-57 -37 -85 -13 -27 -23 -56 -23 -62 0 -7 -3 -13 -7 -13 -7 0 -35 -71 -32 -82
1 -5 -2 -8 -8 -8 -5 0 -10 -7 -10 -15 0 -8 -4 -15 -10 -15 -5 0 -7 -7 -4 -15
4 -8 1 -15 -6 -15 -6 0 -8 -4 -5 -10 3 -5 1 -10 -4 -10 -6 0 -10 -3 -9 -7 2
-7 -6 -28 -45 -115 -6 -16 -15 -28 -19 -28 -4 0 -5 -7 -2 -15 4 -8 1 -15 -6
-15 -7 0 -10 -7 -6 -15 3 -9 0 -15 -10 -15 -8 0 -12 -5 -9 -10 4 -6 1 -17 -5
-25 -6 -8 -8 -20 -4 -26 4 -8 3 -9 -4 -5 -11 6 -16 -6 -13 -26 0 -5 -4 -8 -10
-8 -5 0 -7 -4 -4 -10 3 -5 2 -10 -3 -10 -5 0 -15 -18 -22 -40 -7 -22 -19 -45
-27 -51 -7 -6 -13 -18 -13 -25 0 -17 -51 -116 -65 -126 -5 -4 -7 -8 -3 -8 4 0
-4 -20 -18 -45 -14 -25 -22 -51 -18 -57 4 -6 3 -8 -3 -5 -10 7 -28 -20 -25
-35 1 -5 -3 -8 -9 -8 -5 0 -8 -4 -4 -9 3 -6 -3 -14 -12 -20 -10 -6 -14 -11
-10 -11 4 0 2 -10 -5 -22 -7 -13 -11 -26 -10 -30 1 -5 -3 -8 -10 -8 -6 0 -8
-3 -5 -7 4 -3 0 -14 -9 -24 -8 -9 -17 -25 -18 -34 -1 -9 -7 -20 -13 -23 -6 -4
-13 -16 -15 -27 -1 -11 -6 -22 -9 -25 -4 -3 -16 -24 -28 -47 -12 -24 -26 -43
-31 -43 -5 0 -7 -7 -4 -15 4 -8 1 -15 -6 -15 -6 0 -9 -4 -6 -9 3 -5 -3 -19
-13 -32 -10 -13 -21 -34 -25 -46 -4 -13 -12 -23 -17 -23 -6 0 -8 -4 -4 -9 3
-5 -2 -16 -11 -25 -8 -9 -12 -20 -9 -26 3 -5 1 -10 -5 -10 -6 0 -8 -4 -5 -10
3 -5 1 -10 -5 -10 -6 0 -16 -13 -21 -30 -6 -16 -15 -30 -21 -30 -5 0 -7 -4 -3
-9 3 -5 -2 -17 -11 -25 -8 -9 -12 -16 -8 -16 4 0 0 -8 -9 -17 -8 -10 -16 -22
-16 -28 -1 -5 -8 -18 -16 -27 -8 -10 -12 -18 -9 -18 4 0 1 -6 -5 -13 -6 -8 -8
-17 -4 -20 3 -4 1 -7 -5 -7 -6 0 -14 -10 -18 -22 -3 -12 -13 -28 -20 -36 -8
-7 -12 -18 -9 -23 4 -5 3 -9 -2 -9 -4 0 -21 -27 -37 -60 -16 -33 -34 -60 -39
-60 -5 0 -7 -7 -3 -15 3 -8 1 -15 -5 -15 -5 0 -15 -13 -20 -30 -6 -16 -14 -30
-18 -30 -4 0 -8 -6 -8 -13 0 -6 -12 -31 -26 -55 -15 -23 -24 -42 -20 -42 5 0
4 -4 -2 -8 -14 -10 -68 -112 -59 -112 4 0 0 -8 -9 -18 -10 -10 -14 -22 -10
-25 3 -4 0 -7 -7 -7 -7 0 -10 -3 -7 -7 4 -3 2 -12 -3 -18 -6 -7 -12 -27 -13
-44 -1 -17 -6 -31 -11 -31 -5 0 -3 -7 4 -15 7 -9 10 -18 7 -21 -3 -4 3 -15 13
-27 11 -11 17 -25 13 -30 -3 -6 -2 -8 3 -4 5 3 25 -9 45 -26 20 -18 48 -41 63
-52 16 -11 41 -31 56 -45 15 -14 40 -34 56 -45 15 -11 33 -25 39 -32 16 -15
73 -24 81 -12 3 5 10 7 15 4 5 -4 9 -2 9 3 0 4 9 18 20 30 12 12 18 22 15 22
-4 0 3 13 14 29 12 16 21 34 21 40 0 6 5 11 11 11 5 0 7 5 4 10 -3 6 0 13 9
16 8 3 13 14 11 25 -2 10 1 19 6 19 6 0 15 14 20 30 6 16 15 30 21 30 5 0 7 4
4 9 -3 5 1 14 9 21 8 7 12 16 9 21 -3 5 2 12 10 15 9 3 14 10 11 14 -3 5 2 16
11 24 8 9 13 16 10 16 -3 0 8 23 24 50 17 28 30 55 30 59 0 5 7 14 15 21 9 7
13 15 10 18 -3 3 5 17 17 30 13 14 17 22 10 18 -11 -7 -11 -4 0 13 7 12 16 21
19 21 4 0 10 12 15 28 11 37 12 112 2 112 -4 0 -8 13 -8 29 0 17 -4 32 -10 36
-5 3 -7 12 -3 20 3 9 -1 15 -8 15 -9 0 -10 3 -3 8 6 4 17 21 24 39 8 17 18 29
23 26 4 -3 7 1 6 8 -3 22 12 50 24 42 5 -3 7 -1 3 5 -3 6 -2 13 4 17 5 3 10
15 10 25 0 10 6 23 13 27 14 8 31 42 29 56 -1 4 2 7 7 7 4 0 19 23 32 50 13
28 27 50 32 50 4 0 5 5 2 10 -3 6 0 13 9 16 8 3 12 12 9 20 -3 8 0 14 6 14 6
0 11 7 11 15 0 8 5 15 11 15 5 0 8 4 5 9 -3 5 1 14 9 21 8 7 12 16 10 21 -3 4
5 18 17 30 13 12 17 19 10 14 -11 -6 -11 -3 0 14 7 12 16 21 21 21 4 0 5 4 2
10 -3 5 3 17 14 27 11 9 18 20 15 25 -3 4 2 15 10 24 9 8 16 22 16 30 0 8 5
14 11 14 5 0 8 4 5 8 -3 5 6 25 19 45 14 20 25 40 25 44 0 16 48 102 54 96 3
-4 6 2 6 11 0 10 10 32 22 49 12 17 16 27 7 22 -9 -5 -8 -1 4 12 9 11 17 25
17 31 0 7 5 12 11 12 5 0 8 4 4 9 -3 5 1 16 9 24 8 8 12 17 9 21 -4 3 -1 6 5
6 7 0 11 3 11 8 -3 19 2 33 11 27 6 -3 7 1 4 9 -3 9 -1 16 6 16 6 0 9 4 5 9
-3 5 2 16 10 25 9 8 15 17 15 18 -3 11 24 68 32 68 5 0 7 4 3 9 -3 5 -1 12 5
16 5 3 10 15 10 26 0 11 4 18 8 15 4 -2 9 5 9 16 1 12 6 24 11 27 5 3 15 23
23 44 7 20 17 37 23 37 5 0 7 3 3 6 -3 4 5 27 19 51 13 24 22 49 19 54 -4 5 1
9 10 9 9 0 14 4 11 9 -3 5 1 22 9 37 8 16 15 35 15 42 0 6 5 12 10 12 6 0 10
3 9 8 -2 14 13 52 22 52 4 0 6 9 4 19 -2 10 4 27 13 38 9 10 18 23 19 28 6 27
29 81 38 87 6 4 6 8 2 8 -4 0 -2 10 5 23 7 12 11 25 10 30 -1 4 2 7 8 7 6 0 9
3 8 8 -3 15 15 62 24 62 6 0 8 7 4 15 -3 8 -1 15 5 15 6 0 7 5 4 10 -3 6 -1
10 6 10 7 0 9 3 6 6 -3 4 -1 16 5 28 7 11 13 30 15 41 2 11 8 21 13 23 5 2 6
10 3 18 -3 8 1 14 8 14 7 0 10 3 6 6 -3 3 4 27 15 52 11 26 22 56 24 66 2 11
7 22 12 25 4 3 8 13 9 21 1 24 15 60 22 60 4 0 7 8 8 18 3 43 8 62 15 62 4 0
8 7 8 15 0 8 5 15 11 15 5 0 8 4 4 9 -3 5 1 27 9 48 16 43 23 64 25 76 0 4 8
23 16 43 8 20 12 40 9 45 -3 5 0 9 6 9 6 0 8 5 5 10 -3 6 -2 10 4 10 6 0 8 7
5 15 -4 8 -1 15 4 15 6 0 11 8 11 18 0 33 6 57 17 64 6 4 10 21 9 38 -1 16 1
30 5 30 6 0 20 42 25 75 1 6 4 20 9 32 10 31 18 65 19 86 1 9 5 17 10 17 5 0
7 7 3 15 -3 8 -1 15 4 15 5 0 7 9 5 20 -2 11 0 22 5 25 5 3 7 12 3 20 -3 8 -1
15 4 15 5 0 9 10 10 23 1 12 4 33 7 47 7 28 15 72 21 110 2 14 4 25 5 25 1 0
4 20 6 44 1 24 9 48 16 52 11 7 11 9 0 9 -8 0 -10 5 -6 12 8 13 11 45 19 191
3 54 6 101 6 105 1 4 1 9 0 12 -1 3 -4 48 -6 100 -5 96 -11 165 -15 165 -1 0
-3 9 -5 20 -2 11 -7 36 -11 55 -4 19 -6 39 -5 45 1 5 -4 14 -11 20 -14 11 -17
20 -20 60 -1 14 -5 25 -8 25 -7 0 -35 63 -32 73 1 4 -2 7 -8 7 -5 0 -10 7 -10
15 0 8 -4 15 -10 15 -5 0 -10 7 -10 15 0 9 -7 18 -15 21 -8 4 -13 10 -10 14 3
5 -4 11 -15 15 -11 3 -19 9 -17 13 3 11 -36 52 -50 52 -7 0 -13 7 -13 16 0 8
-4 13 -9 9 -5 -3 -16 2 -24 10 -9 8 -23 15 -31 15 -9 0 -16 4 -16 9 0 8 -41
22 -110 37 -35 8 -180 11 -180 4z"/>
<path d="M15196 6833 c-1 -2 -27 -4 -57 -5 -30 -1 -60 -7 -68 -12 -10 -8 -15
-8 -18 2 -3 6 -10 9 -16 5 -7 -5 -23 -9 -37 -10 -34 -2 -58 -8 -65 -15 -4 -3
-20 -4 -36 -1 -17 2 -29 0 -29 -6 0 -6 -3 -10 -7 -10 -29 5 -53 -2 -47 -13 5
-9 2 -9 -9 1 -12 9 -17 10 -17 2 0 -7 -3 -10 -8 -8 -4 3 -24 -3 -45 -13 -20
-10 -34 -13 -30 -7 4 7 0 6 -10 -1 -9 -8 -21 -11 -27 -7 -5 3 -10 2 -10 -3 0
-5 -18 -14 -40 -21 -22 -6 -40 -16 -40 -21 0 -5 -7 -7 -15 -4 -8 4 -15 1 -15
-5 0 -6 -9 -11 -20 -11 -11 0 -20 -4 -20 -10 0 -5 -6 -10 -14 -10 -7 0 -26
-10 -42 -22 -15 -13 -24 -16 -19 -8 9 15 -34 -16 -47 -35 -4 -5 -8 -7 -8 -3 0
8 -27 -12 -62 -44 -10 -10 -18 -16 -18 -13 0 3 -11 -6 -25 -20 -14 -14 -30
-25 -36 -25 -6 0 -8 -4 -4 -9 3 -5 -4 -12 -15 -16 -11 -3 -20 -10 -20 -15 0
-5 -12 -21 -27 -35 -15 -14 -25 -25 -21 -25 4 0 -3 -11 -15 -24 -36 -39 -44
-51 -51 -74 -4 -12 -12 -20 -17 -16 -5 3 -8 2 -7 -3 1 -4 -4 -24 -11 -43 -8
-19 -13 -38 -12 -42 0 -5 -3 -8 -7 -8 -4 0 -9 -12 -10 -27 -1 -15 -5 -29 -10
-32 -17 -13 -17 -168 -1 -196 4 -5 5 -18 4 -27 -2 -10 1 -18 6 -18 5 0 9 -6 9
-13 0 -18 24 -67 33 -67 4 0 7 -5 7 -12 0 -28 117 -113 169 -123 9 -2 17 -4
19 -5 1 -2 7 -4 12 -5 6 -1 11 -3 13 -5 7 -5 46 -12 75 -13 17 0 32 -3 32 -7
0 -7 65 -13 119 -11 14 1 28 -5 33 -11 6 -10 8 -10 8 1 0 11 3 11 17 0 10 -8
14 -9 10 -2 -5 8 0 11 13 10 11 -1 20 -6 20 -12 0 -5 4 -4 9 4 6 9 10 10 16 2
5 -9 10 -9 21 0 11 9 14 8 14 -2 0 -11 2 -11 10 1 5 8 10 10 10 4 0 -11 35
-12 46 -1 4 4 13 2 20 -4 8 -7 14 -7 19 1 5 8 11 8 21 -1 8 -6 14 -8 14 -5 0
4 9 2 20 -4 16 -9 18 -14 8 -29 -6 -11 -20 -18 -30 -16 -10 2 -18 0 -18 -5 0
-5 -9 -7 -20 -5 -11 2 -22 -1 -25 -6 -4 -5 -11 -7 -16 -3 -5 3 -15 1 -22 -4
-10 -8 -52 -19 -94 -24 -7 -1 -13 -4 -13 -8 0 -4 -6 -7 -12 -8 -24 -1 -57 -11
-77 -22 -12 -6 -21 -8 -21 -4 0 3 -7 1 -15 -6 -8 -7 -15 -9 -15 -5 0 5 -8 1
-17 -8 -10 -8 -21 -16 -26 -16 -25 -2 -57 -15 -57 -23 0 -5 -4 -6 -10 -3 -5 3
-10 2 -10 -3 0 -6 -8 -9 -17 -8 -10 0 -17 -4 -16 -11 2 -7 -6 -10 -17 -8 -11
2 -20 0 -20 -6 0 -5 -7 -9 -15 -9 -8 0 -15 -4 -15 -10 0 -5 -6 -10 -14 -10 -8
0 -22 -7 -30 -16 -9 -8 -21 -12 -27 -8 -8 4 -9 3 -5 -4 4 -7 1 -12 -8 -12 -9
0 -16 -4 -16 -10 0 -5 -11 -12 -25 -16 -14 -3 -25 -10 -25 -15 0 -5 -11 -14
-25 -19 -14 -5 -25 -14 -25 -20 0 -6 -4 -8 -10 -5 -5 3 -10 0 -10 -8 0 -15
-27 -32 -43 -28 -5 1 -6 -3 -3 -8 3 -5 -1 -12 -10 -15 -8 -3 -12 -10 -9 -16 3
-5 2 -10 -4 -10 -6 0 -26 -16 -45 -35 -20 -19 -33 -35 -31 -35 2 0 -7 -12 -21
-27 -13 -14 -22 -28 -20 -30 2 -2 -7 -16 -20 -30 -13 -14 -21 -29 -18 -34 3
-5 0 -9 -6 -9 -6 0 -9 -4 -6 -9 3 -5 -1 -14 -9 -21 -8 -7 -13 -16 -10 -20 3
-5 -2 -15 -10 -23 -11 -12 -12 -17 -2 -20 9 -4 9 -6 0 -6 -7 -1 -13 -9 -13
-18 0 -10 -7 -31 -15 -46 -9 -18 -10 -25 -2 -20 7 4 7 0 -2 -10 -11 -14 -11
-17 0 -17 9 0 10 -3 4 -8 -9 -6 -13 -143 -5 -162 1 -3 3 -13 5 -23 2 -10 12
-36 23 -57 10 -22 14 -37 8 -33 -13 7 3 -10 74 -84 28 -29 53 -53 55 -53 3 0
10 0 16 0 5 0 7 -5 3 -12 -4 -6 -3 -8 4 -4 6 3 13 2 17 -4 4 -6 11 -8 16 -5 5
4 9 1 9 -5 0 -7 7 -9 16 -6 8 3 13 2 10 -3 -6 -9 44 -24 77 -24 9 0 17 -3 17
-6 0 -4 54 -8 120 -9 93 -2 120 0 120 10 0 8 3 9 8 3 10 -14 32 -17 32 -5 0 5
5 10 11 10 5 0 7 -4 4 -10 -4 -6 3 -6 21 0 15 6 29 9 31 6 3 -2 21 1 41 8 21
7 45 12 55 10 9 -1 17 2 17 8 0 6 7 4 17 -3 11 -10 14 -10 9 -1 -5 8 1 12 18
12 14 0 26 4 26 8 0 5 13 8 30 7 17 -1 27 2 23 8 -4 6 0 8 10 4 10 -3 17 -2
17 4 0 6 4 8 9 4 5 -3 12 -1 16 5 4 6 10 8 15 5 5 -3 11 -1 15 5 4 6 11 8 16
5 5 -4 9 -2 9 4 0 6 7 8 15 5 8 -4 15 -1 15 6 0 7 7 10 15 6 8 -3 19 2 24 12
8 14 10 14 11 2 0 -9 3 -11 8 -4 4 5 22 16 40 23 17 8 32 18 32 24 0 6 3 7 6
4 7 -7 72 25 113 55 13 10 27 15 32 12 5 -3 9 0 9 6 0 6 8 14 17 17 10 4 28
18 40 31 13 14 23 22 23 19 0 -4 14 7 30 25 17 17 30 35 30 40 0 5 5 6 10 3 6
-3 10 -2 10 3 0 4 9 18 19 29 11 12 28 37 39 57 11 19 22 32 26 29 4 -4 4 0 0
10 -3 9 -2 17 4 17 9 0 27 47 24 63 -1 4 2 7 6 7 4 0 8 8 9 18 1 9 5 31 9 47
3 17 7 47 8 68 0 20 3 37 6 37 9 0 6 115 -3 121 -11 8 -63 -41 -59 -54 1 -5
-2 -6 -8 -2 -5 3 -10 1 -10 -4 0 -6 -7 -11 -16 -11 -8 0 -12 -4 -9 -10 3 -5 2
-10 -3 -10 -6 0 -24 -13 -42 -30 -18 -16 -36 -30 -42 -30 -5 0 -6 -4 -3 -10 3
-5 1 -10 -5 -10 -11 0 -89 -57 -102 -75 -5 -6 -8 -6 -8 0 0 5 -7 -1 -16 -13
-8 -12 -19 -22 -24 -22 -6 0 -41 -20 -80 -45 -38 -25 -70 -42 -70 -38 0 3 -9
-2 -20 -12 -11 -10 -20 -14 -20 -9 0 5 -7 1 -14 -9 -8 -10 -17 -18 -21 -17
-10 3 -70 -23 -77 -34 -5 -7 -8 -6 -8 3 0 11 -4 10 -16 -5 -8 -10 -12 -12 -8
-4 5 10 0 9 -14 -4 -12 -11 -22 -16 -22 -11 0 4 -6 3 -12 -2 -7 -6 -21 -9 -30
-8 -10 2 -18 -1 -18 -6 0 -5 -3 -8 -7 -7 -5 1 -19 -4 -32 -11 -13 -7 -21 -8
-17 -3 4 6 -2 10 -13 9 -11 0 -18 -5 -15 -9 3 -4 -11 -6 -31 -4 -19 1 -35 -2
-35 -6 0 -5 -4 -6 -10 -3 -5 3 -10 0 -10 -7 0 -9 -3 -9 -10 2 -5 8 -10 10 -10
4 0 -15 -222 -12 -227 3 -2 6 -12 9 -22 6 -10 -2 -36 3 -57 13 -21 9 -42 16
-46 16 -5 -1 -8 2 -8 8 0 5 -7 10 -16 10 -8 0 -12 5 -9 10 3 6 -2 10 -11 10
-10 0 -14 3 -11 7 4 3 2 12 -4 20 -6 7 -8 13 -3 13 5 0 2 5 -6 10 -13 9 -13
11 0 20 9 6 10 10 3 10 -6 0 -11 13 -11 30 1 17 4 30 8 30 4 0 7 6 8 13 3 32
11 52 20 50 6 -2 9 4 6 12 -4 8 -1 15 5 15 6 0 10 3 9 8 -2 4 4 15 12 25 33
40 150 159 150 153 0 -5 9 2 61 49 9 8 19 15 23 15 4 0 19 11 34 25 15 14 32
26 39 26 27 3 32 4 40 13 5 5 3 6 -4 2 -7 -4 -13 -2 -13 3 0 6 6 11 14 11 8 0
21 7 30 15 8 9 17 15 18 14 8 -5 48 14 48 22 0 6 5 7 10 4 6 -3 10 -2 10 3 0
6 7 13 16 16 8 3 12 2 9 -4 -3 -6 1 -7 9 -4 9 3 14 10 11 14 -3 4 7 11 23 15
15 3 46 15 69 26 23 11 47 18 53 14 6 -4 9 -1 8 6 -2 7 7 14 20 15 12 1 24 3
27 4 3 1 8 3 13 5 4 1 20 7 35 13 16 7 32 10 37 7 5 -3 12 0 15 6 4 5 13 8 20
5 7 -2 22 2 33 10 13 9 23 11 27 4 4 -7 13 -6 27 1 11 6 29 9 39 6 10 -3 19
-2 19 3 0 6 24 12 95 22 37 5 131 95 141 133 3 14 9 25 13 25 7 0 14 39 13 79
0 29 -22 72 -33 65 -5 -3 -17 -1 -27 5 -10 5 -24 6 -32 1 -8 -5 -19 -6 -25 -2
-17 11 -65 10 -65 -2 0 -7 -3 -7 -8 -1 -11 15 -214 17 -205 2 5 -9 3 -9 -8 -1
-12 9 -121 16 -276 17 -24 0 -43 5 -43 10 0 5 -7 4 -15 -3 -8 -7 -15 -8 -15
-4 0 5 -28 9 -62 9 -35 0 -72 4 -83 9 -11 6 -24 9 -29 8 -5 -2 -16 0 -25 4 -9
4 -18 8 -21 9 -35 9 -58 21 -72 36 -21 21 -33 79 -18 79 6 0 9 4 5 9 -3 5 2
16 10 24 8 9 15 18 15 22 0 8 65 75 73 75 4 0 20 14 35 30 16 17 34 30 41 30
6 0 11 5 11 11 0 5 5 7 10 4 6 -3 10 1 10 10 0 9 4 14 9 11 5 -3 19 2 32 12
44 32 106 62 114 54 5 -4 5 -2 2 4 -6 10 59 41 76 36 4 -1 7 2 7 7 0 8 10 12
60 28 8 2 21 5 28 5 6 1 12 5 12 8 0 7 50 22 80 24 8 0 21 6 28 13 8 7 18 11
23 7 6 -3 16 0 24 6 10 8 15 9 15 2 0 -7 11 -7 33 2 17 7 42 12 55 11 12 -1
25 2 28 7 3 5 11 4 19 -2 10 -8 15 -8 20 0 5 8 10 8 20 0 10 -8 15 -8 20 1 6
8 10 7 16 -2 7 -12 9 -12 9 0 0 11 3 11 17 0 11 -10 14 -10 9 -1 -4 6 -2 12 3
12 6 0 11 -4 11 -8 0 -4 14 -9 31 -10 77 -6 86 -19 42 -59 -20 -18 -40 -33
-46 -33 -6 0 -8 -3 -5 -6 8 -7 -45 -62 -54 -57 -5 2 -8 -3 -8 -12 0 -8 -9 -23
-20 -32 -11 -10 -20 -23 -20 -29 0 -7 -6 -14 -12 -17 -7 -2 -10 -7 -7 -11 11
-12 38 5 32 20 -3 10 0 12 10 9 8 -4 17 1 21 10 3 9 10 13 16 10 5 -3 10 -1
10 5 0 7 7 9 16 6 8 -3 13 -2 10 3 -3 5 2 15 11 22 9 8 17 12 19 9 2 -3 13 3
24 13 11 9 25 17 30 17 6 0 10 5 10 12 0 6 3 8 6 5 4 -4 19 2 33 11 14 10 38
23 54 30 15 6 27 16 27 21 0 6 9 8 20 6 11 -2 20 0 20 4 0 4 18 16 40 27 22
10 40 22 40 27 0 4 6 7 14 7 12 0 24 20 32 53 1 4 2 9 4 12 3 8 3 185 -1 232
-3 41 -20 70 -63 103 -18 13 -19 13 -11 0 8 -13 7 -13 -8 -1 -9 7 -17 10 -17
6 0 -4 -6 -3 -12 2 -7 6 -47 11 -88 13 -130 4 -212 5 -214 3z"/>
<path d="M4848 6751 c-1 -5 -19 -11 -38 -12 -19 -2 -45 -10 -57 -17 -13 -8
-23 -11 -23 -7 0 4 -7 1 -17 -6 -9 -8 -18 -13 -20 -11 -2 1 -16 -4 -32 -12
-16 -9 -31 -12 -35 -9 -3 4 -6 1 -6 -6 0 -7 -4 -10 -9 -6 -6 3 -14 -3 -20 -12
-5 -10 -13 -17 -18 -17 -14 2 -53 -19 -53 -28 0 -5 -4 -6 -10 -3 -5 3 -10 1
-10 -6 0 -7 -3 -10 -6 -6 -4 3 -12 1 -20 -6 -32 -29 -44 -37 -44 -32 0 3 -6 0
-14 -7 -8 -7 -12 -16 -9 -20 2 -5 -5 -8 -16 -8 -12 0 -21 -5 -21 -12 0 -6 -3
-9 -6 -6 -3 3 -20 -9 -38 -28 -18 -19 -36 -30 -40 -26 -4 4 -6 2 -4 -3 2 -6
-22 -35 -52 -65 -31 -30 -71 -76 -88 -102 -18 -27 -37 -48 -41 -48 -5 0 -12
-11 -15 -25 -4 -14 -11 -25 -16 -25 -6 0 -10 -7 -10 -15 0 -8 -4 -15 -10 -15
-5 0 -10 -7 -10 -15 0 -8 -5 -15 -11 -15 -5 0 -7 -4 -4 -10 3 -5 1 -10 -5 -10
-6 0 -9 -4 -5 -9 3 -6 -3 -14 -12 -20 -10 -6 -15 -11 -10 -11 4 0 -4 -18 -18
-40 -14 -22 -25 -45 -25 -51 0 -6 -8 -23 -19 -37 -17 -26 -32 -60 -37 -91 -2
-8 -8 -17 -14 -21 -7 -4 -11 -10 -11 -14 2 -18 -12 -65 -18 -61 -16 9 -1 -66
23 -116 14 -30 25 -50 26 -44 0 5 8 -2 17 -15 10 -14 17 -28 15 -32 -1 -5 2
-8 8 -8 17 0 60 -43 53 -53 -4 -6 0 -8 10 -4 10 3 17 3 17 -1 0 -13 53 -13 83
-1 15 6 27 16 27 21 0 5 4 7 9 4 10 -7 132 110 123 118 -3 3 0 6 7 6 15 0 41
25 41 39 0 5 7 14 16 19 23 13 14 48 -11 44 -11 -2 -22 -8 -25 -13 -7 -11 -87
-39 -103 -36 -21 4 -36 31 -25 44 7 9 7 13 -2 13 -9 0 -9 4 -2 13 5 6 13 31
17 55 4 24 11 39 17 36 6 -4 8 2 6 12 -2 11 4 28 14 38 9 10 15 22 13 26 -3 5
2 10 10 14 8 3 15 12 15 21 0 8 5 15 10 15 6 0 10 6 10 14 0 8 3 16 8 18 4 2
27 28 52 58 38 45 90 99 191 195 9 8 21 15 28 15 7 0 10 4 6 9 -3 5 4 12 15
16 11 3 20 11 20 16 0 5 7 9 15 9 8 0 19 9 25 20 6 11 14 19 18 19 17 -3 51
14 46 22 -5 8 11 13 19 7 2 -2 11 5 21 15 10 9 26 17 37 17 10 0 19 5 19 11 0
5 5 7 10 4 6 -3 10 -1 10 6 0 7 3 9 7 6 3 -4 12 -2 20 4 8 8 13 8 13 1 0 -6 8
-9 18 -7 50 8 85 -50 78 -133 -2 -31 -5 -57 -6 -57 -2 0 -5 -14 -13 -58 -3
-15 -12 -41 -21 -57 -9 -19 -10 -28 -3 -23 9 5 8 2 0 -8 -7 -9 -15 -26 -17
-40 -3 -13 -5 -26 -6 -29 -2 -3 -2 -8 -1 -12 0 -5 -3 -8 -9 -8 -5 0 -10 -12
-10 -26 0 -14 -4 -23 -9 -20 -4 3 -7 -6 -5 -19 1 -14 -2 -23 -7 -19 -8 4 -10
-3 -9 -31 0 -3 -7 -20 -17 -38 -9 -17 -16 -36 -15 -41 2 -5 -5 -18 -15 -29
-10 -11 -12 -17 -6 -13 9 5 11 2 7 -8 -3 -9 -9 -14 -13 -12 -4 3 -7 -3 -8 -12
-1 -9 -7 -30 -14 -47 -7 -16 -13 -32 -14 -35 -1 -3 -8 -19 -14 -37 -7 -18 -12
-35 -11 -39 1 -4 -2 -10 -7 -13 -15 -11 -34 -52 -28 -61 4 -6 2 -10 -3 -10 -5
0 -13 -10 -17 -22 -4 -13 -8 -25 -9 -28 -2 -3 -9 -18 -16 -35 -7 -16 -13 -33
-12 -37 1 -5 -3 -8 -8 -8 -6 0 -10 -5 -10 -11 0 -5 -19 -49 -42 -97 -23 -48
-41 -90 -40 -94 1 -5 -3 -8 -8 -8 -6 0 -10 -9 -10 -20 0 -11 -4 -20 -8 -20 -4
0 -14 -16 -21 -35 -7 -19 -17 -35 -22 -35 -5 0 -8 -3 -7 -7 3 -12 -51 -121
-63 -128 -6 -4 -8 -13 -5 -20 2 -7 -2 -16 -10 -19 -8 -3 -14 -15 -14 -26 0
-11 -4 -20 -8 -20 -13 0 -33 -50 -26 -62 4 -7 2 -8 -4 -4 -7 4 -19 -13 -33
-44 -12 -27 -25 -50 -30 -50 -5 0 -8 -3 -8 -7 3 -15 -23 -73 -32 -73 -5 0 -8
-3 -8 -7 1 -5 0 -10 -1 -13 -1 -3 -3 -18 -4 -35 -2 -31 23 -65 57 -78 11 -4
15 -12 11 -18 -4 -7 -3 -9 4 -5 6 3 14 0 19 -7 4 -8 17 -19 28 -25 16 -8 23
-6 41 13 12 13 24 21 27 18 3 -2 4 7 3 21 -2 14 1 23 5 20 5 -3 9 2 9 10 0 9
5 16 10 16 6 0 10 9 10 20 0 11 5 20 11 20 5 0 8 4 5 9 -3 5 1 11 9 15 8 3 15
11 15 18 0 9 -3 8 -10 -2 -6 -9 -10 -10 -10 -3 0 7 6 16 13 20 19 13 38 53 31
65 -4 6 -3 8 3 5 6 -4 13 6 15 24 3 16 1 32 -4 35 -4 3 -8 14 -8 25 0 11 4 18
9 15 5 -4 7 3 4 14 -3 11 0 20 6 20 6 0 11 5 11 10 0 6 11 28 25 50 14 22 25
46 25 55 0 8 4 15 9 15 5 0 15 16 22 35 7 19 17 35 22 35 5 0 7 6 4 14 -3 8 1
17 9 20 9 3 12 10 9 16 -3 5 -2 10 3 10 9 0 25 37 23 53 -1 4 4 7 10 7 5 0 7
5 4 10 -3 6 -2 10 3 10 9 0 23 31 26 55 1 6 7 17 14 25 7 8 11 17 10 20 -2 3
7 19 19 36 12 17 20 34 17 37 -4 3 1 14 10 23 9 9 20 30 23 46 3 16 12 32 19
35 8 3 11 9 9 14 -3 5 1 19 10 32 8 13 12 27 8 30 -3 4 -1 7 5 7 7 0 11 3 10
8 -4 14 13 52 23 52 6 0 7 5 4 10 -4 6 5 31 19 55 14 25 21 43 15 40 -5 -4 -9
-1 -9 4 0 6 4 11 10 11 5 0 9 3 8 8 -1 4 5 21 12 37 14 33 21 53 22 73 1 6 4
12 8 12 4 0 13 25 20 55 7 30 17 55 21 55 4 0 6 9 4 20 -2 11 1 22 6 25 5 4 7
10 4 15 -3 5 -1 11 5 15 6 4 8 10 5 15 -3 5 -1 11 4 15 6 3 8 12 4 20 -3 8 0
15 6 15 6 0 10 3 9 8 -1 4 2 30 7 57 5 28 8 53 7 58 -1 4 2 7 8 7 5 0 8 10 6
23 -2 12 1 30 6 41 8 14 7 17 -4 10 -10 -6 -11 -5 -1 7 12 15 16 259 3 259 -3
0 -7 12 -8 26 -1 15 -7 33 -13 40 -6 8 -8 14 -4 14 5 0 0 9 -9 19 -10 11 -15
25 -11 30 3 6 -1 11 -9 11 -9 0 -16 7 -16 16 0 8 -4 13 -8 10 -5 -3 -15 4 -22
15 -8 10 -22 19 -32 19 -10 0 -18 4 -18 9 0 6 -18 10 -39 9 -22 0 -44 2 -49 6
-6 3 -12 2 -14 -3z"/>
<path d="M16315 6532 c3 -4 -9 -12 -27 -18 -18 -6 -32 -17 -30 -24 1 -6 -2 -9
-7 -6 -5 3 -30 -14 -56 -39 -25 -25 -51 -42 -57 -39 -6 4 -8 3 -5 -3 6 -10
-18 -47 -60 -90 -13 -13 -23 -28 -23 -33 0 -6 -4 -10 -10 -10 -5 0 -10 -6 -10
-14 0 -8 -3 -16 -7 -18 -12 -5 -53 -66 -53 -78 0 -5 -4 -10 -8 -10 -5 0 -16
-15 -25 -32 -9 -18 -28 -51 -41 -73 -13 -22 -37 -65 -53 -95 -15 -30 -32 -58
-36 -61 -5 -3 -9 -10 -9 -15 -2 -24 -11 -44 -20 -44 -5 0 -7 -4 -4 -9 4 -5 2
-11 -3 -13 -5 -1 -11 -12 -13 -23 -1 -11 -10 -26 -18 -33 -13 -12 -13 -12 0
-6 8 5 5 -4 -8 -20 -12 -16 -19 -32 -16 -37 3 -5 0 -9 -6 -9 -6 0 -9 -4 -5 -9
3 -5 0 -15 -7 -23 -13 -14 -20 -33 -21 -55 0 -7 -4 -13 -9 -13 -4 0 -8 -9 -8
-20 0 -11 -5 -20 -11 -20 -5 0 -8 -4 -4 -10 3 -5 1 -17 -4 -27 -9 -17 -21 -48
-26 -65 -2 -5 -4 -10 -5 -13 -1 -3 -4 -9 -5 -15 -1 -5 -3 -11 -5 -12 -1 -2 -3
-11 -6 -20 -6 -27 -10 -42 -17 -58 -18 -48 -26 -83 -21 -91 3 -5 0 -9 -5 -9
-6 0 -10 -3 -9 -7 3 -13 -14 -97 -24 -115 -6 -13 -5 -18 4 -18 9 0 10 -3 2 -8
-6 -4 -11 -22 -10 -40 1 -17 -1 -32 -4 -32 -8 0 -6 -164 3 -177 4 -6 2 -13 -5
-16 -9 -3 -10 -8 -3 -18 6 -8 10 -27 9 -44 -1 -16 4 -36 10 -44 9 -12 8 -13
-3 -6 -11 6 -12 5 -5 -6 5 -8 10 -25 12 -39 2 -13 8 -30 14 -37 6 -7 7 -13 3
-13 -4 0 -2 -7 5 -15 7 -9 10 -18 7 -21 -3 -4 3 -15 14 -27 10 -11 19 -27 19
-34 0 -7 5 -13 10 -13 6 0 10 -8 10 -17 0 -9 3 -14 6 -10 3 3 15 -3 27 -14 11
-10 27 -19 34 -19 22 0 28 -1 39 -11 6 -5 14 -6 17 -2 4 3 22 8 39 10 40 4 98
30 98 43 0 6 7 10 15 10 9 0 18 7 21 15 4 8 10 15 15 15 14 0 169 161 169 175
0 3 11 18 25 33 40 43 50 55 64 84 8 15 19 25 24 21 6 -3 7 -1 3 5 -4 6 3 21
14 32 12 12 20 29 19 38 -1 9 0 19 1 22 9 23 5 90 -6 94 -8 3 -11 0 -8 -8 3
-8 -4 -16 -16 -19 -12 -3 -19 -10 -16 -16 4 -5 -3 -13 -15 -16 -11 -4 -18 -9
-15 -12 3 -3 -13 -21 -34 -41 -22 -19 -37 -40 -33 -46 3 -6 3 -8 -1 -4 -4 3
-32 -18 -62 -47 -30 -30 -54 -51 -54 -47 0 4 -5 -1 -11 -10 -5 -10 -16 -18
-24 -18 -7 0 -15 -5 -17 -11 -3 -9 -37 -12 -93 -7 -8 1 -18 10 -21 21 -5 16
-8 17 -15 6 -7 -11 -9 -10 -9 4 0 9 -4 17 -8 17 -23 0 -56 117 -54 195 1 75 6
116 14 121 4 3 6 10 3 15 -4 5 1 12 9 15 9 3 16 12 16 20 0 8 7 14 15 14 8 0
14 3 13 8 -3 14 14 42 23 36 5 -3 8 -2 7 3 -4 14 34 63 45 56 6 -3 7 -1 3 5
-4 7 -2 12 4 12 6 0 8 5 5 10 -3 6 1 13 9 16 9 3 14 10 11 14 -3 4 2 11 11 14
8 3 12 10 9 16 -3 5 -2 10 3 10 6 0 25 24 43 53 18 28 39 56 46 60 8 5 11 12
8 18 -4 5 -1 9 5 9 6 0 9 4 6 9 -3 5 1 11 9 15 8 3 15 12 15 21 0 8 5 15 11
15 5 0 7 5 4 10 -3 6 1 13 9 16 9 3 14 9 11 14 -2 4 4 16 15 27 10 12 16 23
13 26 -3 3 4 16 16 28 11 12 18 26 15 31 -3 4 0 8 6 8 7 0 9 7 6 16 -3 8 -2
12 4 9 5 -3 12 6 16 20 3 14 10 25 15 25 5 0 9 9 9 19 0 11 6 26 13 33 7 7 14
15 14 18 1 18 18 56 30 68 11 12 11 17 1 30 -10 12 -10 14 0 8 7 -4 12 -1 12
8 0 9 5 16 10 16 6 0 9 3 8 8 -2 8 9 46 22 77 12 28 24 77 23 97 0 10 4 15 9
12 5 -4 9 2 7 12 -1 11 1 30 4 44 4 14 9 45 11 70 2 25 5 45 6 45 1 0 3 12 4
28 2 15 -1 27 -7 27 -5 0 -4 7 3 15 10 12 10 15 0 15 -10 0 -10 3 -1 14 8 9 8
16 2 20 -6 4 -8 13 -5 20 6 16 -28 59 -50 62 -10 1 -15 0 -11 -4z m-98 -348
c-3 -3 -2 -17 3 -30 5 -13 6 -24 1 -24 -5 0 -9 -11 -10 -25 -3 -48 -4 -55 -14
-55 -5 0 -7 -6 -4 -14 3 -7 2 -17 -3 -22 -4 -5 -15 -33 -25 -61 -9 -29 -21
-55 -26 -59 -5 -3 -7 -10 -4 -15 4 -5 2 -9 -2 -9 -5 0 -19 -27 -32 -60 -13
-33 -28 -60 -33 -60 -5 0 -7 -4 -4 -8 3 -5 -4 -19 -15 -30 -11 -12 -17 -22
-15 -22 3 0 -3 -15 -14 -32 -11 -18 -24 -43 -30 -55 -5 -13 -14 -23 -20 -23
-5 0 -9 -3 -8 -7 3 -12 -27 -65 -52 -90 -11 -13 -18 -23 -15 -23 6 0 -20 -32
-69 -84 -22 -22 -35 -34 -29 -26 5 8 8 25 7 38 0 12 3 22 9 22 6 0 8 3 4 6 -3
3 0 25 8 49 7 24 10 46 7 49 -3 4 -1 6 4 6 5 0 11 12 12 26 1 15 7 33 13 40 6
8 8 14 3 14 -4 0 -3 5 3 11 6 6 9 18 6 25 -3 8 0 14 5 14 10 0 29 65 24 83 -1
5 2 6 8 2 5 -3 10 3 10 14 0 12 4 21 9 21 6 0 8 9 6 20 -2 11 0 18 6 15 5 -4
9 -2 9 3 0 5 8 27 17 48 9 22 16 42 15 47 -1 4 3 7 8 7 6 0 10 5 10 12 0 6 8
20 18 31 12 15 13 18 2 12 -9 -5 -7 1 5 16 11 13 26 34 33 47 29 53 39 67 76
108 21 23 48 45 60 47 11 2 23 5 25 6 2 0 2 -2 -2 -5z"/>
<path d="M9394 5771 c-6 -6 -33 -13 -61 -15 -11 0 -19 -4 -16 -8 4 -7 -12 -12
-29 -9 -5 0 -8 -4 -8 -10 0 -5 -4 -8 -9 -4 -5 3 -12 1 -16 -5 -4 -6 -11 -8
-16 -5 -5 4 -9 1 -9 -5 0 -7 -7 -9 -16 -6 -10 4 -13 2 -8 -6 5 -7 0 -9 -14 -6
-12 4 -20 3 -18 0 5 -9 -15 -26 -34 -30 -8 -2 -18 -9 -22 -15 -4 -7 -8 -9 -8
-4 0 4 -10 1 -23 -8 -13 -8 -27 -12 -32 -8 -4 5 -5 3 -2 -3 3 -6 -20 -27 -53
-48 -33 -21 -57 -42 -54 -47 3 -5 -1 -6 -9 -3 -8 3 -17 -2 -20 -10 -4 -9 -14
-16 -22 -16 -9 0 -13 -4 -10 -10 3 -5 2 -10 -2 -10 -16 0 -193 -161 -193 -175
0 -3 -19 -25 -42 -50 -55 -57 -61 -64 -92 -113 -14 -23 -23 -42 -20 -42 4 0 1
-6 -5 -14 -11 -13 -21 -49 -24 -88 -1 -10 -7 -18 -14 -18 -7 0 -12 -3 -11 -7
3 -12 -76 -93 -91 -93 -7 0 -10 -4 -6 -9 3 -5 -4 -12 -15 -16 -11 -3 -20 -10
-20 -14 0 -13 -60 -52 -88 -57 -15 -3 -28 -7 -30 -9 -9 -9 -62 19 -67 36 -4
10 -11 19 -16 19 -5 0 -7 24 -4 58 7 82 7 82 18 82 5 0 7 6 4 14 -3 8 1 17 10
20 8 4 13 13 9 21 -3 9 0 15 10 15 8 0 12 5 9 10 -3 6 1 13 9 16 9 3 16 12 16
19 0 6 9 20 20 30 11 10 17 22 14 26 -3 5 2 9 11 9 9 0 14 4 11 9 -3 5 1 11 9
15 8 3 15 12 15 21 0 8 5 15 10 15 6 0 10 7 10 16 0 8 4 13 8 10 5 -3 24 21
42 52 19 31 37 59 40 62 9 8 10 51 1 45 -5 -2 -7 9 -5 25 2 19 -1 30 -9 30 -8
0 -7 4 3 10 11 7 12 10 2 10 -8 0 -12 6 -10 12 3 7 -1 19 -9 26 -7 8 -11 18
-7 23 3 5 -1 12 -10 15 -9 3 -12 12 -9 22 4 9 2 14 -2 9 -5 -4 -17 0 -27 10
-11 9 -18 11 -18 5 0 -7 -7 -12 -16 -12 -8 0 -13 -4 -10 -9 3 -5 -9 -16 -27
-25 -17 -8 -28 -16 -24 -16 13 0 -20 -30 -34 -30 -7 0 -10 -2 -7 -5 7 -7 -58
-75 -72 -75 -5 0 -9 -3 -7 -8 1 -4 -28 -38 -65 -76 -38 -38 -68 -73 -68 -77 0
-4 -9 -11 -20 -14 -11 -3 -20 -11 -20 -16 0 -15 -73 -84 -85 -81 -5 2 -7 1 -3
-3 4 -4 -4 -18 -18 -32 -13 -13 -24 -29 -24 -35 0 -6 -3 -9 -6 -5 -4 3 -18 -7
-33 -24 -63 -73 -140 -147 -145 -142 -3 4 -6 1 -6 -6 0 -15 -70 -85 -77 -77
-6 6 28 66 38 66 4 0 10 11 13 25 4 14 11 23 16 20 6 -3 10 3 10 14 0 12 5 21
10 21 6 0 10 6 10 13 0 7 9 23 19 34 11 12 17 23 14 27 -3 3 2 8 11 12 9 3 14
10 11 14 -2 4 4 18 15 30 11 13 20 27 20 32 0 4 0 10 0 13 0 3 9 14 20 25 11
11 20 27 20 35 0 8 5 15 11 15 5 0 7 5 4 10 -3 6 -1 10 5 10 6 0 9 4 6 9 -4 5
-2 11 2 13 10 4 75 138 75 156 0 6 3 12 7 12 16 0 17 133 1 138 -6 2 -9 8 -5
13 3 5 0 9 -5 9 -6 0 -11 6 -11 13 0 15 -6 17 -70 21 -30 2 -55 -3 -79 -16
-61 -35 -101 -65 -94 -71 3 -4 2 -7 -4 -7 -6 0 -44 -33 -86 -74 -41 -41 -78
-72 -83 -68 -4 4 -4 2 -1 -4 3 -6 -11 -29 -31 -51 -83 -90 -102 -113 -102
-123 0 -6 -3 -9 -7 -7 -5 3 -14 -1 -21 -9 -7 -8 -9 -14 -5 -14 4 0 -6 -13 -23
-28 -17 -15 -41 -43 -53 -62 -11 -19 -21 -31 -21 -27 0 5 -7 2 -15 -7 -8 -8
-15 -18 -15 -22 0 -4 -25 -31 -55 -60 -67 -65 -91 -66 -88 -3 3 59 5 69 15 69
5 0 6 5 3 10 -3 6 -2 10 4 10 9 0 19 20 22 45 1 6 12 20 26 33 13 12 21 22 17
22 -4 0 4 9 17 21 13 12 23 25 21 30 -1 5 5 9 15 9 9 0 14 3 10 6 -3 3 2 13
11 23 34 35 72 81 68 81 -3 0 6 12 19 26 14 15 25 31 25 36 0 6 10 24 22 41
12 17 16 27 8 22 -10 -6 -11 -4 -4 6 15 25 13 42 -6 59 -11 10 -16 20 -12 24
4 5 0 7 -8 6 -26 -4 -41 0 -36 9 7 11 -54 4 -69 -9 -6 -5 -15 -7 -18 -4 -3 3
-16 -3 -28 -15 -13 -12 -25 -21 -29 -21 -3 0 -24 -24 -45 -52 -22 -29 -43 -54
-47 -56 -5 -2 -8 -10 -8 -17 0 -7 -7 -15 -15 -19 -8 -3 -15 -12 -15 -20 0 -8
-11 -27 -24 -43 -13 -15 -24 -30 -24 -33 -1 -14 -26 -60 -34 -60 -4 0 -7 -3
-6 -7 2 -11 -35 -86 -47 -95 -5 -4 -6 -8 -1 -8 5 0 3 -6 -3 -13 -6 -8 -8 -17
-4 -20 3 -4 0 -7 -7 -7 -7 0 -11 -3 -7 -6 12 -12 -18 -71 -55 -106 -22 -21
-36 -38 -32 -38 5 0 -3 -8 -16 -17 -14 -10 -29 -17 -33 -15 -5 1 -6 -1 -3 -6
5 -9 -28 -42 -43 -42 -5 0 -12 -7 -15 -16 -3 -8 -10 -12 -16 -9 -5 3 -10 1
-10 -5 0 -16 -43 -30 -52 -16 -6 8 -8 8 -8 0 0 -33 -80 18 -87 55 -8 37 -8 99
-1 95 4 -3 8 7 8 21 0 17 4 24 12 19 7 -4 8 -3 4 4 -6 10 16 56 34 72 3 3 16
21 28 40 12 19 32 47 44 62 13 14 32 39 43 54 11 16 28 36 38 46 9 10 14 18
10 18 -5 0 -1 6 7 13 33 27 52 83 45 133 -3 27 -10 51 -16 52 -5 2 -7 8 -3 13
3 5 2 15 -3 22 -4 6 -8 19 -10 27 -1 8 -11 21 -22 29 -12 7 -21 21 -21 30 0
14 -2 14 -10 1 -9 -13 -10 -13 -10 0 -1 9 -5 6 -10 -7 -5 -13 -16 -23 -24 -23
-17 0 -67 -46 -58 -54 3 -3 0 -6 -7 -6 -6 0 -42 -32 -79 -71 -37 -39 -89 -94
-117 -122 -27 -28 -49 -55 -47 -60 1 -5 -2 -5 -8 -2 -7 4 -14 -2 -17 -14 -3
-11 -9 -19 -13 -16 -5 3 -11 -4 -15 -15 -3 -11 -13 -20 -21 -20 -8 0 -14 -3
-14 -7 0 -13 -78 -92 -84 -86 -3 4 -6 -1 -6 -10 0 -8 -9 -19 -21 -22 -11 -4
-18 -9 -16 -12 8 -7 -123 -138 -134 -135 -6 1 -8 -2 -5 -7 4 -5 -5 -18 -19
-29 -13 -11 -21 -23 -17 -27 4 -5 -1 -5 -10 -2 -11 4 -15 2 -12 -7 3 -7 -2
-13 -10 -13 -17 0 -9 28 11 40 7 4 13 13 13 18 0 12 60 100 75 111 5 4 6 10 2
14 -4 4 1 13 11 20 9 7 17 16 18 21 1 14 39 73 47 73 5 0 5 5 2 10 -3 6 -1 10
5 10 6 0 9 4 6 8 -3 5 6 20 19 34 13 14 21 28 18 31 -3 3 5 20 17 36 12 17 18
31 15 31 -4 0 1 7 9 16 9 8 14 20 11 25 -4 5 -2 9 3 9 5 0 12 8 15 18 3 9 15
42 27 72 21 52 27 128 12 140 -4 3 -13 17 -21 32 -8 15 -18 25 -23 22 -4 -3
-8 0 -8 5 0 7 -20 10 -50 9 -27 -2 -50 -6 -50 -10 0 -5 -9 -8 -20 -8 -11 0
-23 -7 -26 -15 -4 -8 -10 -12 -15 -9 -5 3 -9 0 -9 -7 0 -7 -3 -10 -6 -6 -3 3
-21 -10 -39 -29 -18 -19 -38 -34 -44 -34 -6 0 -11 -4 -11 -8 0 -12 -79 -92
-90 -92 -6 0 -10 -4 -10 -10 0 -5 -18 -28 -40 -50 -22 -22 -38 -40 -35 -40 3
0 -10 -17 -29 -37 -74 -80 -96 -106 -96 -115 0 -5 -4 -6 -10 -3 -5 3 -10 2
-10 -3 0 -9 -43 -62 -98 -118 -18 -19 -29 -34 -25 -34 4 -1 -3 -7 -17 -15 -14
-8 -21 -14 -16 -15 6 0 -5 -11 -23 -25 -27 -19 -38 -22 -53 -14 -20 11 -23 52
-5 77 5 6 6 12 3 12 -4 0 0 7 8 16 9 8 14 20 11 25 -4 5 -2 9 3 9 5 0 17 16
26 35 9 19 21 35 27 35 6 0 7 5 4 10 -3 6 -1 10 4 10 6 0 11 7 11 15 0 8 8 15
17 15 9 0 14 3 11 6 -3 3 6 19 20 35 15 16 39 42 53 58 15 16 24 32 21 35 -3
3 -1 6 5 6 5 0 18 16 29 35 10 19 22 35 26 35 5 0 8 9 8 20 0 11 5 20 10 20 6
0 10 16 10 35 0 20 -5 35 -12 35 -6 0 -8 3 -5 7 11 10 -13 32 -29 26 -8 -3
-14 0 -14 7 0 6 -4 9 -9 5 -5 -3 -12 -1 -16 4 -6 11 -60 -4 -84 -23 -12 -9
-13 -8 -7 4 4 8 -4 3 -18 -12 -14 -16 -30 -28 -36 -28 -5 0 -10 -5 -10 -10 0
-12 -15 -32 -42 -58 -10 -9 -18 -22 -18 -29 0 -7 -4 -13 -10 -13 -5 0 -10 -7
-10 -15 0 -8 -3 -15 -7 -15 -8 0 -46 -59 -47 -73 -1 -4 -7 -11 -14 -16 -7 -4
-14 -17 -15 -29 0 -12 -3 -19 -6 -17 -6 7 -41 -53 -41 -70 0 -8 -5 -15 -12
-15 -6 0 -8 -3 -5 -7 4 -3 3 -11 -2 -17 -15 -19 -50 -130 -53 -166 -1 -19 -7
-38 -13 -42 -7 -5 -7 -8 0 -8 12 0 13 -55 2 -66 -4 -4 -7 -12 -7 -18 0 -6 4
-5 9 3 5 8 9 -4 9 -33 1 -26 4 -51 8 -57 3 -6 8 -25 11 -42 3 -17 11 -44 19
-58 7 -15 10 -29 7 -33 -4 -3 -1 -6 5 -6 7 0 12 -7 12 -15 0 -8 5 -15 10 -15
6 0 10 -5 10 -11 0 -33 67 -50 93 -24 8 8 17 11 21 8 3 -4 6 0 6 8 0 9 8 24
19 35 10 11 22 30 25 42 4 12 12 20 17 17 5 -4 9 1 9 9 0 28 1 31 16 39 8 4
14 15 14 22 0 8 5 15 10 15 6 0 10 6 10 13 0 8 9 22 20 32 11 10 17 21 15 25
-3 4 2 11 11 14 9 4 14 9 11 12 -5 5 11 25 77 97 16 18 29 34 28 37 -1 3 14
23 33 45 76 89 84 99 78 108 -3 6 -2 8 3 5 5 -3 15 0 22 8 7 8 10 14 7 14 -4
0 6 13 22 29 15 16 31 27 34 25 4 -2 9 3 13 11 8 21 53 19 60 -2 10 -32 -10
-97 -26 -87 -7 4 -8 2 -4 -4 9 -15 -12 -54 -24 -47 -6 3 -7 -1 -4 -10 4 -8 0
-22 -7 -31 -7 -9 -14 -23 -15 -32 -2 -8 -6 -18 -11 -21 -4 -3 -9 -13 -11 -21
-2 -8 -11 -24 -20 -34 -13 -15 -14 -17 -2 -11 11 6 10 3 -2 -12 -10 -11 -18
-25 -18 -31 0 -7 -4 -12 -9 -12 -6 0 -8 -9 -6 -20 2 -11 -3 -24 -13 -30 -9 -5
-13 -10 -8 -10 5 0 3 -7 -4 -15 -7 -8 -9 -15 -6 -15 4 0 1 -10 -6 -22 -14 -27
-19 -44 -21 -75 0 -13 -4 -23 -7 -23 -10 0 -8 -34 2 -47 6 -7 5 -14 -2 -18 -8
-5 -7 -12 3 -23 8 -10 17 -25 20 -34 4 -10 14 -18 24 -19 10 0 32 -1 50 -2 17
-1 29 1 26 6 -2 4 0 7 6 7 14 0 116 101 124 123 4 9 11 17 17 17 5 0 10 7 10
15 0 8 4 15 9 15 5 0 23 21 39 48 17 26 40 55 52 65 11 10 18 23 14 29 -4 7
-3 8 4 4 7 -4 12 -3 12 2 0 5 16 26 35 46 19 21 35 40 35 44 0 4 14 20 30 35
17 16 30 33 30 38 0 6 5 7 10 4 6 -3 10 -2 10 3 0 15 131 147 143 144 7 -2 9
-1 5 3 -9 9 33 56 44 49 4 -3 8 1 8 9 0 15 29 32 38 22 3 -3 -1 -5 -8 -5 -7 0
-11 -3 -7 -6 3 -3 -8 -28 -24 -55 -16 -28 -29 -54 -29 -58 0 -5 -7 -14 -15
-21 -8 -7 -15 -20 -15 -30 0 -10 -7 -20 -15 -24 -8 -3 -15 -10 -15 -16 0 -6 6
-8 13 -4 12 7 -21 -36 -36 -47 -5 -3 -8 -9 -8 -13 3 -15 -12 -55 -18 -51 -4 2
-8 -2 -9 -10 -1 -8 -3 -22 -4 -30 -1 -8 -5 -15 -9 -15 -7 0 -19 -36 -18 -54 1
-5 -4 -12 -10 -15 -5 -4 -12 -19 -15 -34 -2 -14 -8 -31 -11 -37 -34 -55 -9
-220 33 -220 9 0 12 -3 8 -7 -9 -10 45 -31 67 -25 9 2 17 8 17 12 0 4 11 6 25
5 14 -2 23 1 19 6 -3 5 2 9 11 9 9 0 29 9 45 20 15 11 30 17 34 15 3 -3 4 -2
2 1 -3 4 18 25 47 47 29 23 69 58 90 79 21 21 42 38 47 38 6 0 10 6 10 14 0 8
9 18 20 21 11 3 20 10 20 15 0 4 25 34 56 65 42 42 59 53 65 44 4 -7 3 -19 -3
-26 -6 -7 -7 -13 -2 -13 5 0 10 -16 11 -36 1 -20 7 -41 12 -48 6 -7 8 -16 5
-19 -4 -3 1 -22 10 -42 9 -19 14 -40 11 -45 -3 -6 1 -10 10 -10 9 0 14 -4 10
-9 -3 -5 6 -21 19 -34 14 -14 23 -27 20 -29 -2 -3 2 -5 9 -6 6 0 22 -3 35 -6
13 -3 20 -1 17 5 -4 5 1 9 9 9 9 0 16 7 16 16 0 8 5 12 10 9 6 -3 10 1 10 9 0
9 5 16 12 16 6 0 8 3 5 6 -4 4 3 15 15 25 11 11 17 19 13 19 -4 0 0 9 10 20
10 11 15 20 11 20 -4 0 2 10 14 22 11 12 26 34 32 50 7 15 16 28 20 28 5 0 8
6 8 14 0 8 7 16 15 20 8 3 15 11 15 18 0 7 16 30 35 51 19 21 35 42 35 47 0 5
8 15 18 22 10 7 27 26 38 43 20 31 30 43 77 94 16 17 25 31 20 31 -4 1 3 7 17
15 14 8 21 14 15 15 -5 0 10 18 34 40 24 22 47 38 51 35 5 -3 10 -1 12 5 5 15
26 -3 28 -25 5 -41 -1 -62 -20 -83 -12 -12 -18 -22 -15 -22 4 0 -4 -14 -16
-32 -13 -17 -16 -28 -8 -23 9 5 8 1 -3 -12 -10 -11 -18 -25 -18 -31 0 -7 -5
-12 -12 -12 -6 0 -8 -3 -5 -6 4 -4 -3 -20 -15 -37 -13 -18 -16 -27 -7 -22 8 5
5 -1 -5 -13 -11 -12 -15 -22 -11 -22 4 0 1 -8 -8 -17 -8 -10 -16 -22 -16 -28
-2 -25 -13 -45 -22 -40 -5 3 -6 0 -3 -8 3 -8 -1 -21 -8 -28 -7 -8 -13 -24 -12
-36 1 -13 -2 -23 -6 -23 -8 0 -9 -5 -15 -82 -4 -38 -2 -58 5 -58 6 0 9 -4 6
-9 -3 -5 2 -19 12 -31 13 -16 29 -22 57 -22 22 0 41 5 43 11 2 6 7 9 12 6 9
-5 95 77 119 115 8 14 21 29 28 33 8 5 11 12 8 17 -3 4 2 11 11 14 8 3 12 11
9 16 -4 6 -3 9 2 8 4 -2 9 1 10 5 1 4 8 14 15 21 7 8 27 31 43 51 17 20 41 48
55 63 14 14 25 29 25 32 0 3 4 4 8 2 5 -1 6 2 3 6 -3 5 6 18 19 28 14 10 25
22 25 27 0 4 12 20 28 34 15 14 26 29 25 34 -2 4 6 11 17 14 11 4 20 13 20 21
0 8 5 12 10 9 6 -3 10 1 10 9 0 15 12 21 33 17 5 -1 6 3 2 9 -3 6 1 17 9 26 9
8 16 12 16 8 0 -4 10 6 22 21 37 47 64 71 77 67 7 -2 4 -14 -10 -33 -11 -16
-17 -29 -13 -29 4 0 1 -8 -7 -17 -8 -10 -24 -36 -34 -58 -11 -22 -23 -42 -28
-43 -4 -2 -5 -7 -2 -12 3 -5 -1 -14 -8 -22 -7 -7 -19 -29 -27 -48 -8 -19 -17
-37 -21 -40 -4 -3 -9 -14 -11 -25 -1 -11 -7 -23 -13 -27 -5 -4 -11 -11 -11
-15 -1 -4 -5 -17 -8 -28 -4 -11 -6 -24 -6 -29 1 -5 -3 -12 -9 -16 -11 -6 -22
-39 -24 -72 -1 -10 -5 -18 -10 -18 -4 0 -5 -4 -2 -10 3 -5 2 -10 -2 -10 -5 0
-8 -29 -8 -65 -1 -36 4 -65 9 -65 5 0 6 -3 3 -6 -9 -10 32 -64 49 -64 8 0 14
-8 15 -17 0 -11 3 -13 6 -6 3 9 10 10 23 3 13 -7 21 -7 25 0 4 6 11 8 16 5 5
-4 9 -2 9 4 0 6 7 8 15 5 8 -4 15 -2 15 2 0 5 15 16 33 23 17 8 38 22 45 30
11 13 12 13 6 1 -4 -9 2 -6 13 5 25 25 71 64 79 67 12 5 179 172 207 207 15
18 27 30 27 25 0 -5 8 3 18 17 14 22 19 24 29 14 10 -11 10 -15 0 -19 -8 -3
-9 -7 -2 -13 6 -4 10 -18 9 -30 -1 -13 3 -23 8 -23 5 0 7 -4 3 -9 -3 -5 -1
-12 4 -15 5 -4 8 -14 7 -23 -2 -10 3 -24 11 -31 7 -8 11 -18 8 -23 -4 -5 -1
-9 5 -9 6 0 8 -4 5 -10 -3 -5 -1 -10 4 -10 6 0 11 -3 10 -7 -2 -16 14 -53 22
-53 5 0 9 -9 9 -21 0 -11 4 -17 10 -14 5 3 15 -5 21 -19 7 -14 16 -23 20 -20
5 3 9 1 9 -4 0 -5 12 -17 26 -27 15 -9 23 -12 20 -6 -4 7 0 11 12 11 10 0 22
3 26 8 4 4 12 8 17 8 5 1 14 2 19 3 6 0 10 8 10 17 0 8 4 13 10 9 5 -3 27 12
50 35 22 22 37 40 33 40 -4 0 3 7 15 16 12 8 20 20 17 25 -4 5 2 9 11 9 10 0
15 3 11 6 -3 3 9 19 26 36 18 16 25 27 17 23 -8 -4 -6 1 4 9 11 9 24 16 30 16
5 0 7 3 3 6 -3 4 4 15 16 26 12 11 15 16 7 12 -8 -3 -1 6 15 22 17 16 33 34
35 39 3 5 8 9 13 8 4 -2 7 2 7 8 0 7 8 18 18 26 10 8 11 11 2 7 -8 -4 -2 6 15
24 36 38 48 41 35 8 -5 -13 -6 -27 -3 -30 4 -3 1 -6 -5 -6 -6 0 -9 -9 -7 -20
2 -11 0 -20 -4 -20 -4 0 -8 -6 -9 -12 0 -7 -3 -24 -6 -38 -5 -21 -11 -52 -20
-105 -1 -5 -4 -14 -7 -20 -3 -5 -4 -27 -3 -48 1 -20 -2 -40 -7 -43 -5 -3 -4
-13 1 -22 10 -19 24 -73 22 -84 -1 -5 3 -8 10 -8 6 0 9 -3 5 -6 -9 -9 21 -36
33 -29 5 3 10 1 10 -5 0 -7 15 -9 43 -5 23 3 48 6 55 7 6 1 12 5 12 10 0 5 5
6 10 3 6 -3 10 -1 10 4 0 6 7 11 15 11 8 0 15 5 15 10 0 6 6 10 14 10 8 0 17
7 20 16 4 9 9 14 13 11 3 -3 25 14 49 38 24 25 49 45 55 45 7 0 10 2 7 5 -3 3
14 25 38 50 24 24 44 50 44 56 0 7 3 10 6 6 7 -6 44 29 44 42 0 4 11 16 24 27
14 10 23 21 20 25 -2 5 5 13 16 19 11 6 18 15 15 19 -3 5 2 11 10 15 16 6 17
2 17 -56 0 -21 4 -38 9 -38 5 0 8 -3 7 -7 -1 -5 2 -28 6 -53 5 -25 8 -48 7
-52 0 -5 4 -8 9 -8 5 0 9 -3 9 -7 -4 -19 25 -74 42 -84 11 -5 17 -14 14 -19
-5 -8 5 -8 44 2 20 4 56 43 83 87 12 20 28 40 35 44 7 5 11 12 8 18 -4 5 -1 9
5 9 6 0 8 5 5 10 -3 6 1 10 9 10 9 0 15 3 13 8 -4 13 77 131 87 125 5 -4 6 -1
2 5 -3 6 2 18 11 28 10 10 18 20 18 24 0 9 53 75 98 121 21 21 36 39 33 39 -2
0 18 24 47 53 28 28 55 51 60 49 5 -1 6 2 2 7 -3 6 10 21 30 34 19 13 32 27
28 30 -3 4 3 7 15 7 21 0 21 -2 -10 -62 -18 -35 -31 -65 -29 -67 2 -2 -4 -8
-13 -13 -9 -5 -16 -17 -16 -26 0 -10 -8 -29 -17 -42 -10 -14 -19 -32 -20 -40
-1 -8 -7 -16 -13 -18 -5 -2 -8 -7 -5 -12 3 -5 -2 -16 -11 -24 -8 -9 -13 -16
-10 -16 3 0 -3 -17 -14 -37 -28 -56 -43 -96 -41 -110 1 -7 -2 -13 -8 -13 -5 0
-8 -11 -6 -25 1 -14 -2 -25 -7 -25 -6 0 -8 -6 -5 -13 3 -8 2 -19 -3 -26 -4 -7
-4 -28 0 -46 5 -21 3 -38 -3 -44 -8 -8 -8 -11 1 -11 6 0 9 -7 6 -15 -4 -8 -1
-15 5 -15 6 0 10 -3 9 -7 -4 -17 14 -49 39 -67 17 -13 24 -14 19 -5 -5 10 -4
10 6 -1 14 -17 69 -21 79 -7 3 5 14 9 23 11 10 1 21 8 25 15 5 7 12 12 16 11
4 -1 18 7 31 19 13 12 29 21 35 21 5 0 8 4 5 9 -3 5 6 16 20 26 14 9 53 46 87
81 34 36 83 88 110 115 26 27 47 54 47 59 0 6 7 10 16 10 8 0 13 3 11 8 -3 4
1 13 9 20 12 11 14 9 14 -12 0 -14 4 -27 9 -30 5 -4 8 -14 7 -24 -2 -9 3 -37
11 -62 8 -25 16 -54 18 -64 3 -11 10 -23 16 -26 6 -4 10 -11 10 -16 -1 -5 6
-17 14 -27 8 -9 15 -22 15 -28 0 -5 5 -7 10 -4 6 3 10 -1 10 -10 0 -9 4 -14 9
-10 5 3 15 -1 23 -8 16 -15 78 -19 96 -5 6 6 12 7 12 2 0 -5 5 -1 11 9 6 9 14
15 20 12 5 -4 9 1 9 9 0 9 6 16 13 16 6 0 34 27 61 60 28 33 54 60 59 60 5 0
7 7 3 15 -3 9 0 15 9 15 8 0 15 6 15 14 0 8 10 22 22 30 12 9 19 16 15 16 -5
0 6 20 24 45 18 25 37 45 42 45 5 0 7 7 3 15 -3 8 -2 15 3 15 8 0 52 61 62 85
2 5 14 20 27 34 12 13 22 30 22 36 0 7 7 16 16 19 14 5 15 4 4 -9 -7 -8 -9
-15 -4 -15 4 0 3 -5 -4 -12 -7 -7 -12 -20 -12 -31 0 -11 -4 -15 -12 -11 -7 4
-8 3 -4 -4 4 -7 0 -26 -8 -44 -16 -38 -30 -81 -27 -87 2 -2 -3 -7 -9 -11 -6
-4 -13 -18 -15 -31 -7 -43 -11 -58 -18 -65 -4 -4 -7 -16 -7 -26 0 -13 -4 -17
-12 -12 -10 6 -10 5 -1 -8 7 -8 10 -18 6 -21 -9 -10 -10 -137 -1 -137 4 0 7
-3 7 -7 -3 -19 3 -31 29 -60 24 -27 32 -30 77 -27 64 3 83 8 97 22 7 7 18 12
25 12 7 0 13 4 13 9 0 5 16 19 35 32 19 13 35 30 35 37 0 7 4 11 9 8 5 -3 23
10 40 29 17 19 35 35 41 35 6 0 9 4 6 8 -6 10 39 52 56 52 6 0 8 3 5 7 -4 3
12 23 35 45 23 21 38 38 34 38 -4 0 11 16 34 35 23 19 38 35 33 35 -4 0 -1 6
8 13 20 16 32 47 17 47 -7 0 -7 4 1 14 9 11 9 15 -1 19 -8 4 -9 8 -3 14 6 4
11 14 13 21 4 20 -37 -4 -80 -48 -20 -21 -39 -35 -42 -32 -3 3 -6 -1 -6 -8 0
-7 -2 -11 -6 -8 -3 3 -21 -9 -40 -28 -20 -18 -49 -39 -65 -46 -16 -7 -29 -17
-29 -21 0 -5 -4 -5 -10 -2 -5 3 -10 1 -10 -4 0 -6 -5 -11 -11 -11 -5 0 -7 5
-3 11 4 8 1 8 -12 1 -21 -10 -41 -6 -64 14 -12 10 -15 29 -13 70 1 32 6 60 10
63 8 6 15 27 16 49 0 6 3 12 7 12 3 0 6 10 7 22 1 11 7 24 13 28 7 4 12 11 12
16 3 27 12 43 22 37 6 -3 8 -3 4 2 -9 10 19 65 33 65 6 0 9 7 5 15 -3 8 -2 15
2 15 5 0 16 16 25 36 10 19 21 32 27 29 5 -3 7 4 5 15 -2 11 -1 20 3 20 4 0
16 12 26 27 12 16 14 23 5 18 -14 -8 18 34 35 46 5 4 5 12 1 19 -5 9 -4 11 3
6 8 -5 12 1 12 15 0 12 3 19 7 16 8 -9 63 114 57 125 -3 4 -1 8 5 8 7 0 7 8 1
25 -6 15 -6 26 1 30 5 4 6 11 3 17 -4 6 -8 21 -10 32 -5 47 -15 64 -36 58 -11
-3 -24 1 -29 9 -6 10 -9 10 -9 2 0 -7 -7 -13 -16 -13 -8 0 -12 -4 -9 -10 6 -9
-8 -14 -27 -11 -5 0 -8 -4 -8 -10 0 -15 -26 -39 -34 -32 -5 5 -7 -2 -9 -27 0
-8 -37 -41 -37 -33 0 4 -12 -10 -27 -32 -15 -22 -35 -47 -45 -56 -10 -9 -15
-19 -11 -23 3 -3 -1 -6 -11 -6 -9 0 -15 -4 -11 -9 3 -6 -3 -14 -12 -20 -10 -6
-14 -11 -9 -11 5 0 -1 -9 -13 -19 -12 -11 -22 -23 -22 -28 0 -4 -8 -18 -19
-30 -10 -12 -16 -24 -13 -27 4 -3 2 -6 -4 -6 -6 0 -16 -14 -23 -30 -7 -17 -21
-35 -31 -41 -11 -5 -19 -15 -19 -22 -1 -15 -67 -87 -80 -87 -6 0 -10 -7 -10
-16 0 -8 -4 -12 -10 -9 -5 3 -10 1 -10 -5 0 -13 -27 -42 -34 -38 -3 2 -16 -12
-29 -29 -13 -18 -27 -30 -30 -27 -3 4 -12 -5 -18 -20 -7 -14 -19 -26 -27 -26
-9 0 -12 -3 -9 -7 4 -3 -7 -16 -23 -28 -16 -12 -27 -25 -23 -28 3 -4 0 -7 -9
-7 -8 0 -21 -11 -28 -25 -7 -13 -17 -22 -22 -19 -4 3 -8 0 -8 -6 0 -6 -4 -8
-10 -5 -5 3 -10 -1 -10 -9 0 -14 -11 -18 -36 -15 -4 0 -11 -5 -16 -13 -8 -10
-11 -10 -15 0 -2 6 -9 10 -13 7 -5 -3 -13 14 -17 37 -5 24 -5 44 -1 46 4 2 5
15 2 29 -5 16 -3 24 3 20 6 -4 9 4 7 19 -1 14 3 36 10 49 15 29 62 75 77 75 6
0 8 4 5 8 -2 4 9 17 25 27 16 11 29 23 29 27 0 4 26 34 58 66 31 33 58 63 58
67 1 4 16 22 32 41 17 19 28 34 25 34 -2 0 3 7 11 16 9 8 16 23 16 32 0 15 2
15 10 2 8 -12 10 -11 10 8 0 12 5 22 10 22 6 0 9 3 9 8 -3 13 25 72 34 72 4 0
5 5 2 10 -3 6 -1 10 6 10 8 0 9 3 0 13 -6 8 -9 16 -6 19 3 3 -2 11 -12 19 -15
12 -16 12 -8 -1 8 -13 6 -13 -8 -2 -9 8 -21 11 -27 7 -5 -3 -10 2 -11 12 0 11
-3 13 -6 5 -2 -6 -10 -9 -16 -5 -18 11 -51 11 -64 1 -9 -7 -13 -7 -13 0 0 14
-59 -7 -84 -30 -11 -10 -24 -18 -28 -18 -5 0 -7 -4 -4 -9 3 -5 -1 -11 -9 -15
-8 -3 -15 -12 -15 -21 0 -8 -4 -15 -10 -15 -5 0 -16 -13 -25 -30 -8 -16 -29
-43 -45 -60 -16 -16 -26 -30 -22 -30 4 0 -2 -7 -12 -15 -11 -8 -16 -15 -10
-15 5 0 0 -7 -10 -15 -11 -8 -16 -15 -10 -15 5 0 4 -4 -2 -8 -14 -9 -63 -86
-94 -144 -14 -27 -29 -48 -33 -48 -5 0 -6 -4 -3 -8 3 -5 -1 -20 -9 -35 -7 -14
-11 -28 -7 -31 3 -3 1 -6 -5 -6 -6 0 -9 -11 -8 -25 2 -14 -1 -25 -6 -25 -4 0
-6 -6 -3 -14 3 -7 -2 -16 -11 -20 -9 -3 -13 -10 -10 -16 3 -5 -3 -10 -15 -10
-12 0 -18 -4 -15 -10 3 -5 -5 -15 -19 -21 -14 -7 -23 -17 -19 -22 4 -6 0 -8
-11 -4 -9 4 -15 3 -13 -1 5 -9 -29 -42 -36 -35 -3 2 -10 -5 -17 -16 -6 -12
-17 -21 -25 -21 -8 0 -15 -4 -15 -9 0 -14 -89 -52 -113 -49 -12 2 -27 12 -34
23 -16 26 -16 77 0 94 9 11 9 12 0 7 -9 -5 -11 -2 -7 8 3 9 10 16 14 16 5 0 7
9 5 20 -2 11 -1 20 3 20 11 0 32 52 26 62 -3 5 0 7 8 6 7 -2 12 3 11 10 -2 6
2 12 7 12 6 0 10 7 10 15 0 7 6 18 14 22 8 4 14 10 13 13 -1 8 57 95 70 103 7
4 13 15 13 22 0 8 5 15 12 15 6 0 9 3 5 6 -3 3 5 16 19 29 13 12 24 28 24 34
0 6 7 14 15 17 8 4 15 11 15 16 0 6 8 17 18 25 11 10 12 12 2 8 -8 -4 -6 1 4
9 11 9 17 16 14 16 -4 0 -3 13 2 30 5 19 5 32 -2 36 -6 4 -5 10 3 15 12 7 12
9 0 9 -7 0 -11 6 -8 15 4 8 2 17 -2 20 -5 3 -8 18 -7 34 1 17 -2 28 -6 25 -4
-3 -8 2 -8 10 0 9 0 18 0 21 0 3 -8 13 -17 23 -19 20 -51 20 -87 -1 -12 -6
-25 -11 -29 -12 -5 0 -15 -9 -23 -19 -8 -11 -14 -16 -14 -11 0 4 -9 -2 -20
-15 -11 -13 -20 -20 -20 -17 0 4 -16 -9 -35 -29 -19 -19 -35 -31 -35 -28 0 4
-13 -7 -28 -24 -16 -18 -32 -32 -36 -32 -4 0 -23 -18 -44 -41 -93 -102 -111
-119 -121 -119 -6 0 -10 -3 -8 -8 2 -8 -66 -96 -97 -124 -10 -10 -15 -18 -10
-18 5 0 4 -4 -1 -8 -6 -4 -26 -27 -45 -52 -19 -25 -38 -46 -42 -48 -5 -2 -8
-8 -8 -13 0 -5 -15 -26 -32 -45 -18 -20 -37 -42 -41 -50 -4 -8 -19 -14 -33
-14 -14 0 -22 4 -19 10 3 6 2 10 -2 10 -5 0 -9 9 -10 20 -1 11 2 20 6 20 4 0
8 7 8 15 0 15 43 106 54 115 4 3 17 24 28 47 12 23 29 44 37 47 8 3 14 10 14
17 0 6 10 24 23 39 12 15 31 40 42 56 11 15 32 40 47 55 14 15 23 30 20 33 -3
3 0 6 7 6 7 0 9 5 6 10 -3 6 -1 10 5 10 6 0 8 5 5 10 -3 6 -2 10 3 10 6 0 10
16 10 35 0 27 -6 39 -26 53 -15 10 -34 18 -42 17 -8 0 -18 4 -22 10 -5 7 -8 6
-8 -1 0 -6 -12 -10 -27 -8 -18 2 -36 -5 -50 -18 -13 -12 -23 -19 -23 -15 0 4
-15 -8 -33 -26 -19 -18 -32 -35 -30 -39 2 -5 0 -8 -4 -8 -5 0 -22 -20 -37 -45
-16 -24 -33 -42 -38 -39 -4 3 -8 2 -7 -3 3 -13 -12 -44 -42 -89 -16 -23 -25
-44 -22 -48 4 -3 2 -6 -3 -6 -14 0 -92 -167 -101 -215 -6 -34 -12 -47 -21 -41
-5 3 -15 -6 -22 -19 -7 -14 -20 -25 -27 -25 -7 0 -16 -7 -19 -15 -4 -8 -12
-15 -19 -15 -8 0 -16 -9 -20 -19 -4 -12 -12 -18 -21 -14 -7 3 -14 0 -14 -6 0
-11 -60 -47 -72 -43 -5 1 -8 -3 -8 -8 0 -6 -11 -10 -24 -10 -13 0 -27 -6 -29
-12 -4 -10 -6 -10 -6 0 -1 6 -13 12 -29 12 -29 0 -55 23 -67 59 -6 21 -8 104
-2 131 5 25 40 95 51 102 7 5 7 8 1 8 -6 0 -6 3 1 8 14 10 59 85 56 95 -1 4 2
7 7 7 5 0 16 12 26 26 12 18 13 24 4 19 -8 -3 -6 0 4 8 9 8 17 19 17 26 0 6 5
11 11 11 5 0 8 4 5 9 -3 5 1 22 9 37 10 20 11 32 3 41 -6 7 -8 13 -4 13 3 0
-8 37 -25 82 -17 45 -27 79 -23 75 4 -4 12 0 18 9 6 8 21 16 33 17 12 0 19 5
17 9 -3 4 0 8 7 8 18 0 5 96 -16 120 -10 11 -14 20 -10 20 5 0 -6 12 -24 27
-25 21 -45 28 -78 28 -24 1 -46 -1 -49 -4z m-26 -339 c-12 -20 -25 -39 -28
-42 -3 -3 -11 -17 -17 -32 -7 -16 -17 -28 -22 -28 -5 0 -11 -10 -15 -23 -3
-13 -18 -37 -34 -53 -16 -17 -27 -35 -24 -42 2 -7 -3 -15 -12 -18 -9 -3 -16
-13 -16 -20 0 -8 -7 -17 -15 -20 -8 -4 -15 -12 -15 -18 0 -7 -10 -23 -22 -36
-13 -14 -23 -27 -23 -30 0 -6 -33 -46 -59 -71 -11 -11 -17 -19 -13 -19 4 0
-30 -36 -74 -80 -45 -44 -85 -80 -91 -80 -5 0 -6 -5 -3 -10 4 -6 3 -9 -2 -8
-14 4 -83 -48 -75 -57 4 -4 -1 -5 -10 -2 -10 3 -20 2 -23 -4 -4 -5 -14 -8 -23
-7 -21 4 -53 38 -46 49 3 5 1 9 -4 9 -11 0 -9 112 2 155 5 17 16 38 25 49 9
10 15 21 13 25 -1 3 6 15 15 26 10 11 17 23 15 28 -1 4 5 7 13 7 9 0 20 11 25
24 5 13 14 27 21 32 8 5 9 3 4 -6 -4 -7 10 4 31 26 22 21 63 54 92 73 28 18
52 38 52 44 0 6 3 7 7 4 3 -4 22 5 41 20 20 15 32 20 27 12 -4 -8 5 -2 19 14
15 15 31 25 37 22 5 -4 9 -2 9 4 0 10 39 27 53 23 5 -1 6 2 2 7 -3 6 6 13 20
17 14 3 22 11 18 17 -4 6 0 8 11 4 10 -4 19 -1 22 8 4 8 9 13 13 11 3 -2 24 6
45 19 51 31 62 23 34 -23z"/>
<path d="M12684 5475 c-5 -13 -9 -14 -15 -3 -5 8 -9 8 -9 2 0 -6 -15 -15 -32
-19 -31 -7 -37 -9 -55 -15 -5 -1 -12 -2 -16 -1 -5 1 -6 -3 -3 -8 4 -5 -2 -12
-12 -16 -18 -5 -80 -67 -84 -82 -1 -5 -10 -17 -20 -27 -10 -11 -18 -26 -18
-33 0 -7 -4 -13 -10 -13 -12 0 0 -32 18 -45 7 -6 38 -10 68 -10 30 1 54 -3 54
-8 0 -5 6 -4 14 2 10 9 16 9 21 1 4 -6 12 -7 18 -3 7 5 60 8 119 8 58 0 105 2
103 5 -2 3 25 6 58 7 34 2 70 3 80 3 9 1 15 5 12 9 -2 5 8 7 23 5 14 -1 32 2
39 8 9 8 13 7 13 -3 0 -8 6 -5 15 7 8 10 15 15 15 11 0 -4 24 8 54 27 30 19
57 31 61 28 4 -4 5 -2 3 5 -1 6 17 30 42 52 24 23 40 41 35 41 -5 0 -1 6 8 13
32 23 8 38 -83 51 -9 1 -21 5 -28 10 -7 4 -12 2 -12 -6 0 -8 -3 -9 -8 -3 -6 9
-28 11 -42 5 -13 -7 -120 -6 -120 1 0 4 -13 4 -30 -1 -16 -5 -30 -5 -30 -1 0
10 -197 7 -207 -2 -3 -4 -12 -2 -19 4 -11 9 -15 7 -20 -6z"/>
</g>
</svg>
