<?xml version="1.0" encoding="UTF-8"?>
<svg viewBox="0 0 744.09448819 1052.3622047" xmlns="http://www.w3.org/2000/svg">
 <path d="m235.8 443.94c-8.5686 7.8309 0.55873 17.387 7.998 17.387 7.6972 0 11.128-6.1637 11.128-20.517 0-11.911-6.5592-22.255-20.864-22.255-14.656 0-28.167 15.155-28.167 41.033 0 14.518 17.056 31.644 37.556 31.644 37.595 0 70.243-52.952 70.243-133.88 0-147.32-90.272-217.72-93.89-219.77 5.3924 6.2236 73.025 85.993 73.025 207.95 0 75.7-27.945 116.84-47.64 116.84-9.3219 0-18.363-9.9908-9.389-18.43z" fill="#5ac700" fill-rule="evenodd" stroke="#FFF" stroke-linejoin="round" stroke-width="3.8947"/>
 <path d="m263.3 887.14c91.578-175.42 28.934-291.87-26.31-291.87-26.411 0-36.392 18.669-36.392 40.818 0 23.589 15.084 29.998 27.785 29.998 17.463 0 25.572-5.7857 25.572-22.868 0-9.4746-8.7732-13.77-15.737-13.77-6.0307 0-14.733 5.5031-9.8356 13.77-4.9178-8.2114 4.3507-17.161 9.8356-15.737 49.226 12.778 58.009 163.88 25.081 259.66z" fill="#5ac700" fill-rule="evenodd" stroke="#FFF" stroke-linejoin="round" stroke-width="3.8947"/>
 <path d="m207.2 468.63c9.7367 23.994 50.075 41.729 73.025 46.945v55.291c-23.53 3.1296-51.8 20.303-73.244 35.603 9.1572-21.096 30.008-43.717 52.031-52.99v-17.735c-22.835-12.635-47.756-37.44-51.813-67.114z" fill="#5ac700" fill-rule="evenodd" stroke="#FFF" stroke-linejoin="round" stroke-width="3.8947"/>
</svg>
