<?xml version="1.0" encoding="UTF-8"?>
<svg viewBox="0 0 744.09448819 1052.3622047" xmlns="http://www.w3.org/2000/svg" xmlns:xlink="http://www.w3.org/1999/xlink">
 <defs>
  <filter id="l">
   <feGaussianBlur stdDeviation="4.29539"/>
  </filter>
  <linearGradient id="b">
   <stop stop-color="#55d400" offset="0"/>
   <stop stop-color="#b9ff8a" offset="1"/>
  </linearGradient>
  <linearGradient id="c">
   <stop stop-color="#fff" offset="0"/>
   <stop stop-color="#fff" stop-opacity="0" offset="1"/>
  </linearGradient>
  <linearGradient id="a">
   <stop stop-color="#434343" offset="0"/>
   <stop stop-color="#161616" offset="1"/>
  </linearGradient>
  <linearGradient id="k" x1="342.69" x2="342.19" y1="327.58" y2="316.09" gradientUnits="userSpaceOnUse" xlink:href="#c"/>
  <linearGradient id="j" x1="410" x2="408.57" y1="429.51" y2="619.51" gradientUnits="userSpaceOnUse" xlink:href="#b"/>
  <linearGradient id="i" x1="580" x2="581.43" y1="380.93" y2="556.65" gradientUnits="userSpaceOnUse" xlink:href="#b"/>
  <radialGradient id="g" cx="69" cy="470.36" r="40" gradientTransform="matrix(.2269 .54644 -.73346 .28307 672.06 237.99)" gradientUnits="userSpaceOnUse" xlink:href="#a"/>
  <radialGradient id="f" cx="69" cy="470.36" r="40" gradientTransform="matrix(.2542 .61532 -.8217 .31875 712.94 207.2)" gradientUnits="userSpaceOnUse" xlink:href="#a"/>
  <radialGradient id="e" cx="69" cy="470.36" r="40" gradientTransform="matrix(.082676 .22666 -.26725 .11741 473.45 277.21)" gradientUnits="userSpaceOnUse" xlink:href="#a"/>
  <radialGradient id="d" cx="69" cy="470.36" r="40" gradientTransform="matrix(.032934 .070181 -.10646 .036355 365.94 334.56)" gradientUnits="userSpaceOnUse" xlink:href="#a"/>
  <radialGradient id="h" cx="388.57" cy="692.53" r="22.857" gradientTransform="matrix(-.0081233 1.4375 -1.5625 -.0088295 1473.8 141.33)" gradientUnits="userSpaceOnUse" xlink:href="#c"/>
 </defs>
 <path d="m322.52 316.38c81.432 3.5274 122.58 2.3292 201.52 0-3.1726 75.948 6.4845 193.39 26.533 225.18h-253.36c14.986-30.153 30.198-151.05 25.309-225.18z" fill="url(#i)" stroke="#1698ff" stroke-opacity=".23913" stroke-width="1.0812"/>
 <path d="m313.15 305.35 66.67-0.50508 2.5254 6.0609-6.8185 16.415h-62.124l-0.25254-21.971z" fill="url(#k)" opacity=".43472" stroke="#fff" stroke-linecap="round" stroke-miterlimit="80" stroke-width="1.2"/>
 <path transform="matrix(1.1203 0 0 1.1261 -41.092 -56.281)" d="m444.99 348.46-7.333 8.0715-3.6665 4.0357-58.191 64.052c-0.99483-6.3672-4.622-12.911-10.589-18.029-11.541-9.8977-27.478-10.699-35.574-1.7876s-5.2993 24.176 6.2418 34.074c0.36066 0.3093 0.73784 0.60149 1.1067 0.89301 9.584 7.5742 21.822 9.1444 30.147 4.37l0.65336 0.56033 3.6665-4.0357 68.288-75.166 57.496 49.309-60.024 66.069c-0.99484-6.3672-4.622-12.911-10.589-18.029-11.541-9.8977-27.478-10.699-35.574-1.7876s-5.2993 24.176 6.2418 34.073c9.7313 8.3456 22.608 10.221 31.254 5.263l0.65337 0.56033 75.621-83.237 9.1662-10.089-68.995-59.171z" fill="url(#g)" filter="url(#l)"/>
 <path d="m458.56 331.61-8.2152 9.089-4.1076 4.5445-65.192 72.126c-1.1145-7.1698-5.1781-14.539-11.863-20.301-12.93-11.145-30.784-12.047-39.854-2.013s-5.9369 27.223 6.9927 38.369c0.40405 0.3483 0.82661 0.67732 1.2398 1.0056 10.737 8.529 24.447 10.297 33.774 4.9209l0.73197 0.63097 4.1076-4.5445 76.504-84.641 64.414 55.525-67.246 74.398c-1.1145-7.1698-5.1781-14.539-11.863-20.301-12.93-11.145-30.784-12.047-39.854-2.013s-5.9369 27.223 6.9928 38.369c10.902 9.3977 25.328 11.51 35.014 5.9265l0.73198 0.63097 84.72-93.73 10.269-11.361-77.297-66.63z" fill="url(#f)"/>
 <path d="m390.72 323.04-2.6719 3.348-1.336 1.674-21.203 26.568c-0.36248-2.641-1.6841-5.3553-3.8584-7.4781-4.2052-4.1054-10.012-4.4376-12.962-0.74149s-1.9309 10.028 2.2743 14.133c0.13141 0.1283 0.26885 0.24949 0.40325 0.37041 3.4921 3.1417 7.9512 3.793 10.985 1.8126l0.23807 0.23242 1.336-1.674 24.882-31.178 20.95 20.453-21.871 27.405c-0.36249-2.641-1.6841-5.3553-3.8584-7.4781-4.2052-4.1054-10.012-4.4376-12.962-0.74149s-1.9309 10.028 2.2743 14.133c3.5458 3.4617 8.2376 4.2396 11.388 2.1831l0.23807 0.23242 27.554-34.526 3.3399-4.185-25.14-24.543z" fill="url(#e)"/>
 <path d="m332.99 348.75-1.0644 1.0366-0.53218 0.51832-8.4463 8.2264c-0.1444-0.81776-0.67087-1.6582-1.537-2.3155-1.6752-1.2712-3.9884-1.374-5.1634-0.22959s-0.76918 3.105 0.90598 4.3762l0.16064 0.11469c1.3911 0.97277 3.1674 1.1744 4.3758 0.56125l0.09483 0.07197 0.53219-0.51832 9.9119-9.6538 8.3454 6.3329-8.7124 8.4855c-0.14439-0.81775-0.67087-1.6582-1.537-2.3155-1.6752-1.2712-3.9884-1.374-5.1634-0.2296s-0.76918 3.105 0.90597 4.3762c1.4125 1.0718 3.2815 1.3127 4.5364 0.67595l0.09484 0.07196 10.976-10.69 1.3304-1.2958-10.015-7.5995z" fill="url(#d)"/>
 <path transform="translate(14.286 -234.29)" d="m424.29 705.93a22.857 20.714 0 1 1 -45.714 0 22.857 20.714 0 1 1 45.714 0z" fill="url(#h)" opacity=".35498"/>
 <path d="m276.08 404.71c99.108 9.6731 188.5 7.8819 292.62 0-16.629 45.956-21.904 91.912-18.427 137.87l-252.52-0.87642c2.1662-47.109-8.8384-92.384-21.675-136.99z" fill="url(#j)" opacity=".85" stroke="#0584ff" stroke-opacity=".19565" stroke-width=".91095"/>
</svg>
